%FSLAX45Y45*%
G04 Gerber Fmt 4.5, Leading zero omitted, Abs format (unit mm)*
G04 Created by KiCad (PCBNEW (2015-11-24 BZR 6329, Git e511afd)-product) date Die 01 Dez 2015 10:43:12 CET*
%MOMM*%
G01*
G04 APERTURE LIST*
%ADD10C,0.127000*%
%ADD11C,0.100000*%
%ADD12C,0.200000*%
%ADD13C,0.300000*%
G04 APERTURE END LIST*
D10*
D11*
X11008000Y-6909200D02*
X14508000Y-6909200D01*
X11008000Y-11909200D02*
X11008000Y-6909200D01*
X14508000Y-11909200D02*
X11008000Y-11909200D01*
X14508000Y-6909200D02*
X14508000Y-11909200D01*
D12*
X11379962Y-7302562D02*
X11480038Y-7402638D01*
X11480038Y-7302562D02*
X11379962Y-7402638D01*
X11379962Y-8802562D02*
X11480038Y-8902638D01*
X11480038Y-8802562D02*
X11379962Y-8902638D01*
X11480800Y-10058400D02*
G75*
G03X11480800Y-10058400I-50800J0D01*
G01*
X11480800Y-10312400D02*
G75*
G03X11480800Y-10312400I-50800J0D01*
G01*
X11480800Y-10566400D02*
G75*
G03X11480800Y-10566400I-50800J0D01*
G01*
X12119000Y-7834200D02*
X12119000Y-7936200D01*
X12068000Y-7885200D02*
X12170000Y-7885200D01*
X12119000Y-8088200D02*
X12119000Y-8190200D01*
X12068000Y-8139200D02*
X12170000Y-8139200D01*
X12119000Y-8342200D02*
X12119000Y-8444200D01*
X12068000Y-8393200D02*
X12170000Y-8393200D01*
X12119000Y-8596200D02*
X12119000Y-8698200D01*
X12068000Y-8647200D02*
X12170000Y-8647200D01*
X12119000Y-8850200D02*
X12119000Y-8952200D01*
X12068000Y-8901200D02*
X12170000Y-8901200D01*
X12119000Y-9104200D02*
X12119000Y-9206200D01*
X12068000Y-9155200D02*
X12170000Y-9155200D01*
X12119000Y-9358200D02*
X12119000Y-9460200D01*
X12068000Y-9409200D02*
X12170000Y-9409200D01*
X12119000Y-9612200D02*
X12119000Y-9714200D01*
X12068000Y-9663200D02*
X12170000Y-9663200D01*
X12119000Y-9866200D02*
X12119000Y-9968200D01*
X12068000Y-9917200D02*
X12170000Y-9917200D01*
X12119000Y-10120200D02*
X12119000Y-10222200D01*
X12068000Y-10171200D02*
X12170000Y-10171200D01*
X12119000Y-10374200D02*
X12119000Y-10476200D01*
X12068000Y-10425200D02*
X12170000Y-10425200D01*
X12119000Y-10628200D02*
X12119000Y-10730200D01*
X12068000Y-10679200D02*
X12170000Y-10679200D01*
X13897000Y-7834200D02*
X13897000Y-7936200D01*
X13846000Y-7885200D02*
X13948000Y-7885200D01*
X13897000Y-8088200D02*
X13897000Y-8190200D01*
X13846000Y-8139200D02*
X13948000Y-8139200D01*
X13897000Y-8342200D02*
X13897000Y-8444200D01*
X13846000Y-8393200D02*
X13948000Y-8393200D01*
X13897000Y-8596200D02*
X13897000Y-8698200D01*
X13846000Y-8647200D02*
X13948000Y-8647200D01*
X13897000Y-8850200D02*
X13897000Y-8952200D01*
X13846000Y-8901200D02*
X13948000Y-8901200D01*
X13897000Y-9104200D02*
X13897000Y-9206200D01*
X13846000Y-9155200D02*
X13948000Y-9155200D01*
X13897000Y-9358200D02*
X13897000Y-9460200D01*
X13846000Y-9409200D02*
X13948000Y-9409200D01*
X13897000Y-9612200D02*
X13897000Y-9714200D01*
X13846000Y-9663200D02*
X13948000Y-9663200D01*
X13897000Y-9866200D02*
X13897000Y-9968200D01*
X13846000Y-9917200D02*
X13948000Y-9917200D01*
X13897000Y-10120200D02*
X13897000Y-10222200D01*
X13846000Y-10171200D02*
X13948000Y-10171200D01*
X13897000Y-10374200D02*
X13897000Y-10476200D01*
X13846000Y-10425200D02*
X13948000Y-10425200D01*
X13897000Y-10628200D02*
X13897000Y-10730200D01*
X13846000Y-10679200D02*
X13948000Y-10679200D01*
X11377247Y-11682047D02*
X11377247Y-11533553D01*
X11228753Y-11533553D01*
X11228753Y-11682047D01*
X11377247Y-11682047D01*
X14272847Y-7287847D02*
X14272847Y-7139353D01*
X14124353Y-7139353D01*
X14124353Y-7287847D01*
X14272847Y-7287847D01*
D13*
X11274428Y-12379914D02*
X11274428Y-12079914D01*
X11345857Y-12079914D01*
X11388714Y-12094200D01*
X11417286Y-12122771D01*
X11431571Y-12151343D01*
X11445857Y-12208486D01*
X11445857Y-12251343D01*
X11431571Y-12308486D01*
X11417286Y-12337057D01*
X11388714Y-12365629D01*
X11345857Y-12379914D01*
X11274428Y-12379914D01*
X11574428Y-12379914D02*
X11574428Y-12179914D01*
X11574428Y-12237057D02*
X11588714Y-12208486D01*
X11603000Y-12194200D01*
X11631571Y-12179914D01*
X11660143Y-12179914D01*
X11760143Y-12379914D02*
X11760143Y-12179914D01*
X11760143Y-12079914D02*
X11745857Y-12094200D01*
X11760143Y-12108486D01*
X11774428Y-12094200D01*
X11760143Y-12079914D01*
X11760143Y-12108486D01*
X11945857Y-12379914D02*
X11917286Y-12365629D01*
X11903000Y-12337057D01*
X11903000Y-12079914D01*
X12103000Y-12379914D02*
X12074428Y-12365629D01*
X12060143Y-12337057D01*
X12060143Y-12079914D01*
X12445857Y-12379914D02*
X12445857Y-12079914D01*
X12545857Y-12294200D01*
X12645857Y-12079914D01*
X12645857Y-12379914D01*
X12917286Y-12379914D02*
X12917286Y-12222771D01*
X12903000Y-12194200D01*
X12874428Y-12179914D01*
X12817286Y-12179914D01*
X12788714Y-12194200D01*
X12917286Y-12365629D02*
X12888714Y-12379914D01*
X12817286Y-12379914D01*
X12788714Y-12365629D01*
X12774428Y-12337057D01*
X12774428Y-12308486D01*
X12788714Y-12279914D01*
X12817286Y-12265629D01*
X12888714Y-12265629D01*
X12917286Y-12251343D01*
X13060143Y-12179914D02*
X13060143Y-12479914D01*
X13060143Y-12194200D02*
X13088714Y-12179914D01*
X13145857Y-12179914D01*
X13174428Y-12194200D01*
X13188714Y-12208486D01*
X13203000Y-12237057D01*
X13203000Y-12322771D01*
X13188714Y-12351343D01*
X13174428Y-12365629D01*
X13145857Y-12379914D01*
X13088714Y-12379914D01*
X13060143Y-12365629D01*
X13331571Y-12351343D02*
X13345857Y-12365629D01*
X13331571Y-12379914D01*
X13317286Y-12365629D01*
X13331571Y-12351343D01*
X13331571Y-12379914D01*
X13331571Y-12194200D02*
X13345857Y-12208486D01*
X13331571Y-12222771D01*
X13317286Y-12208486D01*
X13331571Y-12194200D01*
X13331571Y-12222771D01*
X10902924Y-12824162D02*
X11003000Y-12924238D01*
X11003000Y-12824162D02*
X10902924Y-12924238D01*
X11431571Y-13009914D02*
X11260143Y-13009914D01*
X11345857Y-13009914D02*
X11345857Y-12709914D01*
X11317286Y-12752771D01*
X11288714Y-12781343D01*
X11260143Y-12795629D01*
X11560143Y-12981343D02*
X11574428Y-12995629D01*
X11560143Y-13009914D01*
X11545857Y-12995629D01*
X11560143Y-12981343D01*
X11560143Y-13009914D01*
X11760143Y-12709914D02*
X11788714Y-12709914D01*
X11817286Y-12724200D01*
X11831571Y-12738486D01*
X11845857Y-12767057D01*
X11860143Y-12824200D01*
X11860143Y-12895629D01*
X11845857Y-12952771D01*
X11831571Y-12981343D01*
X11817286Y-12995629D01*
X11788714Y-13009914D01*
X11760143Y-13009914D01*
X11731571Y-12995629D01*
X11717286Y-12981343D01*
X11703000Y-12952771D01*
X11688714Y-12895629D01*
X11688714Y-12824200D01*
X11703000Y-12767057D01*
X11717286Y-12738486D01*
X11731571Y-12724200D01*
X11760143Y-12709914D01*
X12045857Y-12709914D02*
X12074428Y-12709914D01*
X12103000Y-12724200D01*
X12117286Y-12738486D01*
X12131571Y-12767057D01*
X12145857Y-12824200D01*
X12145857Y-12895629D01*
X12131571Y-12952771D01*
X12117286Y-12981343D01*
X12103000Y-12995629D01*
X12074428Y-13009914D01*
X12045857Y-13009914D01*
X12017286Y-12995629D01*
X12003000Y-12981343D01*
X11988714Y-12952771D01*
X11974428Y-12895629D01*
X11974428Y-12824200D01*
X11988714Y-12767057D01*
X12003000Y-12738486D01*
X12017286Y-12724200D01*
X12045857Y-12709914D01*
X12274428Y-13009914D02*
X12274428Y-12809914D01*
X12274428Y-12838486D02*
X12288714Y-12824200D01*
X12317286Y-12809914D01*
X12360143Y-12809914D01*
X12388714Y-12824200D01*
X12403000Y-12852771D01*
X12403000Y-13009914D01*
X12403000Y-12852771D02*
X12417286Y-12824200D01*
X12445857Y-12809914D01*
X12488714Y-12809914D01*
X12517286Y-12824200D01*
X12531571Y-12852771D01*
X12531571Y-13009914D01*
X12674428Y-13009914D02*
X12674428Y-12809914D01*
X12674428Y-12838486D02*
X12688714Y-12824200D01*
X12717286Y-12809914D01*
X12760143Y-12809914D01*
X12788714Y-12824200D01*
X12803000Y-12852771D01*
X12803000Y-13009914D01*
X12803000Y-12852771D02*
X12817286Y-12824200D01*
X12845857Y-12809914D01*
X12888714Y-12809914D01*
X12917286Y-12824200D01*
X12931571Y-12852771D01*
X12931571Y-13009914D01*
X13517286Y-12695629D02*
X13260143Y-13081343D01*
X13903000Y-12709914D02*
X13931571Y-12709914D01*
X13960143Y-12724200D01*
X13974428Y-12738486D01*
X13988714Y-12767057D01*
X14003000Y-12824200D01*
X14003000Y-12895629D01*
X13988714Y-12952771D01*
X13974428Y-12981343D01*
X13960143Y-12995629D01*
X13931571Y-13009914D01*
X13903000Y-13009914D01*
X13874428Y-12995629D01*
X13860143Y-12981343D01*
X13845857Y-12952771D01*
X13831571Y-12895629D01*
X13831571Y-12824200D01*
X13845857Y-12767057D01*
X13860143Y-12738486D01*
X13874428Y-12724200D01*
X13903000Y-12709914D01*
X14131571Y-12981343D02*
X14145857Y-12995629D01*
X14131571Y-13009914D01*
X14117286Y-12995629D01*
X14131571Y-12981343D01*
X14131571Y-13009914D01*
X14331571Y-12709914D02*
X14360143Y-12709914D01*
X14388714Y-12724200D01*
X14403000Y-12738486D01*
X14417285Y-12767057D01*
X14431571Y-12824200D01*
X14431571Y-12895629D01*
X14417285Y-12952771D01*
X14403000Y-12981343D01*
X14388714Y-12995629D01*
X14360143Y-13009914D01*
X14331571Y-13009914D01*
X14303000Y-12995629D01*
X14288714Y-12981343D01*
X14274428Y-12952771D01*
X14260143Y-12895629D01*
X14260143Y-12824200D01*
X14274428Y-12767057D01*
X14288714Y-12738486D01*
X14303000Y-12724200D01*
X14331571Y-12709914D01*
X14531571Y-12709914D02*
X14717285Y-12709914D01*
X14617285Y-12824200D01*
X14660143Y-12824200D01*
X14688714Y-12838486D01*
X14703000Y-12852771D01*
X14717285Y-12881343D01*
X14717285Y-12952771D01*
X14703000Y-12981343D01*
X14688714Y-12995629D01*
X14660143Y-13009914D01*
X14574428Y-13009914D01*
X14545857Y-12995629D01*
X14531571Y-12981343D01*
X14860143Y-13009914D02*
X14917285Y-13009914D01*
X14945857Y-12995629D01*
X14960143Y-12981343D01*
X14988714Y-12938486D01*
X15003000Y-12881343D01*
X15003000Y-12767057D01*
X14988714Y-12738486D01*
X14974428Y-12724200D01*
X14945857Y-12709914D01*
X14888714Y-12709914D01*
X14860143Y-12724200D01*
X14845857Y-12738486D01*
X14831571Y-12767057D01*
X14831571Y-12838486D01*
X14845857Y-12867057D01*
X14860143Y-12881343D01*
X14888714Y-12895629D01*
X14945857Y-12895629D01*
X14974428Y-12881343D01*
X14988714Y-12867057D01*
X15003000Y-12838486D01*
X15117286Y-12709914D02*
X15117286Y-12767057D01*
X15231571Y-12709914D02*
X15231571Y-12767057D01*
X15674428Y-13124200D02*
X15660143Y-13109914D01*
X15631571Y-13067057D01*
X15617285Y-13038486D01*
X15603000Y-12995629D01*
X15588714Y-12924200D01*
X15588714Y-12867057D01*
X15603000Y-12795629D01*
X15617285Y-12752771D01*
X15631571Y-12724200D01*
X15660143Y-12681343D01*
X15674428Y-12667057D01*
X15774428Y-12738486D02*
X15788714Y-12724200D01*
X15817285Y-12709914D01*
X15888714Y-12709914D01*
X15917285Y-12724200D01*
X15931571Y-12738486D01*
X15945857Y-12767057D01*
X15945857Y-12795629D01*
X15931571Y-12838486D01*
X15760143Y-13009914D01*
X15945857Y-13009914D01*
X16303000Y-13009914D02*
X16303000Y-12709914D01*
X16431571Y-13009914D02*
X16431571Y-12852771D01*
X16417285Y-12824200D01*
X16388714Y-12809914D01*
X16345857Y-12809914D01*
X16317285Y-12824200D01*
X16303000Y-12838486D01*
X16617285Y-13009914D02*
X16588714Y-12995629D01*
X16574428Y-12981343D01*
X16560143Y-12952771D01*
X16560143Y-12867057D01*
X16574428Y-12838486D01*
X16588714Y-12824200D01*
X16617285Y-12809914D01*
X16660143Y-12809914D01*
X16688714Y-12824200D01*
X16703000Y-12838486D01*
X16717285Y-12867057D01*
X16717285Y-12952771D01*
X16703000Y-12981343D01*
X16688714Y-12995629D01*
X16660143Y-13009914D01*
X16617285Y-13009914D01*
X16888714Y-13009914D02*
X16860143Y-12995629D01*
X16845857Y-12967057D01*
X16845857Y-12709914D01*
X17117286Y-12995629D02*
X17088714Y-13009914D01*
X17031571Y-13009914D01*
X17003000Y-12995629D01*
X16988714Y-12967057D01*
X16988714Y-12852771D01*
X17003000Y-12824200D01*
X17031571Y-12809914D01*
X17088714Y-12809914D01*
X17117286Y-12824200D01*
X17131571Y-12852771D01*
X17131571Y-12881343D01*
X16988714Y-12909914D01*
X17245857Y-12995629D02*
X17274429Y-13009914D01*
X17331571Y-13009914D01*
X17360143Y-12995629D01*
X17374429Y-12967057D01*
X17374429Y-12952771D01*
X17360143Y-12924200D01*
X17331571Y-12909914D01*
X17288714Y-12909914D01*
X17260143Y-12895629D01*
X17245857Y-12867057D01*
X17245857Y-12852771D01*
X17260143Y-12824200D01*
X17288714Y-12809914D01*
X17331571Y-12809914D01*
X17360143Y-12824200D01*
X17474428Y-13124200D02*
X17488714Y-13109914D01*
X17517286Y-13067057D01*
X17531571Y-13038486D01*
X17545857Y-12995629D01*
X17560143Y-12924200D01*
X17560143Y-12867057D01*
X17545857Y-12795629D01*
X17531571Y-12752771D01*
X17517286Y-12724200D01*
X17488714Y-12681343D01*
X17474428Y-12667057D01*
X11003000Y-13270200D02*
G75*
G03X11003000Y-13270200I-50800J0D01*
G01*
X11431571Y-13405914D02*
X11260143Y-13405914D01*
X11345857Y-13405914D02*
X11345857Y-13105914D01*
X11317286Y-13148771D01*
X11288714Y-13177343D01*
X11260143Y-13191629D01*
X11560143Y-13377343D02*
X11574428Y-13391629D01*
X11560143Y-13405914D01*
X11545857Y-13391629D01*
X11560143Y-13377343D01*
X11560143Y-13405914D01*
X11760143Y-13105914D02*
X11788714Y-13105914D01*
X11817286Y-13120200D01*
X11831571Y-13134486D01*
X11845857Y-13163057D01*
X11860143Y-13220200D01*
X11860143Y-13291629D01*
X11845857Y-13348771D01*
X11831571Y-13377343D01*
X11817286Y-13391629D01*
X11788714Y-13405914D01*
X11760143Y-13405914D01*
X11731571Y-13391629D01*
X11717286Y-13377343D01*
X11703000Y-13348771D01*
X11688714Y-13291629D01*
X11688714Y-13220200D01*
X11703000Y-13163057D01*
X11717286Y-13134486D01*
X11731571Y-13120200D01*
X11760143Y-13105914D01*
X11974428Y-13134486D02*
X11988714Y-13120200D01*
X12017286Y-13105914D01*
X12088714Y-13105914D01*
X12117286Y-13120200D01*
X12131571Y-13134486D01*
X12145857Y-13163057D01*
X12145857Y-13191629D01*
X12131571Y-13234486D01*
X11960143Y-13405914D01*
X12145857Y-13405914D01*
X12274428Y-13405914D02*
X12274428Y-13205914D01*
X12274428Y-13234486D02*
X12288714Y-13220200D01*
X12317286Y-13205914D01*
X12360143Y-13205914D01*
X12388714Y-13220200D01*
X12403000Y-13248771D01*
X12403000Y-13405914D01*
X12403000Y-13248771D02*
X12417286Y-13220200D01*
X12445857Y-13205914D01*
X12488714Y-13205914D01*
X12517286Y-13220200D01*
X12531571Y-13248771D01*
X12531571Y-13405914D01*
X12674428Y-13405914D02*
X12674428Y-13205914D01*
X12674428Y-13234486D02*
X12688714Y-13220200D01*
X12717286Y-13205914D01*
X12760143Y-13205914D01*
X12788714Y-13220200D01*
X12803000Y-13248771D01*
X12803000Y-13405914D01*
X12803000Y-13248771D02*
X12817286Y-13220200D01*
X12845857Y-13205914D01*
X12888714Y-13205914D01*
X12917286Y-13220200D01*
X12931571Y-13248771D01*
X12931571Y-13405914D01*
X13517286Y-13091629D02*
X13260143Y-13477343D01*
X13903000Y-13105914D02*
X13931571Y-13105914D01*
X13960143Y-13120200D01*
X13974428Y-13134486D01*
X13988714Y-13163057D01*
X14003000Y-13220200D01*
X14003000Y-13291629D01*
X13988714Y-13348771D01*
X13974428Y-13377343D01*
X13960143Y-13391629D01*
X13931571Y-13405914D01*
X13903000Y-13405914D01*
X13874428Y-13391629D01*
X13860143Y-13377343D01*
X13845857Y-13348771D01*
X13831571Y-13291629D01*
X13831571Y-13220200D01*
X13845857Y-13163057D01*
X13860143Y-13134486D01*
X13874428Y-13120200D01*
X13903000Y-13105914D01*
X14131571Y-13377343D02*
X14145857Y-13391629D01*
X14131571Y-13405914D01*
X14117286Y-13391629D01*
X14131571Y-13377343D01*
X14131571Y-13405914D01*
X14331571Y-13105914D02*
X14360143Y-13105914D01*
X14388714Y-13120200D01*
X14403000Y-13134486D01*
X14417285Y-13163057D01*
X14431571Y-13220200D01*
X14431571Y-13291629D01*
X14417285Y-13348771D01*
X14403000Y-13377343D01*
X14388714Y-13391629D01*
X14360143Y-13405914D01*
X14331571Y-13405914D01*
X14303000Y-13391629D01*
X14288714Y-13377343D01*
X14274428Y-13348771D01*
X14260143Y-13291629D01*
X14260143Y-13220200D01*
X14274428Y-13163057D01*
X14288714Y-13134486D01*
X14303000Y-13120200D01*
X14331571Y-13105914D01*
X14688714Y-13205914D02*
X14688714Y-13405914D01*
X14617285Y-13091629D02*
X14545857Y-13305914D01*
X14731571Y-13305914D01*
X14903000Y-13105914D02*
X14931571Y-13105914D01*
X14960143Y-13120200D01*
X14974428Y-13134486D01*
X14988714Y-13163057D01*
X15003000Y-13220200D01*
X15003000Y-13291629D01*
X14988714Y-13348771D01*
X14974428Y-13377343D01*
X14960143Y-13391629D01*
X14931571Y-13405914D01*
X14903000Y-13405914D01*
X14874428Y-13391629D01*
X14860143Y-13377343D01*
X14845857Y-13348771D01*
X14831571Y-13291629D01*
X14831571Y-13220200D01*
X14845857Y-13163057D01*
X14860143Y-13134486D01*
X14874428Y-13120200D01*
X14903000Y-13105914D01*
X15117286Y-13105914D02*
X15117286Y-13163057D01*
X15231571Y-13105914D02*
X15231571Y-13163057D01*
X15674428Y-13520200D02*
X15660143Y-13505914D01*
X15631571Y-13463057D01*
X15617285Y-13434486D01*
X15603000Y-13391629D01*
X15588714Y-13320200D01*
X15588714Y-13263057D01*
X15603000Y-13191629D01*
X15617285Y-13148771D01*
X15631571Y-13120200D01*
X15660143Y-13077343D01*
X15674428Y-13063057D01*
X15760143Y-13105914D02*
X15945857Y-13105914D01*
X15845857Y-13220200D01*
X15888714Y-13220200D01*
X15917285Y-13234486D01*
X15931571Y-13248771D01*
X15945857Y-13277343D01*
X15945857Y-13348771D01*
X15931571Y-13377343D01*
X15917285Y-13391629D01*
X15888714Y-13405914D01*
X15803000Y-13405914D01*
X15774428Y-13391629D01*
X15760143Y-13377343D01*
X16303000Y-13405914D02*
X16303000Y-13105914D01*
X16431571Y-13405914D02*
X16431571Y-13248771D01*
X16417285Y-13220200D01*
X16388714Y-13205914D01*
X16345857Y-13205914D01*
X16317285Y-13220200D01*
X16303000Y-13234486D01*
X16617285Y-13405914D02*
X16588714Y-13391629D01*
X16574428Y-13377343D01*
X16560143Y-13348771D01*
X16560143Y-13263057D01*
X16574428Y-13234486D01*
X16588714Y-13220200D01*
X16617285Y-13205914D01*
X16660143Y-13205914D01*
X16688714Y-13220200D01*
X16703000Y-13234486D01*
X16717285Y-13263057D01*
X16717285Y-13348771D01*
X16703000Y-13377343D01*
X16688714Y-13391629D01*
X16660143Y-13405914D01*
X16617285Y-13405914D01*
X16888714Y-13405914D02*
X16860143Y-13391629D01*
X16845857Y-13363057D01*
X16845857Y-13105914D01*
X17117286Y-13391629D02*
X17088714Y-13405914D01*
X17031571Y-13405914D01*
X17003000Y-13391629D01*
X16988714Y-13363057D01*
X16988714Y-13248771D01*
X17003000Y-13220200D01*
X17031571Y-13205914D01*
X17088714Y-13205914D01*
X17117286Y-13220200D01*
X17131571Y-13248771D01*
X17131571Y-13277343D01*
X16988714Y-13305914D01*
X17245857Y-13391629D02*
X17274429Y-13405914D01*
X17331571Y-13405914D01*
X17360143Y-13391629D01*
X17374429Y-13363057D01*
X17374429Y-13348771D01*
X17360143Y-13320200D01*
X17331571Y-13305914D01*
X17288714Y-13305914D01*
X17260143Y-13291629D01*
X17245857Y-13263057D01*
X17245857Y-13248771D01*
X17260143Y-13220200D01*
X17288714Y-13205914D01*
X17331571Y-13205914D01*
X17360143Y-13220200D01*
X17474428Y-13520200D02*
X17488714Y-13505914D01*
X17517286Y-13463057D01*
X17531571Y-13434486D01*
X17545857Y-13391629D01*
X17560143Y-13320200D01*
X17560143Y-13263057D01*
X17545857Y-13191629D01*
X17531571Y-13148771D01*
X17517286Y-13120200D01*
X17488714Y-13077343D01*
X17474428Y-13063057D01*
X10952000Y-13615200D02*
X10952000Y-13717200D01*
X10901000Y-13666200D02*
X11003000Y-13666200D01*
X11431571Y-13801914D02*
X11260143Y-13801914D01*
X11345857Y-13801914D02*
X11345857Y-13501914D01*
X11317286Y-13544771D01*
X11288714Y-13573343D01*
X11260143Y-13587629D01*
X11560143Y-13773343D02*
X11574428Y-13787629D01*
X11560143Y-13801914D01*
X11545857Y-13787629D01*
X11560143Y-13773343D01*
X11560143Y-13801914D01*
X11760143Y-13501914D02*
X11788714Y-13501914D01*
X11817286Y-13516200D01*
X11831571Y-13530486D01*
X11845857Y-13559057D01*
X11860143Y-13616200D01*
X11860143Y-13687629D01*
X11845857Y-13744771D01*
X11831571Y-13773343D01*
X11817286Y-13787629D01*
X11788714Y-13801914D01*
X11760143Y-13801914D01*
X11731571Y-13787629D01*
X11717286Y-13773343D01*
X11703000Y-13744771D01*
X11688714Y-13687629D01*
X11688714Y-13616200D01*
X11703000Y-13559057D01*
X11717286Y-13530486D01*
X11731571Y-13516200D01*
X11760143Y-13501914D01*
X11974428Y-13530486D02*
X11988714Y-13516200D01*
X12017286Y-13501914D01*
X12088714Y-13501914D01*
X12117286Y-13516200D01*
X12131571Y-13530486D01*
X12145857Y-13559057D01*
X12145857Y-13587629D01*
X12131571Y-13630486D01*
X11960143Y-13801914D01*
X12145857Y-13801914D01*
X12274428Y-13801914D02*
X12274428Y-13601914D01*
X12274428Y-13630486D02*
X12288714Y-13616200D01*
X12317286Y-13601914D01*
X12360143Y-13601914D01*
X12388714Y-13616200D01*
X12403000Y-13644771D01*
X12403000Y-13801914D01*
X12403000Y-13644771D02*
X12417286Y-13616200D01*
X12445857Y-13601914D01*
X12488714Y-13601914D01*
X12517286Y-13616200D01*
X12531571Y-13644771D01*
X12531571Y-13801914D01*
X12674428Y-13801914D02*
X12674428Y-13601914D01*
X12674428Y-13630486D02*
X12688714Y-13616200D01*
X12717286Y-13601914D01*
X12760143Y-13601914D01*
X12788714Y-13616200D01*
X12803000Y-13644771D01*
X12803000Y-13801914D01*
X12803000Y-13644771D02*
X12817286Y-13616200D01*
X12845857Y-13601914D01*
X12888714Y-13601914D01*
X12917286Y-13616200D01*
X12931571Y-13644771D01*
X12931571Y-13801914D01*
X13517286Y-13487629D02*
X13260143Y-13873343D01*
X13903000Y-13501914D02*
X13931571Y-13501914D01*
X13960143Y-13516200D01*
X13974428Y-13530486D01*
X13988714Y-13559057D01*
X14003000Y-13616200D01*
X14003000Y-13687629D01*
X13988714Y-13744771D01*
X13974428Y-13773343D01*
X13960143Y-13787629D01*
X13931571Y-13801914D01*
X13903000Y-13801914D01*
X13874428Y-13787629D01*
X13860143Y-13773343D01*
X13845857Y-13744771D01*
X13831571Y-13687629D01*
X13831571Y-13616200D01*
X13845857Y-13559057D01*
X13860143Y-13530486D01*
X13874428Y-13516200D01*
X13903000Y-13501914D01*
X14131571Y-13773343D02*
X14145857Y-13787629D01*
X14131571Y-13801914D01*
X14117286Y-13787629D01*
X14131571Y-13773343D01*
X14131571Y-13801914D01*
X14331571Y-13501914D02*
X14360143Y-13501914D01*
X14388714Y-13516200D01*
X14403000Y-13530486D01*
X14417285Y-13559057D01*
X14431571Y-13616200D01*
X14431571Y-13687629D01*
X14417285Y-13744771D01*
X14403000Y-13773343D01*
X14388714Y-13787629D01*
X14360143Y-13801914D01*
X14331571Y-13801914D01*
X14303000Y-13787629D01*
X14288714Y-13773343D01*
X14274428Y-13744771D01*
X14260143Y-13687629D01*
X14260143Y-13616200D01*
X14274428Y-13559057D01*
X14288714Y-13530486D01*
X14303000Y-13516200D01*
X14331571Y-13501914D01*
X14688714Y-13601914D02*
X14688714Y-13801914D01*
X14617285Y-13487629D02*
X14545857Y-13701914D01*
X14731571Y-13701914D01*
X14903000Y-13501914D02*
X14931571Y-13501914D01*
X14960143Y-13516200D01*
X14974428Y-13530486D01*
X14988714Y-13559057D01*
X15003000Y-13616200D01*
X15003000Y-13687629D01*
X14988714Y-13744771D01*
X14974428Y-13773343D01*
X14960143Y-13787629D01*
X14931571Y-13801914D01*
X14903000Y-13801914D01*
X14874428Y-13787629D01*
X14860143Y-13773343D01*
X14845857Y-13744771D01*
X14831571Y-13687629D01*
X14831571Y-13616200D01*
X14845857Y-13559057D01*
X14860143Y-13530486D01*
X14874428Y-13516200D01*
X14903000Y-13501914D01*
X15117286Y-13501914D02*
X15117286Y-13559057D01*
X15231571Y-13501914D02*
X15231571Y-13559057D01*
X15674428Y-13916200D02*
X15660143Y-13901914D01*
X15631571Y-13859057D01*
X15617285Y-13830486D01*
X15603000Y-13787629D01*
X15588714Y-13716200D01*
X15588714Y-13659057D01*
X15603000Y-13587629D01*
X15617285Y-13544771D01*
X15631571Y-13516200D01*
X15660143Y-13473343D01*
X15674428Y-13459057D01*
X15774428Y-13530486D02*
X15788714Y-13516200D01*
X15817285Y-13501914D01*
X15888714Y-13501914D01*
X15917285Y-13516200D01*
X15931571Y-13530486D01*
X15945857Y-13559057D01*
X15945857Y-13587629D01*
X15931571Y-13630486D01*
X15760143Y-13801914D01*
X15945857Y-13801914D01*
X16203000Y-13601914D02*
X16203000Y-13801914D01*
X16131571Y-13487629D02*
X16060143Y-13701914D01*
X16245857Y-13701914D01*
X16588714Y-13801914D02*
X16588714Y-13501914D01*
X16717285Y-13801914D02*
X16717285Y-13644771D01*
X16703000Y-13616200D01*
X16674428Y-13601914D01*
X16631571Y-13601914D01*
X16603000Y-13616200D01*
X16588714Y-13630486D01*
X16903000Y-13801914D02*
X16874428Y-13787629D01*
X16860143Y-13773343D01*
X16845857Y-13744771D01*
X16845857Y-13659057D01*
X16860143Y-13630486D01*
X16874428Y-13616200D01*
X16903000Y-13601914D01*
X16945857Y-13601914D01*
X16974428Y-13616200D01*
X16988714Y-13630486D01*
X17003000Y-13659057D01*
X17003000Y-13744771D01*
X16988714Y-13773343D01*
X16974428Y-13787629D01*
X16945857Y-13801914D01*
X16903000Y-13801914D01*
X17174428Y-13801914D02*
X17145857Y-13787629D01*
X17131571Y-13759057D01*
X17131571Y-13501914D01*
X17403000Y-13787629D02*
X17374429Y-13801914D01*
X17317286Y-13801914D01*
X17288714Y-13787629D01*
X17274429Y-13759057D01*
X17274429Y-13644771D01*
X17288714Y-13616200D01*
X17317286Y-13601914D01*
X17374429Y-13601914D01*
X17403000Y-13616200D01*
X17417286Y-13644771D01*
X17417286Y-13673343D01*
X17274429Y-13701914D01*
X17531571Y-13787629D02*
X17560143Y-13801914D01*
X17617286Y-13801914D01*
X17645857Y-13787629D01*
X17660143Y-13759057D01*
X17660143Y-13744771D01*
X17645857Y-13716200D01*
X17617286Y-13701914D01*
X17574429Y-13701914D01*
X17545857Y-13687629D01*
X17531571Y-13659057D01*
X17531571Y-13644771D01*
X17545857Y-13616200D01*
X17574429Y-13601914D01*
X17617286Y-13601914D01*
X17645857Y-13616200D01*
X17760143Y-13916200D02*
X17774429Y-13901914D01*
X17803000Y-13859057D01*
X17817286Y-13830486D01*
X17831571Y-13787629D01*
X17845857Y-13716200D01*
X17845857Y-13659057D01*
X17831571Y-13587629D01*
X17817286Y-13544771D01*
X17803000Y-13516200D01*
X17774429Y-13473343D01*
X17760143Y-13459057D01*
X10972247Y-14136447D02*
X10972247Y-13987953D01*
X10823753Y-13987953D01*
X10823753Y-14136447D01*
X10972247Y-14136447D01*
X11260143Y-13926486D02*
X11274428Y-13912200D01*
X11303000Y-13897914D01*
X11374428Y-13897914D01*
X11403000Y-13912200D01*
X11417286Y-13926486D01*
X11431571Y-13955057D01*
X11431571Y-13983629D01*
X11417286Y-14026486D01*
X11245857Y-14197914D01*
X11431571Y-14197914D01*
X11560143Y-14169343D02*
X11574428Y-14183629D01*
X11560143Y-14197914D01*
X11545857Y-14183629D01*
X11560143Y-14169343D01*
X11560143Y-14197914D01*
X11860143Y-14197914D02*
X11688714Y-14197914D01*
X11774428Y-14197914D02*
X11774428Y-13897914D01*
X11745857Y-13940771D01*
X11717286Y-13969343D01*
X11688714Y-13983629D01*
X12045857Y-13897914D02*
X12074428Y-13897914D01*
X12103000Y-13912200D01*
X12117286Y-13926486D01*
X12131571Y-13955057D01*
X12145857Y-14012200D01*
X12145857Y-14083629D01*
X12131571Y-14140771D01*
X12117286Y-14169343D01*
X12103000Y-14183629D01*
X12074428Y-14197914D01*
X12045857Y-14197914D01*
X12017286Y-14183629D01*
X12003000Y-14169343D01*
X11988714Y-14140771D01*
X11974428Y-14083629D01*
X11974428Y-14012200D01*
X11988714Y-13955057D01*
X12003000Y-13926486D01*
X12017286Y-13912200D01*
X12045857Y-13897914D01*
X12274428Y-14197914D02*
X12274428Y-13997914D01*
X12274428Y-14026486D02*
X12288714Y-14012200D01*
X12317286Y-13997914D01*
X12360143Y-13997914D01*
X12388714Y-14012200D01*
X12403000Y-14040771D01*
X12403000Y-14197914D01*
X12403000Y-14040771D02*
X12417286Y-14012200D01*
X12445857Y-13997914D01*
X12488714Y-13997914D01*
X12517286Y-14012200D01*
X12531571Y-14040771D01*
X12531571Y-14197914D01*
X12674428Y-14197914D02*
X12674428Y-13997914D01*
X12674428Y-14026486D02*
X12688714Y-14012200D01*
X12717286Y-13997914D01*
X12760143Y-13997914D01*
X12788714Y-14012200D01*
X12803000Y-14040771D01*
X12803000Y-14197914D01*
X12803000Y-14040771D02*
X12817286Y-14012200D01*
X12845857Y-13997914D01*
X12888714Y-13997914D01*
X12917286Y-14012200D01*
X12931571Y-14040771D01*
X12931571Y-14197914D01*
X13517286Y-13883629D02*
X13260143Y-14269343D01*
X13903000Y-13897914D02*
X13931571Y-13897914D01*
X13960143Y-13912200D01*
X13974428Y-13926486D01*
X13988714Y-13955057D01*
X14003000Y-14012200D01*
X14003000Y-14083629D01*
X13988714Y-14140771D01*
X13974428Y-14169343D01*
X13960143Y-14183629D01*
X13931571Y-14197914D01*
X13903000Y-14197914D01*
X13874428Y-14183629D01*
X13860143Y-14169343D01*
X13845857Y-14140771D01*
X13831571Y-14083629D01*
X13831571Y-14012200D01*
X13845857Y-13955057D01*
X13860143Y-13926486D01*
X13874428Y-13912200D01*
X13903000Y-13897914D01*
X14131571Y-14169343D02*
X14145857Y-14183629D01*
X14131571Y-14197914D01*
X14117286Y-14183629D01*
X14131571Y-14169343D01*
X14131571Y-14197914D01*
X14331571Y-13897914D02*
X14360143Y-13897914D01*
X14388714Y-13912200D01*
X14403000Y-13926486D01*
X14417285Y-13955057D01*
X14431571Y-14012200D01*
X14431571Y-14083629D01*
X14417285Y-14140771D01*
X14403000Y-14169343D01*
X14388714Y-14183629D01*
X14360143Y-14197914D01*
X14331571Y-14197914D01*
X14303000Y-14183629D01*
X14288714Y-14169343D01*
X14274428Y-14140771D01*
X14260143Y-14083629D01*
X14260143Y-14012200D01*
X14274428Y-13955057D01*
X14288714Y-13926486D01*
X14303000Y-13912200D01*
X14331571Y-13897914D01*
X14603000Y-14026486D02*
X14574428Y-14012200D01*
X14560143Y-13997914D01*
X14545857Y-13969343D01*
X14545857Y-13955057D01*
X14560143Y-13926486D01*
X14574428Y-13912200D01*
X14603000Y-13897914D01*
X14660143Y-13897914D01*
X14688714Y-13912200D01*
X14703000Y-13926486D01*
X14717285Y-13955057D01*
X14717285Y-13969343D01*
X14703000Y-13997914D01*
X14688714Y-14012200D01*
X14660143Y-14026486D01*
X14603000Y-14026486D01*
X14574428Y-14040771D01*
X14560143Y-14055057D01*
X14545857Y-14083629D01*
X14545857Y-14140771D01*
X14560143Y-14169343D01*
X14574428Y-14183629D01*
X14603000Y-14197914D01*
X14660143Y-14197914D01*
X14688714Y-14183629D01*
X14703000Y-14169343D01*
X14717285Y-14140771D01*
X14717285Y-14083629D01*
X14703000Y-14055057D01*
X14688714Y-14040771D01*
X14660143Y-14026486D01*
X14817285Y-13897914D02*
X15003000Y-13897914D01*
X14903000Y-14012200D01*
X14945857Y-14012200D01*
X14974428Y-14026486D01*
X14988714Y-14040771D01*
X15003000Y-14069343D01*
X15003000Y-14140771D01*
X14988714Y-14169343D01*
X14974428Y-14183629D01*
X14945857Y-14197914D01*
X14860143Y-14197914D01*
X14831571Y-14183629D01*
X14817285Y-14169343D01*
X15117286Y-13897914D02*
X15117286Y-13955057D01*
X15231571Y-13897914D02*
X15231571Y-13955057D01*
X15674428Y-14312200D02*
X15660143Y-14297914D01*
X15631571Y-14255057D01*
X15617285Y-14226486D01*
X15603000Y-14183629D01*
X15588714Y-14112200D01*
X15588714Y-14055057D01*
X15603000Y-13983629D01*
X15617285Y-13940771D01*
X15631571Y-13912200D01*
X15660143Y-13869343D01*
X15674428Y-13855057D01*
X15774428Y-13926486D02*
X15788714Y-13912200D01*
X15817285Y-13897914D01*
X15888714Y-13897914D01*
X15917285Y-13912200D01*
X15931571Y-13926486D01*
X15945857Y-13955057D01*
X15945857Y-13983629D01*
X15931571Y-14026486D01*
X15760143Y-14197914D01*
X15945857Y-14197914D01*
X16303000Y-14197914D02*
X16303000Y-13897914D01*
X16431571Y-14197914D02*
X16431571Y-14040771D01*
X16417285Y-14012200D01*
X16388714Y-13997914D01*
X16345857Y-13997914D01*
X16317285Y-14012200D01*
X16303000Y-14026486D01*
X16617285Y-14197914D02*
X16588714Y-14183629D01*
X16574428Y-14169343D01*
X16560143Y-14140771D01*
X16560143Y-14055057D01*
X16574428Y-14026486D01*
X16588714Y-14012200D01*
X16617285Y-13997914D01*
X16660143Y-13997914D01*
X16688714Y-14012200D01*
X16703000Y-14026486D01*
X16717285Y-14055057D01*
X16717285Y-14140771D01*
X16703000Y-14169343D01*
X16688714Y-14183629D01*
X16660143Y-14197914D01*
X16617285Y-14197914D01*
X16888714Y-14197914D02*
X16860143Y-14183629D01*
X16845857Y-14155057D01*
X16845857Y-13897914D01*
X17117286Y-14183629D02*
X17088714Y-14197914D01*
X17031571Y-14197914D01*
X17003000Y-14183629D01*
X16988714Y-14155057D01*
X16988714Y-14040771D01*
X17003000Y-14012200D01*
X17031571Y-13997914D01*
X17088714Y-13997914D01*
X17117286Y-14012200D01*
X17131571Y-14040771D01*
X17131571Y-14069343D01*
X16988714Y-14097914D01*
X17245857Y-14183629D02*
X17274429Y-14197914D01*
X17331571Y-14197914D01*
X17360143Y-14183629D01*
X17374429Y-14155057D01*
X17374429Y-14140771D01*
X17360143Y-14112200D01*
X17331571Y-14097914D01*
X17288714Y-14097914D01*
X17260143Y-14083629D01*
X17245857Y-14055057D01*
X17245857Y-14040771D01*
X17260143Y-14012200D01*
X17288714Y-13997914D01*
X17331571Y-13997914D01*
X17360143Y-14012200D01*
X17474428Y-14312200D02*
X17488714Y-14297914D01*
X17517286Y-14255057D01*
X17531571Y-14226486D01*
X17545857Y-14183629D01*
X17560143Y-14112200D01*
X17560143Y-14055057D01*
X17545857Y-13983629D01*
X17531571Y-13940771D01*
X17517286Y-13912200D01*
X17488714Y-13869343D01*
X17474428Y-13855057D01*
M02*
