G04 #@! TF.FileFunction,Soldermask,Bot*
%FSLAX46Y46*%
G04 Gerber Fmt 4.6, Leading zero omitted, Abs format (unit mm)*
G04 Created by KiCad (PCBNEW (2015-11-24 BZR 6329, Git e511afd)-product) date Die 01 Dez 2015 10:43:08 CET*
%MOMM*%
G01*
G04 APERTURE LIST*
%ADD10C,0.150000*%
%ADD11C,0.300000*%
%ADD12C,1.900000*%
%ADD13R,1.524000X1.524000*%
%ADD14C,1.524000*%
%ADD15C,1.998980*%
G04 APERTURE END LIST*
D10*
D11*
X141025714Y-112365714D02*
X141097143Y-112437143D01*
X141311429Y-112508571D01*
X141454286Y-112508571D01*
X141668571Y-112437143D01*
X141811429Y-112294286D01*
X141882857Y-112151429D01*
X141954286Y-111865714D01*
X141954286Y-111651429D01*
X141882857Y-111365714D01*
X141811429Y-111222857D01*
X141668571Y-111080000D01*
X141454286Y-111008571D01*
X141311429Y-111008571D01*
X141097143Y-111080000D01*
X141025714Y-111151429D01*
X140168571Y-112508571D02*
X140311429Y-112437143D01*
X140382857Y-112365714D01*
X140454286Y-112222857D01*
X140454286Y-111794286D01*
X140382857Y-111651429D01*
X140311429Y-111580000D01*
X140168571Y-111508571D01*
X139954286Y-111508571D01*
X139811429Y-111580000D01*
X139740000Y-111651429D01*
X139668571Y-111794286D01*
X139668571Y-112222857D01*
X139740000Y-112365714D01*
X139811429Y-112437143D01*
X139954286Y-112508571D01*
X140168571Y-112508571D01*
X139025714Y-112508571D02*
X139025714Y-111508571D01*
X139025714Y-111794286D02*
X138954286Y-111651429D01*
X138882857Y-111580000D01*
X138740000Y-111508571D01*
X138597143Y-111508571D01*
X137525715Y-112437143D02*
X137668572Y-112508571D01*
X137954286Y-112508571D01*
X138097143Y-112437143D01*
X138168572Y-112294286D01*
X138168572Y-111722857D01*
X138097143Y-111580000D01*
X137954286Y-111508571D01*
X137668572Y-111508571D01*
X137525715Y-111580000D01*
X137454286Y-111722857D01*
X137454286Y-111865714D01*
X138168572Y-112008571D01*
X136168572Y-112508571D02*
X136168572Y-111008571D01*
X136168572Y-112437143D02*
X136311429Y-112508571D01*
X136597143Y-112508571D01*
X136740001Y-112437143D01*
X136811429Y-112365714D01*
X136882858Y-112222857D01*
X136882858Y-111794286D01*
X136811429Y-111651429D01*
X136740001Y-111580000D01*
X136597143Y-111508571D01*
X136311429Y-111508571D01*
X136168572Y-111580000D01*
X134811429Y-111508571D02*
X134811429Y-112508571D01*
X135454286Y-111508571D02*
X135454286Y-112294286D01*
X135382858Y-112437143D01*
X135240000Y-112508571D01*
X135025715Y-112508571D01*
X134882858Y-112437143D01*
X134811429Y-112365714D01*
X134097143Y-112508571D02*
X134097143Y-111508571D01*
X134097143Y-111651429D02*
X134025715Y-111580000D01*
X133882857Y-111508571D01*
X133668572Y-111508571D01*
X133525715Y-111580000D01*
X133454286Y-111722857D01*
X133454286Y-112508571D01*
X133454286Y-111722857D02*
X133382857Y-111580000D01*
X133240000Y-111508571D01*
X133025715Y-111508571D01*
X132882857Y-111580000D01*
X132811429Y-111722857D01*
X132811429Y-112508571D01*
X132097143Y-111508571D02*
X132097143Y-113008571D01*
X132097143Y-111580000D02*
X131954286Y-111508571D01*
X131668572Y-111508571D01*
X131525715Y-111580000D01*
X131454286Y-111651429D01*
X131382857Y-111794286D01*
X131382857Y-112222857D01*
X131454286Y-112365714D01*
X131525715Y-112437143D01*
X131668572Y-112508571D01*
X131954286Y-112508571D01*
X132097143Y-112437143D01*
X128740000Y-112508571D02*
X129240000Y-111794286D01*
X129597143Y-112508571D02*
X129597143Y-111008571D01*
X129025715Y-111008571D01*
X128882857Y-111080000D01*
X128811429Y-111151429D01*
X128740000Y-111294286D01*
X128740000Y-111508571D01*
X128811429Y-111651429D01*
X128882857Y-111722857D01*
X129025715Y-111794286D01*
X129597143Y-111794286D01*
X127454286Y-112508571D02*
X127454286Y-111722857D01*
X127525715Y-111580000D01*
X127668572Y-111508571D01*
X127954286Y-111508571D01*
X128097143Y-111580000D01*
X127454286Y-112437143D02*
X127597143Y-112508571D01*
X127954286Y-112508571D01*
X128097143Y-112437143D01*
X128168572Y-112294286D01*
X128168572Y-112151429D01*
X128097143Y-112008571D01*
X127954286Y-111937143D01*
X127597143Y-111937143D01*
X127454286Y-111865714D01*
X126740000Y-111508571D02*
X126740000Y-113008571D01*
X126740000Y-111580000D02*
X126597143Y-111508571D01*
X126311429Y-111508571D01*
X126168572Y-111580000D01*
X126097143Y-111651429D01*
X126025714Y-111794286D01*
X126025714Y-112222857D01*
X126097143Y-112365714D01*
X126168572Y-112437143D01*
X126311429Y-112508571D01*
X126597143Y-112508571D01*
X126740000Y-112437143D01*
X125382857Y-111508571D02*
X125382857Y-113008571D01*
X125382857Y-111580000D02*
X125240000Y-111508571D01*
X124954286Y-111508571D01*
X124811429Y-111580000D01*
X124740000Y-111651429D01*
X124668571Y-111794286D01*
X124668571Y-112222857D01*
X124740000Y-112365714D01*
X124811429Y-112437143D01*
X124954286Y-112508571D01*
X125240000Y-112508571D01*
X125382857Y-112437143D01*
X123454286Y-112437143D02*
X123597143Y-112508571D01*
X123882857Y-112508571D01*
X124025714Y-112437143D01*
X124097143Y-112294286D01*
X124097143Y-111722857D01*
X124025714Y-111580000D01*
X123882857Y-111508571D01*
X123597143Y-111508571D01*
X123454286Y-111580000D01*
X123382857Y-111722857D01*
X123382857Y-111865714D01*
X124097143Y-112008571D01*
X122740000Y-112508571D02*
X122740000Y-111508571D01*
X122740000Y-111794286D02*
X122668572Y-111651429D01*
X122597143Y-111580000D01*
X122454286Y-111508571D01*
X122311429Y-111508571D01*
X121882858Y-112437143D02*
X121740001Y-112508571D01*
X121454286Y-112508571D01*
X121311429Y-112437143D01*
X121240001Y-112294286D01*
X121240001Y-112222857D01*
X121311429Y-112080000D01*
X121454286Y-112008571D01*
X121668572Y-112008571D01*
X121811429Y-111937143D01*
X121882858Y-111794286D01*
X121882858Y-111722857D01*
X121811429Y-111580000D01*
X121668572Y-111508571D01*
X121454286Y-111508571D01*
X121311429Y-111580000D01*
X120740000Y-111508571D02*
X120454286Y-112508571D01*
X120168572Y-111794286D01*
X119882857Y-112508571D01*
X119597143Y-111508571D01*
X119025714Y-112508571D02*
X119025714Y-111508571D01*
X119025714Y-111008571D02*
X119097143Y-111080000D01*
X119025714Y-111151429D01*
X118954286Y-111080000D01*
X119025714Y-111008571D01*
X119025714Y-111151429D01*
X118097142Y-112508571D02*
X118240000Y-112437143D01*
X118311428Y-112294286D01*
X118311428Y-111008571D01*
X142025714Y-113908571D02*
X141740000Y-114908571D01*
X141454286Y-114194286D01*
X141168571Y-114908571D01*
X140882857Y-113908571D01*
X140454285Y-113908571D02*
X140168571Y-114908571D01*
X139882857Y-114194286D01*
X139597142Y-114908571D01*
X139311428Y-113908571D01*
X138882856Y-113908571D02*
X138597142Y-114908571D01*
X138311428Y-114194286D01*
X138025713Y-114908571D01*
X137739999Y-113908571D01*
X137168570Y-114765714D02*
X137097142Y-114837143D01*
X137168570Y-114908571D01*
X137239999Y-114837143D01*
X137168570Y-114765714D01*
X137168570Y-114908571D01*
X135811427Y-114837143D02*
X135954284Y-114908571D01*
X136239998Y-114908571D01*
X136382856Y-114837143D01*
X136454284Y-114765714D01*
X136525713Y-114622857D01*
X136525713Y-114194286D01*
X136454284Y-114051429D01*
X136382856Y-113980000D01*
X136239998Y-113908571D01*
X135954284Y-113908571D01*
X135811427Y-113980000D01*
X134954284Y-114908571D02*
X135097142Y-114837143D01*
X135168570Y-114765714D01*
X135239999Y-114622857D01*
X135239999Y-114194286D01*
X135168570Y-114051429D01*
X135097142Y-113980000D01*
X134954284Y-113908571D01*
X134739999Y-113908571D01*
X134597142Y-113980000D01*
X134525713Y-114051429D01*
X134454284Y-114194286D01*
X134454284Y-114622857D01*
X134525713Y-114765714D01*
X134597142Y-114837143D01*
X134739999Y-114908571D01*
X134954284Y-114908571D01*
X133811427Y-114908571D02*
X133811427Y-113908571D01*
X133811427Y-114194286D02*
X133739999Y-114051429D01*
X133668570Y-113980000D01*
X133525713Y-113908571D01*
X133382856Y-113908571D01*
X132311428Y-114837143D02*
X132454285Y-114908571D01*
X132739999Y-114908571D01*
X132882856Y-114837143D01*
X132954285Y-114694286D01*
X132954285Y-114122857D01*
X132882856Y-113980000D01*
X132739999Y-113908571D01*
X132454285Y-113908571D01*
X132311428Y-113980000D01*
X132239999Y-114122857D01*
X132239999Y-114265714D01*
X132954285Y-114408571D01*
X130954285Y-114908571D02*
X130954285Y-113408571D01*
X130954285Y-114837143D02*
X131097142Y-114908571D01*
X131382856Y-114908571D01*
X131525714Y-114837143D01*
X131597142Y-114765714D01*
X131668571Y-114622857D01*
X131668571Y-114194286D01*
X131597142Y-114051429D01*
X131525714Y-113980000D01*
X131382856Y-113908571D01*
X131097142Y-113908571D01*
X130954285Y-113980000D01*
X129597142Y-113908571D02*
X129597142Y-114908571D01*
X130239999Y-113908571D02*
X130239999Y-114694286D01*
X130168571Y-114837143D01*
X130025713Y-114908571D01*
X129811428Y-114908571D01*
X129668571Y-114837143D01*
X129597142Y-114765714D01*
X128882856Y-114908571D02*
X128882856Y-113908571D01*
X128882856Y-114051429D02*
X128811428Y-113980000D01*
X128668570Y-113908571D01*
X128454285Y-113908571D01*
X128311428Y-113980000D01*
X128239999Y-114122857D01*
X128239999Y-114908571D01*
X128239999Y-114122857D02*
X128168570Y-113980000D01*
X128025713Y-113908571D01*
X127811428Y-113908571D01*
X127668570Y-113980000D01*
X127597142Y-114122857D01*
X127597142Y-114908571D01*
X126882856Y-113908571D02*
X126882856Y-115408571D01*
X126882856Y-113980000D02*
X126739999Y-113908571D01*
X126454285Y-113908571D01*
X126311428Y-113980000D01*
X126239999Y-114051429D01*
X126168570Y-114194286D01*
X126168570Y-114622857D01*
X126239999Y-114765714D01*
X126311428Y-114837143D01*
X126454285Y-114908571D01*
X126739999Y-114908571D01*
X126882856Y-114837143D01*
X125525713Y-114765714D02*
X125454285Y-114837143D01*
X125525713Y-114908571D01*
X125597142Y-114837143D01*
X125525713Y-114765714D01*
X125525713Y-114908571D01*
X124168570Y-114837143D02*
X124311427Y-114908571D01*
X124597141Y-114908571D01*
X124739999Y-114837143D01*
X124811427Y-114765714D01*
X124882856Y-114622857D01*
X124882856Y-114194286D01*
X124811427Y-114051429D01*
X124739999Y-113980000D01*
X124597141Y-113908571D01*
X124311427Y-113908571D01*
X124168570Y-113980000D01*
X123525713Y-114908571D02*
X123525713Y-113408571D01*
X122882856Y-114908571D02*
X122882856Y-114122857D01*
X122954285Y-113980000D01*
X123097142Y-113908571D01*
X123311427Y-113908571D01*
X123454285Y-113980000D01*
X123525713Y-114051429D01*
D12*
X121190000Y-78852000D03*
X121190000Y-81392000D03*
X121190000Y-83932000D03*
X121190000Y-86472000D03*
X121190000Y-89012000D03*
X121190000Y-91552000D03*
X121190000Y-94092000D03*
X121190000Y-96632000D03*
X121190000Y-99172000D03*
X121190000Y-101712000D03*
X121190000Y-104252000D03*
X121190000Y-106792000D03*
X138970000Y-78852000D03*
X138970000Y-81392000D03*
X138970000Y-83932000D03*
X138970000Y-86472000D03*
X138970000Y-89012000D03*
X138970000Y-91552000D03*
X138970000Y-94092000D03*
X138970000Y-96632000D03*
X138970000Y-99172000D03*
X138970000Y-101712000D03*
X138970000Y-104252000D03*
X138970000Y-106792000D03*
D13*
X114300000Y-105664000D03*
D14*
X114300000Y-103124000D03*
X114300000Y-100584000D03*
D15*
X114300000Y-73526000D03*
X114300000Y-88526000D03*
M02*
