G04 #@! TF.FileFunction,Copper,L1,Top,Signal*
%FSLAX46Y46*%
G04 Gerber Fmt 4.6, Leading zero omitted, Abs format (unit mm)*
G04 Created by KiCad (PCBNEW (2015-11-24 BZR 6329, Git e511afd)-product) date Die 01 Dez 2015 10:43:08 CET*
%MOMM*%
G01*
G04 APERTURE LIST*
%ADD10C,0.150000*%
%ADD11C,1.900000*%
%ADD12R,1.524000X1.524000*%
%ADD13C,1.524000*%
%ADD14C,2.400000*%
%ADD15C,1.998980*%
%ADD16C,0.508000*%
%ADD17C,0.254000*%
G04 APERTURE END LIST*
D10*
D11*
X121190000Y-78852000D03*
X121190000Y-81392000D03*
X121190000Y-83932000D03*
X121190000Y-86472000D03*
X121190000Y-89012000D03*
X121190000Y-91552000D03*
X121190000Y-94092000D03*
X121190000Y-96632000D03*
X121190000Y-99172000D03*
X121190000Y-101712000D03*
X121190000Y-104252000D03*
X121190000Y-106792000D03*
X138970000Y-78852000D03*
X138970000Y-81392000D03*
X138970000Y-83932000D03*
X138970000Y-86472000D03*
X138970000Y-89012000D03*
X138970000Y-91552000D03*
X138970000Y-94092000D03*
X138970000Y-96632000D03*
X138970000Y-99172000D03*
X138970000Y-101712000D03*
X138970000Y-104252000D03*
X138970000Y-106792000D03*
D12*
X114300000Y-105664000D03*
D13*
X114300000Y-103124000D03*
X114300000Y-100584000D03*
D14*
X113030000Y-116078000D03*
X141986000Y-72136000D03*
D15*
X114300000Y-73526000D03*
X114300000Y-88526000D03*
D16*
X114300000Y-100584000D02*
X114300000Y-91948000D01*
X111760000Y-76066000D02*
X114300000Y-73526000D01*
X111760000Y-89408000D02*
X111760000Y-76066000D01*
X114300000Y-91948000D02*
X111760000Y-89408000D01*
X135240000Y-78852000D02*
X129914000Y-73526000D01*
X129914000Y-73526000D02*
X114300000Y-73526000D01*
X138970000Y-78852000D02*
X135240000Y-78852000D01*
X138970000Y-106792000D02*
X141590000Y-106792000D01*
X117348000Y-104648000D02*
X117348000Y-106680000D01*
X117348000Y-106680000D02*
X117348000Y-115824000D01*
X117348000Y-115824000D02*
X118872000Y-117348000D01*
X118872000Y-117348000D02*
X141224000Y-117348000D01*
X141224000Y-117348000D02*
X142748000Y-115824000D01*
X142748000Y-115824000D02*
X142748000Y-112014000D01*
X117348000Y-104648000D02*
X115824000Y-103124000D01*
X142748000Y-107950000D02*
X142748000Y-112014000D01*
X141590000Y-106792000D02*
X142748000Y-107950000D01*
X115824000Y-103124000D02*
X117348000Y-101600000D01*
X117348000Y-92082000D02*
X114300000Y-88526000D01*
X117348000Y-101600000D02*
X117348000Y-92082000D01*
X115824000Y-103124000D02*
X114300000Y-103124000D01*
D17*
X139130000Y-104092000D02*
X138970000Y-104252000D01*
G36*
X144522000Y-118534000D02*
X110638000Y-118534000D01*
X110638000Y-116221613D01*
X111319755Y-116221613D01*
X111380221Y-116551066D01*
X111503527Y-116862501D01*
X111684975Y-117144054D01*
X111917655Y-117385001D01*
X112192704Y-117576165D01*
X112499645Y-117710264D01*
X112826788Y-117782191D01*
X113161670Y-117789206D01*
X113491537Y-117731041D01*
X113803825Y-117609913D01*
X114086638Y-117430434D01*
X114329203Y-117199442D01*
X114522283Y-116925735D01*
X114658522Y-116619737D01*
X114732731Y-116293105D01*
X114738073Y-115910522D01*
X114673013Y-115581945D01*
X114545371Y-115272263D01*
X114360009Y-114993271D01*
X114123988Y-114755596D01*
X113846297Y-114568291D01*
X113537513Y-114438490D01*
X113209398Y-114371138D01*
X112874451Y-114368799D01*
X112545428Y-114431564D01*
X112234862Y-114557041D01*
X111954582Y-114740450D01*
X111715265Y-114974807D01*
X111526026Y-115251184D01*
X111394073Y-115559053D01*
X111324432Y-115886690D01*
X111319755Y-116221613D01*
X110638000Y-116221613D01*
X110638000Y-105854500D01*
X113030000Y-105854500D01*
X113030000Y-106476034D01*
X113049522Y-106574178D01*
X113087816Y-106666629D01*
X113143411Y-106749831D01*
X113214169Y-106820590D01*
X113297372Y-106876184D01*
X113389822Y-106914478D01*
X113487967Y-106934000D01*
X114109500Y-106934000D01*
X114236500Y-106807000D01*
X114236500Y-105727500D01*
X114363500Y-105727500D01*
X114363500Y-106807000D01*
X114490500Y-106934000D01*
X115112033Y-106934000D01*
X115210178Y-106914478D01*
X115302628Y-106876184D01*
X115385831Y-106820590D01*
X115456589Y-106749831D01*
X115512184Y-106666629D01*
X115550478Y-106574178D01*
X115570000Y-106476034D01*
X115570000Y-105854500D01*
X115443000Y-105727500D01*
X114363500Y-105727500D01*
X114236500Y-105727500D01*
X113157000Y-105727500D01*
X113030000Y-105854500D01*
X110638000Y-105854500D01*
X110638000Y-76066000D01*
X110998000Y-76066000D01*
X110998000Y-89408000D01*
X111004875Y-89478114D01*
X111011004Y-89548170D01*
X111012120Y-89552013D01*
X111012512Y-89556007D01*
X111032877Y-89623460D01*
X111052494Y-89690982D01*
X111054337Y-89694538D01*
X111055496Y-89698376D01*
X111088556Y-89760553D01*
X111120933Y-89823014D01*
X111123432Y-89826144D01*
X111125314Y-89829684D01*
X111169801Y-89884231D01*
X111213714Y-89939240D01*
X111219212Y-89944815D01*
X111219307Y-89944931D01*
X111219415Y-89945020D01*
X111221185Y-89946815D01*
X113538000Y-92263631D01*
X113538000Y-99564823D01*
X113500363Y-99589452D01*
X113322416Y-99763710D01*
X113181706Y-99969212D01*
X113083590Y-100198132D01*
X113031808Y-100441749D01*
X113028331Y-100690785D01*
X113073291Y-100935753D01*
X113164976Y-101167323D01*
X113299894Y-101376675D01*
X113472905Y-101555833D01*
X113677420Y-101697975D01*
X113905650Y-101797686D01*
X114148899Y-101851168D01*
X114270027Y-101853705D01*
X114184340Y-101853107D01*
X113939691Y-101899776D01*
X113708767Y-101993076D01*
X113500363Y-102129452D01*
X113322416Y-102303710D01*
X113181706Y-102509212D01*
X113083590Y-102738132D01*
X113031808Y-102981749D01*
X113028331Y-103230785D01*
X113073291Y-103475753D01*
X113164976Y-103707323D01*
X113299894Y-103916675D01*
X113472905Y-104095833D01*
X113677420Y-104237975D01*
X113905650Y-104337686D01*
X114148899Y-104391168D01*
X114284096Y-104394000D01*
X114236498Y-104394000D01*
X114236498Y-104520998D01*
X114109500Y-104394000D01*
X113487967Y-104394000D01*
X113389822Y-104413522D01*
X113297372Y-104451816D01*
X113214169Y-104507410D01*
X113143411Y-104578169D01*
X113087816Y-104661371D01*
X113049522Y-104753822D01*
X113030000Y-104851966D01*
X113030000Y-105473500D01*
X113157000Y-105600500D01*
X114236500Y-105600500D01*
X114236500Y-105580500D01*
X114363500Y-105580500D01*
X114363500Y-105600500D01*
X115443000Y-105600500D01*
X115570000Y-105473500D01*
X115570000Y-104851966D01*
X115550478Y-104753822D01*
X115512184Y-104661371D01*
X115456589Y-104578169D01*
X115385831Y-104507410D01*
X115302628Y-104451816D01*
X115210178Y-104413522D01*
X115112033Y-104394000D01*
X114490500Y-104394000D01*
X114363502Y-104520998D01*
X114363502Y-104395663D01*
X114397905Y-104396384D01*
X114643181Y-104353135D01*
X114875385Y-104263069D01*
X115085673Y-104129616D01*
X115266035Y-103957859D01*
X115316726Y-103886000D01*
X115508370Y-103886000D01*
X116586000Y-104963631D01*
X116586000Y-115824000D01*
X116592875Y-115894114D01*
X116599004Y-115964170D01*
X116600120Y-115968013D01*
X116600512Y-115972007D01*
X116620877Y-116039460D01*
X116640494Y-116106982D01*
X116642337Y-116110538D01*
X116643496Y-116114376D01*
X116676556Y-116176553D01*
X116708933Y-116239014D01*
X116711432Y-116242144D01*
X116713314Y-116245684D01*
X116757801Y-116300231D01*
X116801714Y-116355240D01*
X116807212Y-116360815D01*
X116807307Y-116360931D01*
X116807415Y-116361020D01*
X116809185Y-116362815D01*
X118333184Y-117886815D01*
X118387597Y-117931510D01*
X118441495Y-117976736D01*
X118445006Y-117978666D01*
X118448103Y-117981210D01*
X118510130Y-118014469D01*
X118571816Y-118048381D01*
X118575636Y-118049593D01*
X118579167Y-118051486D01*
X118646464Y-118072061D01*
X118713571Y-118093348D01*
X118717554Y-118093795D01*
X118721385Y-118094966D01*
X118791373Y-118102075D01*
X118861361Y-118109926D01*
X118869197Y-118109981D01*
X118869340Y-118109995D01*
X118869473Y-118109982D01*
X118872000Y-118110000D01*
X141224000Y-118110000D01*
X141294114Y-118103125D01*
X141364170Y-118096996D01*
X141368013Y-118095880D01*
X141372007Y-118095488D01*
X141439460Y-118075123D01*
X141506982Y-118055506D01*
X141510538Y-118053663D01*
X141514376Y-118052504D01*
X141576553Y-118019444D01*
X141639014Y-117987067D01*
X141642144Y-117984568D01*
X141645684Y-117982686D01*
X141700231Y-117938199D01*
X141755240Y-117894286D01*
X141760815Y-117888788D01*
X141760931Y-117888693D01*
X141761020Y-117888585D01*
X141762815Y-117886815D01*
X143286815Y-116362816D01*
X143331510Y-116308403D01*
X143376736Y-116254505D01*
X143378666Y-116250994D01*
X143381210Y-116247897D01*
X143414469Y-116185870D01*
X143448381Y-116124184D01*
X143449593Y-116120364D01*
X143451486Y-116116833D01*
X143472061Y-116049536D01*
X143493348Y-115982429D01*
X143493795Y-115978446D01*
X143494966Y-115974615D01*
X143502075Y-115904627D01*
X143509926Y-115834639D01*
X143509981Y-115826803D01*
X143509995Y-115826660D01*
X143509982Y-115826527D01*
X143510000Y-115824000D01*
X143510000Y-107950000D01*
X143503126Y-107879895D01*
X143496996Y-107809829D01*
X143495880Y-107805986D01*
X143495488Y-107801993D01*
X143475126Y-107734552D01*
X143455506Y-107667018D01*
X143453663Y-107663462D01*
X143452504Y-107659624D01*
X143419455Y-107597467D01*
X143387067Y-107534985D01*
X143384566Y-107531853D01*
X143382686Y-107528316D01*
X143338217Y-107473791D01*
X143294286Y-107418760D01*
X143288784Y-107413181D01*
X143288693Y-107413069D01*
X143288589Y-107412983D01*
X143286815Y-107411184D01*
X142128815Y-106253185D01*
X142074401Y-106208488D01*
X142020505Y-106163264D01*
X142016997Y-106161336D01*
X142013897Y-106158789D01*
X141951831Y-106125510D01*
X141890184Y-106091619D01*
X141886364Y-106090407D01*
X141882833Y-106088514D01*
X141815536Y-106067939D01*
X141748429Y-106046652D01*
X141744446Y-106046205D01*
X141740615Y-106045034D01*
X141670627Y-106037925D01*
X141600639Y-106030074D01*
X141592803Y-106030019D01*
X141592660Y-106030005D01*
X141592527Y-106030018D01*
X141590000Y-106030000D01*
X140214270Y-106030000D01*
X140105336Y-105866042D01*
X139903861Y-105663156D01*
X139692339Y-105520481D01*
X139871978Y-105406479D01*
X140079039Y-105209297D01*
X140243858Y-104975652D01*
X140360156Y-104714443D01*
X140423503Y-104435620D01*
X140428063Y-104109036D01*
X140372526Y-103828553D01*
X140263567Y-103564198D01*
X140105336Y-103326042D01*
X139903861Y-103123156D01*
X139692339Y-102980481D01*
X139871978Y-102866479D01*
X140079039Y-102669297D01*
X140243858Y-102435652D01*
X140360156Y-102174443D01*
X140423503Y-101895620D01*
X140428063Y-101569036D01*
X140372526Y-101288553D01*
X140263567Y-101024198D01*
X140105336Y-100786042D01*
X139903861Y-100583156D01*
X139692339Y-100440481D01*
X139871978Y-100326479D01*
X140079039Y-100129297D01*
X140243858Y-99895652D01*
X140360156Y-99634443D01*
X140423503Y-99355620D01*
X140428063Y-99029036D01*
X140372526Y-98748553D01*
X140263567Y-98484198D01*
X140105336Y-98246042D01*
X139903861Y-98043156D01*
X139692339Y-97900481D01*
X139871978Y-97786479D01*
X140079039Y-97589297D01*
X140243858Y-97355652D01*
X140360156Y-97094443D01*
X140423503Y-96815620D01*
X140428063Y-96489036D01*
X140372526Y-96208553D01*
X140263567Y-95944198D01*
X140105336Y-95706042D01*
X139903861Y-95503156D01*
X139692339Y-95360481D01*
X139871978Y-95246479D01*
X140079039Y-95049297D01*
X140243858Y-94815652D01*
X140360156Y-94554443D01*
X140423503Y-94275620D01*
X140428063Y-93949036D01*
X140372526Y-93668553D01*
X140263567Y-93404198D01*
X140105336Y-93166042D01*
X139903861Y-92963156D01*
X139692339Y-92820481D01*
X139871978Y-92706479D01*
X140079039Y-92509297D01*
X140243858Y-92275652D01*
X140360156Y-92014443D01*
X140423503Y-91735620D01*
X140428063Y-91409036D01*
X140372526Y-91128553D01*
X140263567Y-90864198D01*
X140105336Y-90626042D01*
X139903861Y-90423156D01*
X139692339Y-90280481D01*
X139871978Y-90166479D01*
X140079039Y-89969297D01*
X140243858Y-89735652D01*
X140360156Y-89474443D01*
X140423503Y-89195620D01*
X140428063Y-88869036D01*
X140372526Y-88588553D01*
X140263567Y-88324198D01*
X140105336Y-88086042D01*
X139903861Y-87883156D01*
X139691744Y-87740080D01*
X139778956Y-87693465D01*
X139870180Y-87461983D01*
X138970000Y-86561803D01*
X138069820Y-87461983D01*
X138161044Y-87693465D01*
X138250091Y-87740594D01*
X138051991Y-87870227D01*
X137847703Y-88070281D01*
X137686163Y-88306204D01*
X137573523Y-88569011D01*
X137514075Y-88848692D01*
X137510083Y-89134593D01*
X137561699Y-89415824D01*
X137666956Y-89681674D01*
X137821846Y-89922016D01*
X138020469Y-90127696D01*
X138245131Y-90283840D01*
X138051991Y-90410227D01*
X137847703Y-90610281D01*
X137686163Y-90846204D01*
X137573523Y-91109011D01*
X137514075Y-91388692D01*
X137510083Y-91674593D01*
X137561699Y-91955824D01*
X137666956Y-92221674D01*
X137821846Y-92462016D01*
X138020469Y-92667696D01*
X138245131Y-92823840D01*
X138051991Y-92950227D01*
X137847703Y-93150281D01*
X137686163Y-93386204D01*
X137573523Y-93649011D01*
X137514075Y-93928692D01*
X137510083Y-94214593D01*
X137561699Y-94495824D01*
X137666956Y-94761674D01*
X137821846Y-95002016D01*
X138020469Y-95207696D01*
X138245131Y-95363840D01*
X138051991Y-95490227D01*
X137847703Y-95690281D01*
X137686163Y-95926204D01*
X137573523Y-96189011D01*
X137514075Y-96468692D01*
X137510083Y-96754593D01*
X137561699Y-97035824D01*
X137666956Y-97301674D01*
X137821846Y-97542016D01*
X138020469Y-97747696D01*
X138245131Y-97903840D01*
X138051991Y-98030227D01*
X137847703Y-98230281D01*
X137686163Y-98466204D01*
X137573523Y-98729011D01*
X137514075Y-99008692D01*
X137510083Y-99294593D01*
X137561699Y-99575824D01*
X137666956Y-99841674D01*
X137821846Y-100082016D01*
X138020469Y-100287696D01*
X138245131Y-100443840D01*
X138051991Y-100570227D01*
X137847703Y-100770281D01*
X137686163Y-101006204D01*
X137573523Y-101269011D01*
X137514075Y-101548692D01*
X137510083Y-101834593D01*
X137561699Y-102115824D01*
X137666956Y-102381674D01*
X137821846Y-102622016D01*
X138020469Y-102827696D01*
X138245131Y-102983840D01*
X138051991Y-103110227D01*
X137847703Y-103310281D01*
X137686163Y-103546204D01*
X137573523Y-103809011D01*
X137514075Y-104088692D01*
X137510083Y-104374593D01*
X137561699Y-104655824D01*
X137666956Y-104921674D01*
X137821846Y-105162016D01*
X138020469Y-105367696D01*
X138245131Y-105523840D01*
X138051991Y-105650227D01*
X137847703Y-105850281D01*
X137686163Y-106086204D01*
X137573523Y-106349011D01*
X137514075Y-106628692D01*
X137510083Y-106914593D01*
X137561699Y-107195824D01*
X137666956Y-107461674D01*
X137821846Y-107702016D01*
X138020469Y-107907696D01*
X138255259Y-108070879D01*
X138517273Y-108185350D01*
X138796532Y-108246749D01*
X139082398Y-108252737D01*
X139363982Y-108203086D01*
X139630560Y-108099687D01*
X139871978Y-107946479D01*
X140079039Y-107749297D01*
X140216806Y-107554000D01*
X141274370Y-107554000D01*
X141986000Y-108265631D01*
X141986000Y-115508369D01*
X140908370Y-116586000D01*
X119187631Y-116586000D01*
X118110000Y-115508370D01*
X118110000Y-104648000D01*
X118103122Y-104577850D01*
X118096996Y-104507829D01*
X118095880Y-104503986D01*
X118095488Y-104499993D01*
X118075126Y-104432552D01*
X118055506Y-104365018D01*
X118053663Y-104361462D01*
X118052504Y-104357624D01*
X118019455Y-104295467D01*
X117987067Y-104232985D01*
X117984566Y-104229853D01*
X117982686Y-104226316D01*
X117938217Y-104171791D01*
X117894286Y-104116760D01*
X117888784Y-104111181D01*
X117888693Y-104111069D01*
X117888589Y-104110983D01*
X117886815Y-104109184D01*
X116901630Y-103124000D01*
X117886815Y-102138816D01*
X117931510Y-102084403D01*
X117976736Y-102030505D01*
X117978666Y-102026994D01*
X117981210Y-102023897D01*
X118014469Y-101961870D01*
X118048381Y-101900184D01*
X118049593Y-101896364D01*
X118051486Y-101892833D01*
X118072061Y-101825536D01*
X118093348Y-101758429D01*
X118093795Y-101754446D01*
X118094966Y-101750615D01*
X118102075Y-101680627D01*
X118109926Y-101610639D01*
X118109981Y-101602803D01*
X118109995Y-101602660D01*
X118109982Y-101602527D01*
X118110000Y-101600000D01*
X118110000Y-92082000D01*
X118105974Y-92040939D01*
X118105541Y-91999688D01*
X118098736Y-91967117D01*
X118095488Y-91933993D01*
X118083563Y-91894494D01*
X118075126Y-91854115D01*
X118062123Y-91823485D01*
X118052504Y-91791624D01*
X118033134Y-91755194D01*
X118017015Y-91717223D01*
X117998310Y-91689701D01*
X117982686Y-91660316D01*
X117956612Y-91628345D01*
X117933421Y-91594223D01*
X117926554Y-91586097D01*
X115729174Y-89022487D01*
X115737342Y-89004140D01*
X115802839Y-88715853D01*
X115807555Y-88378183D01*
X115750132Y-88088179D01*
X115637475Y-87814852D01*
X115473874Y-87568612D01*
X115265560Y-87358839D01*
X115020468Y-87193522D01*
X114747934Y-87078960D01*
X114458338Y-87019514D01*
X114162711Y-87017450D01*
X113872314Y-87072847D01*
X113598207Y-87183593D01*
X113350831Y-87345471D01*
X113139608Y-87552316D01*
X112972585Y-87796247D01*
X112856122Y-88067975D01*
X112794656Y-88357149D01*
X112790529Y-88652754D01*
X112843896Y-88943531D01*
X112952726Y-89218405D01*
X113112874Y-89466905D01*
X113318238Y-89679566D01*
X113560998Y-89848288D01*
X113831906Y-89966645D01*
X114120644Y-90030128D01*
X114416213Y-90036320D01*
X114568005Y-90009555D01*
X116586000Y-92363882D01*
X116586000Y-101284369D01*
X115508370Y-102362000D01*
X115318548Y-102362000D01*
X115288942Y-102317439D01*
X115113445Y-102140713D01*
X114906965Y-102001441D01*
X114677366Y-101904926D01*
X114433393Y-101854846D01*
X114407647Y-101854666D01*
X114643181Y-101813135D01*
X114875385Y-101723069D01*
X115085673Y-101589616D01*
X115266035Y-101417859D01*
X115409602Y-101214341D01*
X115510903Y-100986814D01*
X115566082Y-100743943D01*
X115570054Y-100459470D01*
X115521678Y-100215154D01*
X115426769Y-99984886D01*
X115288942Y-99777439D01*
X115113445Y-99600713D01*
X115062000Y-99566013D01*
X115062000Y-91948000D01*
X115055122Y-91877850D01*
X115048996Y-91807829D01*
X115047880Y-91803986D01*
X115047488Y-91799993D01*
X115027126Y-91732552D01*
X115007506Y-91665018D01*
X115005663Y-91661462D01*
X115004504Y-91657624D01*
X114971455Y-91595467D01*
X114939067Y-91532985D01*
X114936566Y-91529853D01*
X114934686Y-91526316D01*
X114890217Y-91471791D01*
X114846286Y-91416760D01*
X114840784Y-91411181D01*
X114840693Y-91411069D01*
X114840589Y-91410983D01*
X114838815Y-91409184D01*
X112522000Y-89092370D01*
X112522000Y-84054593D01*
X119730083Y-84054593D01*
X119781699Y-84335824D01*
X119886956Y-84601674D01*
X120041846Y-84842016D01*
X120240469Y-85047696D01*
X120465131Y-85203840D01*
X120271991Y-85330227D01*
X120067703Y-85530281D01*
X119906163Y-85766204D01*
X119793523Y-86029011D01*
X119734075Y-86308692D01*
X119730083Y-86594593D01*
X119781699Y-86875824D01*
X119886956Y-87141674D01*
X120041846Y-87382016D01*
X120240469Y-87587696D01*
X120465131Y-87743840D01*
X120271991Y-87870227D01*
X120067703Y-88070281D01*
X119906163Y-88306204D01*
X119793523Y-88569011D01*
X119734075Y-88848692D01*
X119730083Y-89134593D01*
X119781699Y-89415824D01*
X119886956Y-89681674D01*
X120041846Y-89922016D01*
X120240469Y-90127696D01*
X120465131Y-90283840D01*
X120271991Y-90410227D01*
X120067703Y-90610281D01*
X119906163Y-90846204D01*
X119793523Y-91109011D01*
X119734075Y-91388692D01*
X119730083Y-91674593D01*
X119781699Y-91955824D01*
X119886956Y-92221674D01*
X120041846Y-92462016D01*
X120240469Y-92667696D01*
X120465131Y-92823840D01*
X120271991Y-92950227D01*
X120067703Y-93150281D01*
X119906163Y-93386204D01*
X119793523Y-93649011D01*
X119734075Y-93928692D01*
X119730083Y-94214593D01*
X119781699Y-94495824D01*
X119886956Y-94761674D01*
X120041846Y-95002016D01*
X120240469Y-95207696D01*
X120465131Y-95363840D01*
X120271991Y-95490227D01*
X120067703Y-95690281D01*
X119906163Y-95926204D01*
X119793523Y-96189011D01*
X119734075Y-96468692D01*
X119730083Y-96754593D01*
X119781699Y-97035824D01*
X119886956Y-97301674D01*
X120041846Y-97542016D01*
X120240469Y-97747696D01*
X120465131Y-97903840D01*
X120271991Y-98030227D01*
X120067703Y-98230281D01*
X119906163Y-98466204D01*
X119793523Y-98729011D01*
X119734075Y-99008692D01*
X119730083Y-99294593D01*
X119781699Y-99575824D01*
X119886956Y-99841674D01*
X120041846Y-100082016D01*
X120240469Y-100287696D01*
X120465131Y-100443840D01*
X120271991Y-100570227D01*
X120067703Y-100770281D01*
X119906163Y-101006204D01*
X119793523Y-101269011D01*
X119734075Y-101548692D01*
X119730083Y-101834593D01*
X119781699Y-102115824D01*
X119886956Y-102381674D01*
X120041846Y-102622016D01*
X120240469Y-102827696D01*
X120465131Y-102983840D01*
X120271991Y-103110227D01*
X120067703Y-103310281D01*
X119906163Y-103546204D01*
X119793523Y-103809011D01*
X119734075Y-104088692D01*
X119730083Y-104374593D01*
X119781699Y-104655824D01*
X119886956Y-104921674D01*
X120041846Y-105162016D01*
X120240469Y-105367696D01*
X120465131Y-105523840D01*
X120271991Y-105650227D01*
X120067703Y-105850281D01*
X119906163Y-106086204D01*
X119793523Y-106349011D01*
X119734075Y-106628692D01*
X119730083Y-106914593D01*
X119781699Y-107195824D01*
X119886956Y-107461674D01*
X120041846Y-107702016D01*
X120240469Y-107907696D01*
X120475259Y-108070879D01*
X120737273Y-108185350D01*
X121016532Y-108246749D01*
X121302398Y-108252737D01*
X121583982Y-108203086D01*
X121850560Y-108099687D01*
X122091978Y-107946479D01*
X122299039Y-107749297D01*
X122463858Y-107515652D01*
X122580156Y-107254443D01*
X122643503Y-106975620D01*
X122648063Y-106649036D01*
X122592526Y-106368553D01*
X122483567Y-106104198D01*
X122325336Y-105866042D01*
X122123861Y-105663156D01*
X121912339Y-105520481D01*
X122091978Y-105406479D01*
X122299039Y-105209297D01*
X122463858Y-104975652D01*
X122580156Y-104714443D01*
X122643503Y-104435620D01*
X122648063Y-104109036D01*
X122592526Y-103828553D01*
X122483567Y-103564198D01*
X122325336Y-103326042D01*
X122123861Y-103123156D01*
X121912339Y-102980481D01*
X122091978Y-102866479D01*
X122299039Y-102669297D01*
X122463858Y-102435652D01*
X122580156Y-102174443D01*
X122643503Y-101895620D01*
X122648063Y-101569036D01*
X122592526Y-101288553D01*
X122483567Y-101024198D01*
X122325336Y-100786042D01*
X122123861Y-100583156D01*
X121912339Y-100440481D01*
X122091978Y-100326479D01*
X122299039Y-100129297D01*
X122463858Y-99895652D01*
X122580156Y-99634443D01*
X122643503Y-99355620D01*
X122648063Y-99029036D01*
X122592526Y-98748553D01*
X122483567Y-98484198D01*
X122325336Y-98246042D01*
X122123861Y-98043156D01*
X121912339Y-97900481D01*
X122091978Y-97786479D01*
X122299039Y-97589297D01*
X122463858Y-97355652D01*
X122580156Y-97094443D01*
X122643503Y-96815620D01*
X122648063Y-96489036D01*
X122592526Y-96208553D01*
X122483567Y-95944198D01*
X122325336Y-95706042D01*
X122123861Y-95503156D01*
X121912339Y-95360481D01*
X122091978Y-95246479D01*
X122299039Y-95049297D01*
X122463858Y-94815652D01*
X122580156Y-94554443D01*
X122643503Y-94275620D01*
X122648063Y-93949036D01*
X122592526Y-93668553D01*
X122483567Y-93404198D01*
X122325336Y-93166042D01*
X122123861Y-92963156D01*
X121912339Y-92820481D01*
X122091978Y-92706479D01*
X122299039Y-92509297D01*
X122463858Y-92275652D01*
X122580156Y-92014443D01*
X122643503Y-91735620D01*
X122648063Y-91409036D01*
X122592526Y-91128553D01*
X122483567Y-90864198D01*
X122325336Y-90626042D01*
X122123861Y-90423156D01*
X121912339Y-90280481D01*
X122091978Y-90166479D01*
X122299039Y-89969297D01*
X122463858Y-89735652D01*
X122580156Y-89474443D01*
X122643503Y-89195620D01*
X122648063Y-88869036D01*
X122592526Y-88588553D01*
X122483567Y-88324198D01*
X122325336Y-88086042D01*
X122123861Y-87883156D01*
X121912339Y-87740481D01*
X122091978Y-87626479D01*
X122299039Y-87429297D01*
X122463858Y-87195652D01*
X122580156Y-86934443D01*
X122643503Y-86655620D01*
X122645983Y-86477988D01*
X137504958Y-86477988D01*
X137534277Y-86763688D01*
X137618770Y-87038179D01*
X137748535Y-87280956D01*
X137980017Y-87372180D01*
X138880197Y-86472000D01*
X139059803Y-86472000D01*
X139959983Y-87372180D01*
X140191465Y-87280956D01*
X140325814Y-87027116D01*
X140408059Y-86751943D01*
X140435042Y-86466012D01*
X140405723Y-86180312D01*
X140321230Y-85905821D01*
X140191465Y-85663044D01*
X139959983Y-85571820D01*
X139059803Y-86472000D01*
X138880197Y-86472000D01*
X137980017Y-85571820D01*
X137748535Y-85663044D01*
X137614186Y-85916884D01*
X137531941Y-86192057D01*
X137504958Y-86477988D01*
X122645983Y-86477988D01*
X122648063Y-86329036D01*
X122592526Y-86048553D01*
X122483567Y-85784198D01*
X122325336Y-85546042D01*
X122123861Y-85343156D01*
X121912339Y-85200481D01*
X122091978Y-85086479D01*
X122299039Y-84889297D01*
X122463858Y-84655652D01*
X122580156Y-84394443D01*
X122643503Y-84115620D01*
X122648063Y-83789036D01*
X122592526Y-83508553D01*
X122483567Y-83244198D01*
X122325336Y-83006042D01*
X122123861Y-82803156D01*
X121911744Y-82660080D01*
X121998956Y-82613465D01*
X122090180Y-82381983D01*
X121190000Y-81481803D01*
X120289820Y-82381983D01*
X120381044Y-82613465D01*
X120470091Y-82660594D01*
X120271991Y-82790227D01*
X120067703Y-82990281D01*
X119906163Y-83226204D01*
X119793523Y-83489011D01*
X119734075Y-83768692D01*
X119730083Y-84054593D01*
X112522000Y-84054593D01*
X112522000Y-81397988D01*
X119724958Y-81397988D01*
X119754277Y-81683688D01*
X119838770Y-81958179D01*
X119968535Y-82200956D01*
X120200017Y-82292180D01*
X121100197Y-81392000D01*
X121279803Y-81392000D01*
X122179983Y-82292180D01*
X122411465Y-82200956D01*
X122545814Y-81947116D01*
X122628059Y-81671943D01*
X122655042Y-81386012D01*
X122625723Y-81100312D01*
X122541230Y-80825821D01*
X122411465Y-80583044D01*
X122179983Y-80491820D01*
X121279803Y-81392000D01*
X121100197Y-81392000D01*
X120200017Y-80491820D01*
X119968535Y-80583044D01*
X119834186Y-80836884D01*
X119751941Y-81112057D01*
X119724958Y-81397988D01*
X112522000Y-81397988D01*
X112522000Y-78974593D01*
X119730083Y-78974593D01*
X119781699Y-79255824D01*
X119886956Y-79521674D01*
X120041846Y-79762016D01*
X120240469Y-79967696D01*
X120466555Y-80124829D01*
X120381044Y-80170535D01*
X120289820Y-80402017D01*
X121190000Y-81302197D01*
X122090180Y-80402017D01*
X121998956Y-80170535D01*
X121908721Y-80122777D01*
X122091978Y-80006479D01*
X122299039Y-79809297D01*
X122463858Y-79575652D01*
X122580156Y-79314443D01*
X122643503Y-79035620D01*
X122648063Y-78709036D01*
X122592526Y-78428553D01*
X122483567Y-78164198D01*
X122325336Y-77926042D01*
X122123861Y-77723156D01*
X121886816Y-77563266D01*
X121623229Y-77452465D01*
X121343140Y-77394971D01*
X121057218Y-77392975D01*
X120776354Y-77446552D01*
X120511246Y-77553663D01*
X120271991Y-77710227D01*
X120067703Y-77910281D01*
X119906163Y-78146204D01*
X119793523Y-78409011D01*
X119734075Y-78688692D01*
X119730083Y-78974593D01*
X112522000Y-78974593D01*
X112522000Y-76381630D01*
X113918046Y-74985584D01*
X114120644Y-75030128D01*
X114416213Y-75036320D01*
X114707355Y-74984983D01*
X114982982Y-74878075D01*
X115232594Y-74719666D01*
X115446684Y-74515791D01*
X115607373Y-74288000D01*
X129598370Y-74288000D01*
X134701184Y-79390815D01*
X134755597Y-79435510D01*
X134809495Y-79480736D01*
X134813006Y-79482666D01*
X134816103Y-79485210D01*
X134878130Y-79518469D01*
X134939816Y-79552381D01*
X134943636Y-79553593D01*
X134947167Y-79555486D01*
X135014464Y-79576061D01*
X135081571Y-79597348D01*
X135085554Y-79597795D01*
X135089385Y-79598966D01*
X135159373Y-79606075D01*
X135229361Y-79613926D01*
X135237197Y-79613981D01*
X135237340Y-79613995D01*
X135237473Y-79613982D01*
X135240000Y-79614000D01*
X137726456Y-79614000D01*
X137821846Y-79762016D01*
X138020469Y-79967696D01*
X138245131Y-80123840D01*
X138051991Y-80250227D01*
X137847703Y-80450281D01*
X137686163Y-80686204D01*
X137573523Y-80949011D01*
X137514075Y-81228692D01*
X137510083Y-81514593D01*
X137561699Y-81795824D01*
X137666956Y-82061674D01*
X137821846Y-82302016D01*
X138020469Y-82507696D01*
X138245131Y-82663840D01*
X138051991Y-82790227D01*
X137847703Y-82990281D01*
X137686163Y-83226204D01*
X137573523Y-83489011D01*
X137514075Y-83768692D01*
X137510083Y-84054593D01*
X137561699Y-84335824D01*
X137666956Y-84601674D01*
X137821846Y-84842016D01*
X138020469Y-85047696D01*
X138246555Y-85204829D01*
X138161044Y-85250535D01*
X138069820Y-85482017D01*
X138970000Y-86382197D01*
X139870180Y-85482017D01*
X139778956Y-85250535D01*
X139688721Y-85202777D01*
X139871978Y-85086479D01*
X140079039Y-84889297D01*
X140243858Y-84655652D01*
X140360156Y-84394443D01*
X140423503Y-84115620D01*
X140428063Y-83789036D01*
X140372526Y-83508553D01*
X140263567Y-83244198D01*
X140105336Y-83006042D01*
X139903861Y-82803156D01*
X139692339Y-82660481D01*
X139871978Y-82546479D01*
X140079039Y-82349297D01*
X140243858Y-82115652D01*
X140360156Y-81854443D01*
X140423503Y-81575620D01*
X140428063Y-81249036D01*
X140372526Y-80968553D01*
X140263567Y-80704198D01*
X140105336Y-80466042D01*
X139903861Y-80263156D01*
X139692339Y-80120481D01*
X139871978Y-80006479D01*
X140079039Y-79809297D01*
X140243858Y-79575652D01*
X140360156Y-79314443D01*
X140423503Y-79035620D01*
X140428063Y-78709036D01*
X140372526Y-78428553D01*
X140263567Y-78164198D01*
X140105336Y-77926042D01*
X139903861Y-77723156D01*
X139666816Y-77563266D01*
X139403229Y-77452465D01*
X139123140Y-77394971D01*
X138837218Y-77392975D01*
X138556354Y-77446552D01*
X138291246Y-77553663D01*
X138051991Y-77710227D01*
X137847703Y-77910281D01*
X137724647Y-78090000D01*
X135555631Y-78090000D01*
X130452815Y-72987185D01*
X130398401Y-72942488D01*
X130344505Y-72897264D01*
X130340997Y-72895336D01*
X130337897Y-72892789D01*
X130275831Y-72859510D01*
X130214184Y-72825619D01*
X130210364Y-72824407D01*
X130206833Y-72822514D01*
X130139536Y-72801939D01*
X130072429Y-72780652D01*
X130068446Y-72780205D01*
X130064615Y-72779034D01*
X129994627Y-72771925D01*
X129924639Y-72764074D01*
X129916803Y-72764019D01*
X129916660Y-72764005D01*
X129916527Y-72764018D01*
X129914000Y-72764000D01*
X115603689Y-72764000D01*
X115473874Y-72568612D01*
X115265560Y-72358839D01*
X115148103Y-72279613D01*
X140275755Y-72279613D01*
X140336221Y-72609066D01*
X140459527Y-72920501D01*
X140640975Y-73202054D01*
X140873655Y-73443001D01*
X141148704Y-73634165D01*
X141455645Y-73768264D01*
X141782788Y-73840191D01*
X142117670Y-73847206D01*
X142447537Y-73789041D01*
X142759825Y-73667913D01*
X143042638Y-73488434D01*
X143285203Y-73257442D01*
X143478283Y-72983735D01*
X143614522Y-72677737D01*
X143688731Y-72351105D01*
X143694073Y-71968522D01*
X143629013Y-71639945D01*
X143501371Y-71330263D01*
X143316009Y-71051271D01*
X143079988Y-70813596D01*
X142802297Y-70626291D01*
X142493513Y-70496490D01*
X142165398Y-70429138D01*
X141830451Y-70426799D01*
X141501428Y-70489564D01*
X141190862Y-70615041D01*
X140910582Y-70798450D01*
X140671265Y-71032807D01*
X140482026Y-71309184D01*
X140350073Y-71617053D01*
X140280432Y-71944690D01*
X140275755Y-72279613D01*
X115148103Y-72279613D01*
X115020468Y-72193522D01*
X114747934Y-72078960D01*
X114458338Y-72019514D01*
X114162711Y-72017450D01*
X113872314Y-72072847D01*
X113598207Y-72183593D01*
X113350831Y-72345471D01*
X113139608Y-72552316D01*
X112972585Y-72796247D01*
X112856122Y-73067975D01*
X112794656Y-73357149D01*
X112790529Y-73652754D01*
X112837839Y-73910530D01*
X111221185Y-75527185D01*
X111176488Y-75581599D01*
X111131264Y-75635495D01*
X111129336Y-75639003D01*
X111126789Y-75642103D01*
X111093510Y-75704169D01*
X111059619Y-75765816D01*
X111058407Y-75769636D01*
X111056514Y-75773167D01*
X111035939Y-75840464D01*
X111014652Y-75907571D01*
X111014205Y-75911554D01*
X111013034Y-75915385D01*
X111005925Y-75985373D01*
X110998074Y-76055361D01*
X110998019Y-76063197D01*
X110998005Y-76063340D01*
X110998018Y-76063473D01*
X110998000Y-76066000D01*
X110638000Y-76066000D01*
X110638000Y-69650000D01*
X144522000Y-69650000D01*
X144522000Y-118534000D01*
X144522000Y-118534000D01*
G37*
X144522000Y-118534000D02*
X110638000Y-118534000D01*
X110638000Y-116221613D01*
X111319755Y-116221613D01*
X111380221Y-116551066D01*
X111503527Y-116862501D01*
X111684975Y-117144054D01*
X111917655Y-117385001D01*
X112192704Y-117576165D01*
X112499645Y-117710264D01*
X112826788Y-117782191D01*
X113161670Y-117789206D01*
X113491537Y-117731041D01*
X113803825Y-117609913D01*
X114086638Y-117430434D01*
X114329203Y-117199442D01*
X114522283Y-116925735D01*
X114658522Y-116619737D01*
X114732731Y-116293105D01*
X114738073Y-115910522D01*
X114673013Y-115581945D01*
X114545371Y-115272263D01*
X114360009Y-114993271D01*
X114123988Y-114755596D01*
X113846297Y-114568291D01*
X113537513Y-114438490D01*
X113209398Y-114371138D01*
X112874451Y-114368799D01*
X112545428Y-114431564D01*
X112234862Y-114557041D01*
X111954582Y-114740450D01*
X111715265Y-114974807D01*
X111526026Y-115251184D01*
X111394073Y-115559053D01*
X111324432Y-115886690D01*
X111319755Y-116221613D01*
X110638000Y-116221613D01*
X110638000Y-105854500D01*
X113030000Y-105854500D01*
X113030000Y-106476034D01*
X113049522Y-106574178D01*
X113087816Y-106666629D01*
X113143411Y-106749831D01*
X113214169Y-106820590D01*
X113297372Y-106876184D01*
X113389822Y-106914478D01*
X113487967Y-106934000D01*
X114109500Y-106934000D01*
X114236500Y-106807000D01*
X114236500Y-105727500D01*
X114363500Y-105727500D01*
X114363500Y-106807000D01*
X114490500Y-106934000D01*
X115112033Y-106934000D01*
X115210178Y-106914478D01*
X115302628Y-106876184D01*
X115385831Y-106820590D01*
X115456589Y-106749831D01*
X115512184Y-106666629D01*
X115550478Y-106574178D01*
X115570000Y-106476034D01*
X115570000Y-105854500D01*
X115443000Y-105727500D01*
X114363500Y-105727500D01*
X114236500Y-105727500D01*
X113157000Y-105727500D01*
X113030000Y-105854500D01*
X110638000Y-105854500D01*
X110638000Y-76066000D01*
X110998000Y-76066000D01*
X110998000Y-89408000D01*
X111004875Y-89478114D01*
X111011004Y-89548170D01*
X111012120Y-89552013D01*
X111012512Y-89556007D01*
X111032877Y-89623460D01*
X111052494Y-89690982D01*
X111054337Y-89694538D01*
X111055496Y-89698376D01*
X111088556Y-89760553D01*
X111120933Y-89823014D01*
X111123432Y-89826144D01*
X111125314Y-89829684D01*
X111169801Y-89884231D01*
X111213714Y-89939240D01*
X111219212Y-89944815D01*
X111219307Y-89944931D01*
X111219415Y-89945020D01*
X111221185Y-89946815D01*
X113538000Y-92263631D01*
X113538000Y-99564823D01*
X113500363Y-99589452D01*
X113322416Y-99763710D01*
X113181706Y-99969212D01*
X113083590Y-100198132D01*
X113031808Y-100441749D01*
X113028331Y-100690785D01*
X113073291Y-100935753D01*
X113164976Y-101167323D01*
X113299894Y-101376675D01*
X113472905Y-101555833D01*
X113677420Y-101697975D01*
X113905650Y-101797686D01*
X114148899Y-101851168D01*
X114270027Y-101853705D01*
X114184340Y-101853107D01*
X113939691Y-101899776D01*
X113708767Y-101993076D01*
X113500363Y-102129452D01*
X113322416Y-102303710D01*
X113181706Y-102509212D01*
X113083590Y-102738132D01*
X113031808Y-102981749D01*
X113028331Y-103230785D01*
X113073291Y-103475753D01*
X113164976Y-103707323D01*
X113299894Y-103916675D01*
X113472905Y-104095833D01*
X113677420Y-104237975D01*
X113905650Y-104337686D01*
X114148899Y-104391168D01*
X114284096Y-104394000D01*
X114236498Y-104394000D01*
X114236498Y-104520998D01*
X114109500Y-104394000D01*
X113487967Y-104394000D01*
X113389822Y-104413522D01*
X113297372Y-104451816D01*
X113214169Y-104507410D01*
X113143411Y-104578169D01*
X113087816Y-104661371D01*
X113049522Y-104753822D01*
X113030000Y-104851966D01*
X113030000Y-105473500D01*
X113157000Y-105600500D01*
X114236500Y-105600500D01*
X114236500Y-105580500D01*
X114363500Y-105580500D01*
X114363500Y-105600500D01*
X115443000Y-105600500D01*
X115570000Y-105473500D01*
X115570000Y-104851966D01*
X115550478Y-104753822D01*
X115512184Y-104661371D01*
X115456589Y-104578169D01*
X115385831Y-104507410D01*
X115302628Y-104451816D01*
X115210178Y-104413522D01*
X115112033Y-104394000D01*
X114490500Y-104394000D01*
X114363502Y-104520998D01*
X114363502Y-104395663D01*
X114397905Y-104396384D01*
X114643181Y-104353135D01*
X114875385Y-104263069D01*
X115085673Y-104129616D01*
X115266035Y-103957859D01*
X115316726Y-103886000D01*
X115508370Y-103886000D01*
X116586000Y-104963631D01*
X116586000Y-115824000D01*
X116592875Y-115894114D01*
X116599004Y-115964170D01*
X116600120Y-115968013D01*
X116600512Y-115972007D01*
X116620877Y-116039460D01*
X116640494Y-116106982D01*
X116642337Y-116110538D01*
X116643496Y-116114376D01*
X116676556Y-116176553D01*
X116708933Y-116239014D01*
X116711432Y-116242144D01*
X116713314Y-116245684D01*
X116757801Y-116300231D01*
X116801714Y-116355240D01*
X116807212Y-116360815D01*
X116807307Y-116360931D01*
X116807415Y-116361020D01*
X116809185Y-116362815D01*
X118333184Y-117886815D01*
X118387597Y-117931510D01*
X118441495Y-117976736D01*
X118445006Y-117978666D01*
X118448103Y-117981210D01*
X118510130Y-118014469D01*
X118571816Y-118048381D01*
X118575636Y-118049593D01*
X118579167Y-118051486D01*
X118646464Y-118072061D01*
X118713571Y-118093348D01*
X118717554Y-118093795D01*
X118721385Y-118094966D01*
X118791373Y-118102075D01*
X118861361Y-118109926D01*
X118869197Y-118109981D01*
X118869340Y-118109995D01*
X118869473Y-118109982D01*
X118872000Y-118110000D01*
X141224000Y-118110000D01*
X141294114Y-118103125D01*
X141364170Y-118096996D01*
X141368013Y-118095880D01*
X141372007Y-118095488D01*
X141439460Y-118075123D01*
X141506982Y-118055506D01*
X141510538Y-118053663D01*
X141514376Y-118052504D01*
X141576553Y-118019444D01*
X141639014Y-117987067D01*
X141642144Y-117984568D01*
X141645684Y-117982686D01*
X141700231Y-117938199D01*
X141755240Y-117894286D01*
X141760815Y-117888788D01*
X141760931Y-117888693D01*
X141761020Y-117888585D01*
X141762815Y-117886815D01*
X143286815Y-116362816D01*
X143331510Y-116308403D01*
X143376736Y-116254505D01*
X143378666Y-116250994D01*
X143381210Y-116247897D01*
X143414469Y-116185870D01*
X143448381Y-116124184D01*
X143449593Y-116120364D01*
X143451486Y-116116833D01*
X143472061Y-116049536D01*
X143493348Y-115982429D01*
X143493795Y-115978446D01*
X143494966Y-115974615D01*
X143502075Y-115904627D01*
X143509926Y-115834639D01*
X143509981Y-115826803D01*
X143509995Y-115826660D01*
X143509982Y-115826527D01*
X143510000Y-115824000D01*
X143510000Y-107950000D01*
X143503126Y-107879895D01*
X143496996Y-107809829D01*
X143495880Y-107805986D01*
X143495488Y-107801993D01*
X143475126Y-107734552D01*
X143455506Y-107667018D01*
X143453663Y-107663462D01*
X143452504Y-107659624D01*
X143419455Y-107597467D01*
X143387067Y-107534985D01*
X143384566Y-107531853D01*
X143382686Y-107528316D01*
X143338217Y-107473791D01*
X143294286Y-107418760D01*
X143288784Y-107413181D01*
X143288693Y-107413069D01*
X143288589Y-107412983D01*
X143286815Y-107411184D01*
X142128815Y-106253185D01*
X142074401Y-106208488D01*
X142020505Y-106163264D01*
X142016997Y-106161336D01*
X142013897Y-106158789D01*
X141951831Y-106125510D01*
X141890184Y-106091619D01*
X141886364Y-106090407D01*
X141882833Y-106088514D01*
X141815536Y-106067939D01*
X141748429Y-106046652D01*
X141744446Y-106046205D01*
X141740615Y-106045034D01*
X141670627Y-106037925D01*
X141600639Y-106030074D01*
X141592803Y-106030019D01*
X141592660Y-106030005D01*
X141592527Y-106030018D01*
X141590000Y-106030000D01*
X140214270Y-106030000D01*
X140105336Y-105866042D01*
X139903861Y-105663156D01*
X139692339Y-105520481D01*
X139871978Y-105406479D01*
X140079039Y-105209297D01*
X140243858Y-104975652D01*
X140360156Y-104714443D01*
X140423503Y-104435620D01*
X140428063Y-104109036D01*
X140372526Y-103828553D01*
X140263567Y-103564198D01*
X140105336Y-103326042D01*
X139903861Y-103123156D01*
X139692339Y-102980481D01*
X139871978Y-102866479D01*
X140079039Y-102669297D01*
X140243858Y-102435652D01*
X140360156Y-102174443D01*
X140423503Y-101895620D01*
X140428063Y-101569036D01*
X140372526Y-101288553D01*
X140263567Y-101024198D01*
X140105336Y-100786042D01*
X139903861Y-100583156D01*
X139692339Y-100440481D01*
X139871978Y-100326479D01*
X140079039Y-100129297D01*
X140243858Y-99895652D01*
X140360156Y-99634443D01*
X140423503Y-99355620D01*
X140428063Y-99029036D01*
X140372526Y-98748553D01*
X140263567Y-98484198D01*
X140105336Y-98246042D01*
X139903861Y-98043156D01*
X139692339Y-97900481D01*
X139871978Y-97786479D01*
X140079039Y-97589297D01*
X140243858Y-97355652D01*
X140360156Y-97094443D01*
X140423503Y-96815620D01*
X140428063Y-96489036D01*
X140372526Y-96208553D01*
X140263567Y-95944198D01*
X140105336Y-95706042D01*
X139903861Y-95503156D01*
X139692339Y-95360481D01*
X139871978Y-95246479D01*
X140079039Y-95049297D01*
X140243858Y-94815652D01*
X140360156Y-94554443D01*
X140423503Y-94275620D01*
X140428063Y-93949036D01*
X140372526Y-93668553D01*
X140263567Y-93404198D01*
X140105336Y-93166042D01*
X139903861Y-92963156D01*
X139692339Y-92820481D01*
X139871978Y-92706479D01*
X140079039Y-92509297D01*
X140243858Y-92275652D01*
X140360156Y-92014443D01*
X140423503Y-91735620D01*
X140428063Y-91409036D01*
X140372526Y-91128553D01*
X140263567Y-90864198D01*
X140105336Y-90626042D01*
X139903861Y-90423156D01*
X139692339Y-90280481D01*
X139871978Y-90166479D01*
X140079039Y-89969297D01*
X140243858Y-89735652D01*
X140360156Y-89474443D01*
X140423503Y-89195620D01*
X140428063Y-88869036D01*
X140372526Y-88588553D01*
X140263567Y-88324198D01*
X140105336Y-88086042D01*
X139903861Y-87883156D01*
X139691744Y-87740080D01*
X139778956Y-87693465D01*
X139870180Y-87461983D01*
X138970000Y-86561803D01*
X138069820Y-87461983D01*
X138161044Y-87693465D01*
X138250091Y-87740594D01*
X138051991Y-87870227D01*
X137847703Y-88070281D01*
X137686163Y-88306204D01*
X137573523Y-88569011D01*
X137514075Y-88848692D01*
X137510083Y-89134593D01*
X137561699Y-89415824D01*
X137666956Y-89681674D01*
X137821846Y-89922016D01*
X138020469Y-90127696D01*
X138245131Y-90283840D01*
X138051991Y-90410227D01*
X137847703Y-90610281D01*
X137686163Y-90846204D01*
X137573523Y-91109011D01*
X137514075Y-91388692D01*
X137510083Y-91674593D01*
X137561699Y-91955824D01*
X137666956Y-92221674D01*
X137821846Y-92462016D01*
X138020469Y-92667696D01*
X138245131Y-92823840D01*
X138051991Y-92950227D01*
X137847703Y-93150281D01*
X137686163Y-93386204D01*
X137573523Y-93649011D01*
X137514075Y-93928692D01*
X137510083Y-94214593D01*
X137561699Y-94495824D01*
X137666956Y-94761674D01*
X137821846Y-95002016D01*
X138020469Y-95207696D01*
X138245131Y-95363840D01*
X138051991Y-95490227D01*
X137847703Y-95690281D01*
X137686163Y-95926204D01*
X137573523Y-96189011D01*
X137514075Y-96468692D01*
X137510083Y-96754593D01*
X137561699Y-97035824D01*
X137666956Y-97301674D01*
X137821846Y-97542016D01*
X138020469Y-97747696D01*
X138245131Y-97903840D01*
X138051991Y-98030227D01*
X137847703Y-98230281D01*
X137686163Y-98466204D01*
X137573523Y-98729011D01*
X137514075Y-99008692D01*
X137510083Y-99294593D01*
X137561699Y-99575824D01*
X137666956Y-99841674D01*
X137821846Y-100082016D01*
X138020469Y-100287696D01*
X138245131Y-100443840D01*
X138051991Y-100570227D01*
X137847703Y-100770281D01*
X137686163Y-101006204D01*
X137573523Y-101269011D01*
X137514075Y-101548692D01*
X137510083Y-101834593D01*
X137561699Y-102115824D01*
X137666956Y-102381674D01*
X137821846Y-102622016D01*
X138020469Y-102827696D01*
X138245131Y-102983840D01*
X138051991Y-103110227D01*
X137847703Y-103310281D01*
X137686163Y-103546204D01*
X137573523Y-103809011D01*
X137514075Y-104088692D01*
X137510083Y-104374593D01*
X137561699Y-104655824D01*
X137666956Y-104921674D01*
X137821846Y-105162016D01*
X138020469Y-105367696D01*
X138245131Y-105523840D01*
X138051991Y-105650227D01*
X137847703Y-105850281D01*
X137686163Y-106086204D01*
X137573523Y-106349011D01*
X137514075Y-106628692D01*
X137510083Y-106914593D01*
X137561699Y-107195824D01*
X137666956Y-107461674D01*
X137821846Y-107702016D01*
X138020469Y-107907696D01*
X138255259Y-108070879D01*
X138517273Y-108185350D01*
X138796532Y-108246749D01*
X139082398Y-108252737D01*
X139363982Y-108203086D01*
X139630560Y-108099687D01*
X139871978Y-107946479D01*
X140079039Y-107749297D01*
X140216806Y-107554000D01*
X141274370Y-107554000D01*
X141986000Y-108265631D01*
X141986000Y-115508369D01*
X140908370Y-116586000D01*
X119187631Y-116586000D01*
X118110000Y-115508370D01*
X118110000Y-104648000D01*
X118103122Y-104577850D01*
X118096996Y-104507829D01*
X118095880Y-104503986D01*
X118095488Y-104499993D01*
X118075126Y-104432552D01*
X118055506Y-104365018D01*
X118053663Y-104361462D01*
X118052504Y-104357624D01*
X118019455Y-104295467D01*
X117987067Y-104232985D01*
X117984566Y-104229853D01*
X117982686Y-104226316D01*
X117938217Y-104171791D01*
X117894286Y-104116760D01*
X117888784Y-104111181D01*
X117888693Y-104111069D01*
X117888589Y-104110983D01*
X117886815Y-104109184D01*
X116901630Y-103124000D01*
X117886815Y-102138816D01*
X117931510Y-102084403D01*
X117976736Y-102030505D01*
X117978666Y-102026994D01*
X117981210Y-102023897D01*
X118014469Y-101961870D01*
X118048381Y-101900184D01*
X118049593Y-101896364D01*
X118051486Y-101892833D01*
X118072061Y-101825536D01*
X118093348Y-101758429D01*
X118093795Y-101754446D01*
X118094966Y-101750615D01*
X118102075Y-101680627D01*
X118109926Y-101610639D01*
X118109981Y-101602803D01*
X118109995Y-101602660D01*
X118109982Y-101602527D01*
X118110000Y-101600000D01*
X118110000Y-92082000D01*
X118105974Y-92040939D01*
X118105541Y-91999688D01*
X118098736Y-91967117D01*
X118095488Y-91933993D01*
X118083563Y-91894494D01*
X118075126Y-91854115D01*
X118062123Y-91823485D01*
X118052504Y-91791624D01*
X118033134Y-91755194D01*
X118017015Y-91717223D01*
X117998310Y-91689701D01*
X117982686Y-91660316D01*
X117956612Y-91628345D01*
X117933421Y-91594223D01*
X117926554Y-91586097D01*
X115729174Y-89022487D01*
X115737342Y-89004140D01*
X115802839Y-88715853D01*
X115807555Y-88378183D01*
X115750132Y-88088179D01*
X115637475Y-87814852D01*
X115473874Y-87568612D01*
X115265560Y-87358839D01*
X115020468Y-87193522D01*
X114747934Y-87078960D01*
X114458338Y-87019514D01*
X114162711Y-87017450D01*
X113872314Y-87072847D01*
X113598207Y-87183593D01*
X113350831Y-87345471D01*
X113139608Y-87552316D01*
X112972585Y-87796247D01*
X112856122Y-88067975D01*
X112794656Y-88357149D01*
X112790529Y-88652754D01*
X112843896Y-88943531D01*
X112952726Y-89218405D01*
X113112874Y-89466905D01*
X113318238Y-89679566D01*
X113560998Y-89848288D01*
X113831906Y-89966645D01*
X114120644Y-90030128D01*
X114416213Y-90036320D01*
X114568005Y-90009555D01*
X116586000Y-92363882D01*
X116586000Y-101284369D01*
X115508370Y-102362000D01*
X115318548Y-102362000D01*
X115288942Y-102317439D01*
X115113445Y-102140713D01*
X114906965Y-102001441D01*
X114677366Y-101904926D01*
X114433393Y-101854846D01*
X114407647Y-101854666D01*
X114643181Y-101813135D01*
X114875385Y-101723069D01*
X115085673Y-101589616D01*
X115266035Y-101417859D01*
X115409602Y-101214341D01*
X115510903Y-100986814D01*
X115566082Y-100743943D01*
X115570054Y-100459470D01*
X115521678Y-100215154D01*
X115426769Y-99984886D01*
X115288942Y-99777439D01*
X115113445Y-99600713D01*
X115062000Y-99566013D01*
X115062000Y-91948000D01*
X115055122Y-91877850D01*
X115048996Y-91807829D01*
X115047880Y-91803986D01*
X115047488Y-91799993D01*
X115027126Y-91732552D01*
X115007506Y-91665018D01*
X115005663Y-91661462D01*
X115004504Y-91657624D01*
X114971455Y-91595467D01*
X114939067Y-91532985D01*
X114936566Y-91529853D01*
X114934686Y-91526316D01*
X114890217Y-91471791D01*
X114846286Y-91416760D01*
X114840784Y-91411181D01*
X114840693Y-91411069D01*
X114840589Y-91410983D01*
X114838815Y-91409184D01*
X112522000Y-89092370D01*
X112522000Y-84054593D01*
X119730083Y-84054593D01*
X119781699Y-84335824D01*
X119886956Y-84601674D01*
X120041846Y-84842016D01*
X120240469Y-85047696D01*
X120465131Y-85203840D01*
X120271991Y-85330227D01*
X120067703Y-85530281D01*
X119906163Y-85766204D01*
X119793523Y-86029011D01*
X119734075Y-86308692D01*
X119730083Y-86594593D01*
X119781699Y-86875824D01*
X119886956Y-87141674D01*
X120041846Y-87382016D01*
X120240469Y-87587696D01*
X120465131Y-87743840D01*
X120271991Y-87870227D01*
X120067703Y-88070281D01*
X119906163Y-88306204D01*
X119793523Y-88569011D01*
X119734075Y-88848692D01*
X119730083Y-89134593D01*
X119781699Y-89415824D01*
X119886956Y-89681674D01*
X120041846Y-89922016D01*
X120240469Y-90127696D01*
X120465131Y-90283840D01*
X120271991Y-90410227D01*
X120067703Y-90610281D01*
X119906163Y-90846204D01*
X119793523Y-91109011D01*
X119734075Y-91388692D01*
X119730083Y-91674593D01*
X119781699Y-91955824D01*
X119886956Y-92221674D01*
X120041846Y-92462016D01*
X120240469Y-92667696D01*
X120465131Y-92823840D01*
X120271991Y-92950227D01*
X120067703Y-93150281D01*
X119906163Y-93386204D01*
X119793523Y-93649011D01*
X119734075Y-93928692D01*
X119730083Y-94214593D01*
X119781699Y-94495824D01*
X119886956Y-94761674D01*
X120041846Y-95002016D01*
X120240469Y-95207696D01*
X120465131Y-95363840D01*
X120271991Y-95490227D01*
X120067703Y-95690281D01*
X119906163Y-95926204D01*
X119793523Y-96189011D01*
X119734075Y-96468692D01*
X119730083Y-96754593D01*
X119781699Y-97035824D01*
X119886956Y-97301674D01*
X120041846Y-97542016D01*
X120240469Y-97747696D01*
X120465131Y-97903840D01*
X120271991Y-98030227D01*
X120067703Y-98230281D01*
X119906163Y-98466204D01*
X119793523Y-98729011D01*
X119734075Y-99008692D01*
X119730083Y-99294593D01*
X119781699Y-99575824D01*
X119886956Y-99841674D01*
X120041846Y-100082016D01*
X120240469Y-100287696D01*
X120465131Y-100443840D01*
X120271991Y-100570227D01*
X120067703Y-100770281D01*
X119906163Y-101006204D01*
X119793523Y-101269011D01*
X119734075Y-101548692D01*
X119730083Y-101834593D01*
X119781699Y-102115824D01*
X119886956Y-102381674D01*
X120041846Y-102622016D01*
X120240469Y-102827696D01*
X120465131Y-102983840D01*
X120271991Y-103110227D01*
X120067703Y-103310281D01*
X119906163Y-103546204D01*
X119793523Y-103809011D01*
X119734075Y-104088692D01*
X119730083Y-104374593D01*
X119781699Y-104655824D01*
X119886956Y-104921674D01*
X120041846Y-105162016D01*
X120240469Y-105367696D01*
X120465131Y-105523840D01*
X120271991Y-105650227D01*
X120067703Y-105850281D01*
X119906163Y-106086204D01*
X119793523Y-106349011D01*
X119734075Y-106628692D01*
X119730083Y-106914593D01*
X119781699Y-107195824D01*
X119886956Y-107461674D01*
X120041846Y-107702016D01*
X120240469Y-107907696D01*
X120475259Y-108070879D01*
X120737273Y-108185350D01*
X121016532Y-108246749D01*
X121302398Y-108252737D01*
X121583982Y-108203086D01*
X121850560Y-108099687D01*
X122091978Y-107946479D01*
X122299039Y-107749297D01*
X122463858Y-107515652D01*
X122580156Y-107254443D01*
X122643503Y-106975620D01*
X122648063Y-106649036D01*
X122592526Y-106368553D01*
X122483567Y-106104198D01*
X122325336Y-105866042D01*
X122123861Y-105663156D01*
X121912339Y-105520481D01*
X122091978Y-105406479D01*
X122299039Y-105209297D01*
X122463858Y-104975652D01*
X122580156Y-104714443D01*
X122643503Y-104435620D01*
X122648063Y-104109036D01*
X122592526Y-103828553D01*
X122483567Y-103564198D01*
X122325336Y-103326042D01*
X122123861Y-103123156D01*
X121912339Y-102980481D01*
X122091978Y-102866479D01*
X122299039Y-102669297D01*
X122463858Y-102435652D01*
X122580156Y-102174443D01*
X122643503Y-101895620D01*
X122648063Y-101569036D01*
X122592526Y-101288553D01*
X122483567Y-101024198D01*
X122325336Y-100786042D01*
X122123861Y-100583156D01*
X121912339Y-100440481D01*
X122091978Y-100326479D01*
X122299039Y-100129297D01*
X122463858Y-99895652D01*
X122580156Y-99634443D01*
X122643503Y-99355620D01*
X122648063Y-99029036D01*
X122592526Y-98748553D01*
X122483567Y-98484198D01*
X122325336Y-98246042D01*
X122123861Y-98043156D01*
X121912339Y-97900481D01*
X122091978Y-97786479D01*
X122299039Y-97589297D01*
X122463858Y-97355652D01*
X122580156Y-97094443D01*
X122643503Y-96815620D01*
X122648063Y-96489036D01*
X122592526Y-96208553D01*
X122483567Y-95944198D01*
X122325336Y-95706042D01*
X122123861Y-95503156D01*
X121912339Y-95360481D01*
X122091978Y-95246479D01*
X122299039Y-95049297D01*
X122463858Y-94815652D01*
X122580156Y-94554443D01*
X122643503Y-94275620D01*
X122648063Y-93949036D01*
X122592526Y-93668553D01*
X122483567Y-93404198D01*
X122325336Y-93166042D01*
X122123861Y-92963156D01*
X121912339Y-92820481D01*
X122091978Y-92706479D01*
X122299039Y-92509297D01*
X122463858Y-92275652D01*
X122580156Y-92014443D01*
X122643503Y-91735620D01*
X122648063Y-91409036D01*
X122592526Y-91128553D01*
X122483567Y-90864198D01*
X122325336Y-90626042D01*
X122123861Y-90423156D01*
X121912339Y-90280481D01*
X122091978Y-90166479D01*
X122299039Y-89969297D01*
X122463858Y-89735652D01*
X122580156Y-89474443D01*
X122643503Y-89195620D01*
X122648063Y-88869036D01*
X122592526Y-88588553D01*
X122483567Y-88324198D01*
X122325336Y-88086042D01*
X122123861Y-87883156D01*
X121912339Y-87740481D01*
X122091978Y-87626479D01*
X122299039Y-87429297D01*
X122463858Y-87195652D01*
X122580156Y-86934443D01*
X122643503Y-86655620D01*
X122645983Y-86477988D01*
X137504958Y-86477988D01*
X137534277Y-86763688D01*
X137618770Y-87038179D01*
X137748535Y-87280956D01*
X137980017Y-87372180D01*
X138880197Y-86472000D01*
X139059803Y-86472000D01*
X139959983Y-87372180D01*
X140191465Y-87280956D01*
X140325814Y-87027116D01*
X140408059Y-86751943D01*
X140435042Y-86466012D01*
X140405723Y-86180312D01*
X140321230Y-85905821D01*
X140191465Y-85663044D01*
X139959983Y-85571820D01*
X139059803Y-86472000D01*
X138880197Y-86472000D01*
X137980017Y-85571820D01*
X137748535Y-85663044D01*
X137614186Y-85916884D01*
X137531941Y-86192057D01*
X137504958Y-86477988D01*
X122645983Y-86477988D01*
X122648063Y-86329036D01*
X122592526Y-86048553D01*
X122483567Y-85784198D01*
X122325336Y-85546042D01*
X122123861Y-85343156D01*
X121912339Y-85200481D01*
X122091978Y-85086479D01*
X122299039Y-84889297D01*
X122463858Y-84655652D01*
X122580156Y-84394443D01*
X122643503Y-84115620D01*
X122648063Y-83789036D01*
X122592526Y-83508553D01*
X122483567Y-83244198D01*
X122325336Y-83006042D01*
X122123861Y-82803156D01*
X121911744Y-82660080D01*
X121998956Y-82613465D01*
X122090180Y-82381983D01*
X121190000Y-81481803D01*
X120289820Y-82381983D01*
X120381044Y-82613465D01*
X120470091Y-82660594D01*
X120271991Y-82790227D01*
X120067703Y-82990281D01*
X119906163Y-83226204D01*
X119793523Y-83489011D01*
X119734075Y-83768692D01*
X119730083Y-84054593D01*
X112522000Y-84054593D01*
X112522000Y-81397988D01*
X119724958Y-81397988D01*
X119754277Y-81683688D01*
X119838770Y-81958179D01*
X119968535Y-82200956D01*
X120200017Y-82292180D01*
X121100197Y-81392000D01*
X121279803Y-81392000D01*
X122179983Y-82292180D01*
X122411465Y-82200956D01*
X122545814Y-81947116D01*
X122628059Y-81671943D01*
X122655042Y-81386012D01*
X122625723Y-81100312D01*
X122541230Y-80825821D01*
X122411465Y-80583044D01*
X122179983Y-80491820D01*
X121279803Y-81392000D01*
X121100197Y-81392000D01*
X120200017Y-80491820D01*
X119968535Y-80583044D01*
X119834186Y-80836884D01*
X119751941Y-81112057D01*
X119724958Y-81397988D01*
X112522000Y-81397988D01*
X112522000Y-78974593D01*
X119730083Y-78974593D01*
X119781699Y-79255824D01*
X119886956Y-79521674D01*
X120041846Y-79762016D01*
X120240469Y-79967696D01*
X120466555Y-80124829D01*
X120381044Y-80170535D01*
X120289820Y-80402017D01*
X121190000Y-81302197D01*
X122090180Y-80402017D01*
X121998956Y-80170535D01*
X121908721Y-80122777D01*
X122091978Y-80006479D01*
X122299039Y-79809297D01*
X122463858Y-79575652D01*
X122580156Y-79314443D01*
X122643503Y-79035620D01*
X122648063Y-78709036D01*
X122592526Y-78428553D01*
X122483567Y-78164198D01*
X122325336Y-77926042D01*
X122123861Y-77723156D01*
X121886816Y-77563266D01*
X121623229Y-77452465D01*
X121343140Y-77394971D01*
X121057218Y-77392975D01*
X120776354Y-77446552D01*
X120511246Y-77553663D01*
X120271991Y-77710227D01*
X120067703Y-77910281D01*
X119906163Y-78146204D01*
X119793523Y-78409011D01*
X119734075Y-78688692D01*
X119730083Y-78974593D01*
X112522000Y-78974593D01*
X112522000Y-76381630D01*
X113918046Y-74985584D01*
X114120644Y-75030128D01*
X114416213Y-75036320D01*
X114707355Y-74984983D01*
X114982982Y-74878075D01*
X115232594Y-74719666D01*
X115446684Y-74515791D01*
X115607373Y-74288000D01*
X129598370Y-74288000D01*
X134701184Y-79390815D01*
X134755597Y-79435510D01*
X134809495Y-79480736D01*
X134813006Y-79482666D01*
X134816103Y-79485210D01*
X134878130Y-79518469D01*
X134939816Y-79552381D01*
X134943636Y-79553593D01*
X134947167Y-79555486D01*
X135014464Y-79576061D01*
X135081571Y-79597348D01*
X135085554Y-79597795D01*
X135089385Y-79598966D01*
X135159373Y-79606075D01*
X135229361Y-79613926D01*
X135237197Y-79613981D01*
X135237340Y-79613995D01*
X135237473Y-79613982D01*
X135240000Y-79614000D01*
X137726456Y-79614000D01*
X137821846Y-79762016D01*
X138020469Y-79967696D01*
X138245131Y-80123840D01*
X138051991Y-80250227D01*
X137847703Y-80450281D01*
X137686163Y-80686204D01*
X137573523Y-80949011D01*
X137514075Y-81228692D01*
X137510083Y-81514593D01*
X137561699Y-81795824D01*
X137666956Y-82061674D01*
X137821846Y-82302016D01*
X138020469Y-82507696D01*
X138245131Y-82663840D01*
X138051991Y-82790227D01*
X137847703Y-82990281D01*
X137686163Y-83226204D01*
X137573523Y-83489011D01*
X137514075Y-83768692D01*
X137510083Y-84054593D01*
X137561699Y-84335824D01*
X137666956Y-84601674D01*
X137821846Y-84842016D01*
X138020469Y-85047696D01*
X138246555Y-85204829D01*
X138161044Y-85250535D01*
X138069820Y-85482017D01*
X138970000Y-86382197D01*
X139870180Y-85482017D01*
X139778956Y-85250535D01*
X139688721Y-85202777D01*
X139871978Y-85086479D01*
X140079039Y-84889297D01*
X140243858Y-84655652D01*
X140360156Y-84394443D01*
X140423503Y-84115620D01*
X140428063Y-83789036D01*
X140372526Y-83508553D01*
X140263567Y-83244198D01*
X140105336Y-83006042D01*
X139903861Y-82803156D01*
X139692339Y-82660481D01*
X139871978Y-82546479D01*
X140079039Y-82349297D01*
X140243858Y-82115652D01*
X140360156Y-81854443D01*
X140423503Y-81575620D01*
X140428063Y-81249036D01*
X140372526Y-80968553D01*
X140263567Y-80704198D01*
X140105336Y-80466042D01*
X139903861Y-80263156D01*
X139692339Y-80120481D01*
X139871978Y-80006479D01*
X140079039Y-79809297D01*
X140243858Y-79575652D01*
X140360156Y-79314443D01*
X140423503Y-79035620D01*
X140428063Y-78709036D01*
X140372526Y-78428553D01*
X140263567Y-78164198D01*
X140105336Y-77926042D01*
X139903861Y-77723156D01*
X139666816Y-77563266D01*
X139403229Y-77452465D01*
X139123140Y-77394971D01*
X138837218Y-77392975D01*
X138556354Y-77446552D01*
X138291246Y-77553663D01*
X138051991Y-77710227D01*
X137847703Y-77910281D01*
X137724647Y-78090000D01*
X135555631Y-78090000D01*
X130452815Y-72987185D01*
X130398401Y-72942488D01*
X130344505Y-72897264D01*
X130340997Y-72895336D01*
X130337897Y-72892789D01*
X130275831Y-72859510D01*
X130214184Y-72825619D01*
X130210364Y-72824407D01*
X130206833Y-72822514D01*
X130139536Y-72801939D01*
X130072429Y-72780652D01*
X130068446Y-72780205D01*
X130064615Y-72779034D01*
X129994627Y-72771925D01*
X129924639Y-72764074D01*
X129916803Y-72764019D01*
X129916660Y-72764005D01*
X129916527Y-72764018D01*
X129914000Y-72764000D01*
X115603689Y-72764000D01*
X115473874Y-72568612D01*
X115265560Y-72358839D01*
X115148103Y-72279613D01*
X140275755Y-72279613D01*
X140336221Y-72609066D01*
X140459527Y-72920501D01*
X140640975Y-73202054D01*
X140873655Y-73443001D01*
X141148704Y-73634165D01*
X141455645Y-73768264D01*
X141782788Y-73840191D01*
X142117670Y-73847206D01*
X142447537Y-73789041D01*
X142759825Y-73667913D01*
X143042638Y-73488434D01*
X143285203Y-73257442D01*
X143478283Y-72983735D01*
X143614522Y-72677737D01*
X143688731Y-72351105D01*
X143694073Y-71968522D01*
X143629013Y-71639945D01*
X143501371Y-71330263D01*
X143316009Y-71051271D01*
X143079988Y-70813596D01*
X142802297Y-70626291D01*
X142493513Y-70496490D01*
X142165398Y-70429138D01*
X141830451Y-70426799D01*
X141501428Y-70489564D01*
X141190862Y-70615041D01*
X140910582Y-70798450D01*
X140671265Y-71032807D01*
X140482026Y-71309184D01*
X140350073Y-71617053D01*
X140280432Y-71944690D01*
X140275755Y-72279613D01*
X115148103Y-72279613D01*
X115020468Y-72193522D01*
X114747934Y-72078960D01*
X114458338Y-72019514D01*
X114162711Y-72017450D01*
X113872314Y-72072847D01*
X113598207Y-72183593D01*
X113350831Y-72345471D01*
X113139608Y-72552316D01*
X112972585Y-72796247D01*
X112856122Y-73067975D01*
X112794656Y-73357149D01*
X112790529Y-73652754D01*
X112837839Y-73910530D01*
X111221185Y-75527185D01*
X111176488Y-75581599D01*
X111131264Y-75635495D01*
X111129336Y-75639003D01*
X111126789Y-75642103D01*
X111093510Y-75704169D01*
X111059619Y-75765816D01*
X111058407Y-75769636D01*
X111056514Y-75773167D01*
X111035939Y-75840464D01*
X111014652Y-75907571D01*
X111014205Y-75911554D01*
X111013034Y-75915385D01*
X111005925Y-75985373D01*
X110998074Y-76055361D01*
X110998019Y-76063197D01*
X110998005Y-76063340D01*
X110998018Y-76063473D01*
X110998000Y-76066000D01*
X110638000Y-76066000D01*
X110638000Y-69650000D01*
X144522000Y-69650000D01*
X144522000Y-118534000D01*
M02*
