G04 #@! TF.FileFunction,Copper,L2,Bot,Signal*
%FSLAX46Y46*%
G04 Gerber Fmt 4.6, Leading zero omitted, Abs format (unit mm)*
G04 Created by KiCad (PCBNEW (2015-11-24 BZR 6329, Git e511afd)-product) date Die 01 Dez 2015 10:43:08 CET*
%MOMM*%
G01*
G04 APERTURE LIST*
%ADD10C,0.150000*%
%ADD11C,1.900000*%
%ADD12R,1.524000X1.524000*%
%ADD13C,1.524000*%
%ADD14C,2.400000*%
%ADD15C,1.998980*%
%ADD16C,0.254000*%
G04 APERTURE END LIST*
D10*
D11*
X121190000Y-78852000D03*
X121190000Y-81392000D03*
X121190000Y-83932000D03*
X121190000Y-86472000D03*
X121190000Y-89012000D03*
X121190000Y-91552000D03*
X121190000Y-94092000D03*
X121190000Y-96632000D03*
X121190000Y-99172000D03*
X121190000Y-101712000D03*
X121190000Y-104252000D03*
X121190000Y-106792000D03*
X138970000Y-78852000D03*
X138970000Y-81392000D03*
X138970000Y-83932000D03*
X138970000Y-86472000D03*
X138970000Y-89012000D03*
X138970000Y-91552000D03*
X138970000Y-94092000D03*
X138970000Y-96632000D03*
X138970000Y-99172000D03*
X138970000Y-101712000D03*
X138970000Y-104252000D03*
X138970000Y-106792000D03*
D12*
X114300000Y-105664000D03*
D13*
X114300000Y-103124000D03*
X114300000Y-100584000D03*
D14*
X113030000Y-116078000D03*
X141986000Y-72136000D03*
D15*
X114300000Y-73526000D03*
X114300000Y-88526000D03*
D16*
G36*
X144395000Y-118407000D02*
X110765000Y-118407000D01*
X110765000Y-116441403D01*
X111194682Y-116441403D01*
X111473455Y-117116086D01*
X111989199Y-117632730D01*
X112663395Y-117912681D01*
X113393403Y-117913318D01*
X114068086Y-117634545D01*
X114584730Y-117118801D01*
X114864681Y-116444605D01*
X114865318Y-115714597D01*
X114586545Y-115039914D01*
X114070801Y-114523270D01*
X113396605Y-114243319D01*
X112666597Y-114242682D01*
X111991914Y-114521455D01*
X111475270Y-115037199D01*
X111195319Y-115711395D01*
X111194682Y-116441403D01*
X110765000Y-116441403D01*
X110765000Y-105949750D01*
X112903000Y-105949750D01*
X112903000Y-106552309D01*
X112999673Y-106785698D01*
X113178301Y-106964327D01*
X113411690Y-107061000D01*
X114014250Y-107061000D01*
X114173000Y-106902250D01*
X114173000Y-105791000D01*
X114427000Y-105791000D01*
X114427000Y-106902250D01*
X114585750Y-107061000D01*
X115188310Y-107061000D01*
X115421699Y-106964327D01*
X115600327Y-106785698D01*
X115697000Y-106552309D01*
X115697000Y-105949750D01*
X115538250Y-105791000D01*
X114427000Y-105791000D01*
X114173000Y-105791000D01*
X113061750Y-105791000D01*
X112903000Y-105949750D01*
X110765000Y-105949750D01*
X110765000Y-100860661D01*
X112902758Y-100860661D01*
X113114990Y-101374303D01*
X113507630Y-101767629D01*
X113715512Y-101853949D01*
X113509697Y-101938990D01*
X113116371Y-102331630D01*
X112903243Y-102844900D01*
X112902758Y-103400661D01*
X113114990Y-103914303D01*
X113467072Y-104267000D01*
X113411690Y-104267000D01*
X113178301Y-104363673D01*
X112999673Y-104542302D01*
X112903000Y-104775691D01*
X112903000Y-105378250D01*
X113061750Y-105537000D01*
X114173000Y-105537000D01*
X114173000Y-105517000D01*
X114427000Y-105517000D01*
X114427000Y-105537000D01*
X115538250Y-105537000D01*
X115697000Y-105378250D01*
X115697000Y-104775691D01*
X115600327Y-104542302D01*
X115421699Y-104363673D01*
X115188310Y-104267000D01*
X115132386Y-104267000D01*
X115483629Y-103916370D01*
X115696757Y-103403100D01*
X115697242Y-102847339D01*
X115485010Y-102333697D01*
X115092370Y-101940371D01*
X114884488Y-101854051D01*
X115090303Y-101769010D01*
X115483629Y-101376370D01*
X115696757Y-100863100D01*
X115697242Y-100307339D01*
X115485010Y-99793697D01*
X115092370Y-99400371D01*
X114579100Y-99187243D01*
X114023339Y-99186758D01*
X113509697Y-99398990D01*
X113116371Y-99791630D01*
X112903243Y-100304900D01*
X112902758Y-100860661D01*
X110765000Y-100860661D01*
X110765000Y-88849694D01*
X112665226Y-88849694D01*
X112913538Y-89450655D01*
X113372927Y-89910846D01*
X113973453Y-90160206D01*
X114623694Y-90160774D01*
X115224655Y-89912462D01*
X115684846Y-89453073D01*
X115934206Y-88852547D01*
X115934774Y-88202306D01*
X115686462Y-87601345D01*
X115227073Y-87141154D01*
X114626547Y-86891794D01*
X113976306Y-86891226D01*
X113375345Y-87139538D01*
X112915154Y-87598927D01*
X112665794Y-88199453D01*
X112665226Y-88849694D01*
X110765000Y-88849694D01*
X110765000Y-84245893D01*
X119604725Y-84245893D01*
X119845519Y-84828657D01*
X120218471Y-85202261D01*
X119847086Y-85572997D01*
X119605276Y-86155341D01*
X119604725Y-86785893D01*
X119845519Y-87368657D01*
X120218471Y-87742261D01*
X119847086Y-88112997D01*
X119605276Y-88695341D01*
X119604725Y-89325893D01*
X119845519Y-89908657D01*
X120218471Y-90282261D01*
X119847086Y-90652997D01*
X119605276Y-91235341D01*
X119604725Y-91865893D01*
X119845519Y-92448657D01*
X120218471Y-92822261D01*
X119847086Y-93192997D01*
X119605276Y-93775341D01*
X119604725Y-94405893D01*
X119845519Y-94988657D01*
X120218471Y-95362261D01*
X119847086Y-95732997D01*
X119605276Y-96315341D01*
X119604725Y-96945893D01*
X119845519Y-97528657D01*
X120218471Y-97902261D01*
X119847086Y-98272997D01*
X119605276Y-98855341D01*
X119604725Y-99485893D01*
X119845519Y-100068657D01*
X120218471Y-100442261D01*
X119847086Y-100812997D01*
X119605276Y-101395341D01*
X119604725Y-102025893D01*
X119845519Y-102608657D01*
X120218471Y-102982261D01*
X119847086Y-103352997D01*
X119605276Y-103935341D01*
X119604725Y-104565893D01*
X119845519Y-105148657D01*
X120218471Y-105522261D01*
X119847086Y-105892997D01*
X119605276Y-106475341D01*
X119604725Y-107105893D01*
X119845519Y-107688657D01*
X120290997Y-108134914D01*
X120873341Y-108376724D01*
X121503893Y-108377275D01*
X122086657Y-108136481D01*
X122532914Y-107691003D01*
X122774724Y-107108659D01*
X122775275Y-106478107D01*
X122534481Y-105895343D01*
X122161529Y-105521739D01*
X122532914Y-105151003D01*
X122774724Y-104568659D01*
X122775275Y-103938107D01*
X122534481Y-103355343D01*
X122161529Y-102981739D01*
X122532914Y-102611003D01*
X122774724Y-102028659D01*
X122775275Y-101398107D01*
X122534481Y-100815343D01*
X122161529Y-100441739D01*
X122532914Y-100071003D01*
X122774724Y-99488659D01*
X122775275Y-98858107D01*
X122534481Y-98275343D01*
X122161529Y-97901739D01*
X122532914Y-97531003D01*
X122774724Y-96948659D01*
X122775275Y-96318107D01*
X122534481Y-95735343D01*
X122161529Y-95361739D01*
X122532914Y-94991003D01*
X122774724Y-94408659D01*
X122775275Y-93778107D01*
X122534481Y-93195343D01*
X122161529Y-92821739D01*
X122532914Y-92451003D01*
X122774724Y-91868659D01*
X122775275Y-91238107D01*
X122534481Y-90655343D01*
X122161529Y-90281739D01*
X122532914Y-89911003D01*
X122774724Y-89328659D01*
X122774726Y-89325893D01*
X137384725Y-89325893D01*
X137625519Y-89908657D01*
X137998471Y-90282261D01*
X137627086Y-90652997D01*
X137385276Y-91235341D01*
X137384725Y-91865893D01*
X137625519Y-92448657D01*
X137998471Y-92822261D01*
X137627086Y-93192997D01*
X137385276Y-93775341D01*
X137384725Y-94405893D01*
X137625519Y-94988657D01*
X137998471Y-95362261D01*
X137627086Y-95732997D01*
X137385276Y-96315341D01*
X137384725Y-96945893D01*
X137625519Y-97528657D01*
X137998471Y-97902261D01*
X137627086Y-98272997D01*
X137385276Y-98855341D01*
X137384725Y-99485893D01*
X137625519Y-100068657D01*
X137998471Y-100442261D01*
X137627086Y-100812997D01*
X137385276Y-101395341D01*
X137384725Y-102025893D01*
X137625519Y-102608657D01*
X137998471Y-102982261D01*
X137627086Y-103352997D01*
X137385276Y-103935341D01*
X137384725Y-104565893D01*
X137625519Y-105148657D01*
X137998471Y-105522261D01*
X137627086Y-105892997D01*
X137385276Y-106475341D01*
X137384725Y-107105893D01*
X137625519Y-107688657D01*
X138070997Y-108134914D01*
X138653341Y-108376724D01*
X139283893Y-108377275D01*
X139866657Y-108136481D01*
X140312914Y-107691003D01*
X140554724Y-107108659D01*
X140555275Y-106478107D01*
X140314481Y-105895343D01*
X139941529Y-105521739D01*
X140312914Y-105151003D01*
X140554724Y-104568659D01*
X140555275Y-103938107D01*
X140314481Y-103355343D01*
X139941529Y-102981739D01*
X140312914Y-102611003D01*
X140554724Y-102028659D01*
X140555275Y-101398107D01*
X140314481Y-100815343D01*
X139941529Y-100441739D01*
X140312914Y-100071003D01*
X140554724Y-99488659D01*
X140555275Y-98858107D01*
X140314481Y-98275343D01*
X139941529Y-97901739D01*
X140312914Y-97531003D01*
X140554724Y-96948659D01*
X140555275Y-96318107D01*
X140314481Y-95735343D01*
X139941529Y-95361739D01*
X140312914Y-94991003D01*
X140554724Y-94408659D01*
X140555275Y-93778107D01*
X140314481Y-93195343D01*
X139941529Y-92821739D01*
X140312914Y-92451003D01*
X140554724Y-91868659D01*
X140555275Y-91238107D01*
X140314481Y-90655343D01*
X139941529Y-90281739D01*
X140312914Y-89911003D01*
X140554724Y-89328659D01*
X140555275Y-88698107D01*
X140314481Y-88115343D01*
X139875789Y-87675884D01*
X139906745Y-87588350D01*
X138970000Y-86651605D01*
X138033255Y-87588350D01*
X138064407Y-87676439D01*
X137627086Y-88112997D01*
X137385276Y-88695341D01*
X137384725Y-89325893D01*
X122774726Y-89325893D01*
X122775275Y-88698107D01*
X122534481Y-88115343D01*
X122161529Y-87741739D01*
X122532914Y-87371003D01*
X122774724Y-86788659D01*
X122775221Y-86219398D01*
X137373812Y-86219398D01*
X137398648Y-86849461D01*
X137591981Y-87316208D01*
X137853650Y-87408745D01*
X138790395Y-86472000D01*
X139149605Y-86472000D01*
X140086350Y-87408745D01*
X140348019Y-87316208D01*
X140566188Y-86724602D01*
X140541352Y-86094539D01*
X140348019Y-85627792D01*
X140086350Y-85535255D01*
X139149605Y-86472000D01*
X138790395Y-86472000D01*
X137853650Y-85535255D01*
X137591981Y-85627792D01*
X137373812Y-86219398D01*
X122775221Y-86219398D01*
X122775275Y-86158107D01*
X122534481Y-85575343D01*
X122161529Y-85201739D01*
X122532914Y-84831003D01*
X122774724Y-84248659D01*
X122775275Y-83618107D01*
X122534481Y-83035343D01*
X122095789Y-82595884D01*
X122126745Y-82508350D01*
X121190000Y-81571605D01*
X120253255Y-82508350D01*
X120284407Y-82596439D01*
X119847086Y-83032997D01*
X119605276Y-83615341D01*
X119604725Y-84245893D01*
X110765000Y-84245893D01*
X110765000Y-81139398D01*
X119593812Y-81139398D01*
X119618648Y-81769461D01*
X119811981Y-82236208D01*
X120073650Y-82328745D01*
X121010395Y-81392000D01*
X121369605Y-81392000D01*
X122306350Y-82328745D01*
X122568019Y-82236208D01*
X122786188Y-81644602D01*
X122761352Y-81014539D01*
X122568019Y-80547792D01*
X122306350Y-80455255D01*
X121369605Y-81392000D01*
X121010395Y-81392000D01*
X120073650Y-80455255D01*
X119811981Y-80547792D01*
X119593812Y-81139398D01*
X110765000Y-81139398D01*
X110765000Y-79165893D01*
X119604725Y-79165893D01*
X119845519Y-79748657D01*
X120284211Y-80188116D01*
X120253255Y-80275650D01*
X121190000Y-81212395D01*
X122126745Y-80275650D01*
X122095593Y-80187561D01*
X122532914Y-79751003D01*
X122774724Y-79168659D01*
X122774726Y-79165893D01*
X137384725Y-79165893D01*
X137625519Y-79748657D01*
X137998471Y-80122261D01*
X137627086Y-80492997D01*
X137385276Y-81075341D01*
X137384725Y-81705893D01*
X137625519Y-82288657D01*
X137998471Y-82662261D01*
X137627086Y-83032997D01*
X137385276Y-83615341D01*
X137384725Y-84245893D01*
X137625519Y-84828657D01*
X138064211Y-85268116D01*
X138033255Y-85355650D01*
X138970000Y-86292395D01*
X139906745Y-85355650D01*
X139875593Y-85267561D01*
X140312914Y-84831003D01*
X140554724Y-84248659D01*
X140555275Y-83618107D01*
X140314481Y-83035343D01*
X139941529Y-82661739D01*
X140312914Y-82291003D01*
X140554724Y-81708659D01*
X140555275Y-81078107D01*
X140314481Y-80495343D01*
X139941529Y-80121739D01*
X140312914Y-79751003D01*
X140554724Y-79168659D01*
X140555275Y-78538107D01*
X140314481Y-77955343D01*
X139869003Y-77509086D01*
X139286659Y-77267276D01*
X138656107Y-77266725D01*
X138073343Y-77507519D01*
X137627086Y-77952997D01*
X137385276Y-78535341D01*
X137384725Y-79165893D01*
X122774726Y-79165893D01*
X122775275Y-78538107D01*
X122534481Y-77955343D01*
X122089003Y-77509086D01*
X121506659Y-77267276D01*
X120876107Y-77266725D01*
X120293343Y-77507519D01*
X119847086Y-77952997D01*
X119605276Y-78535341D01*
X119604725Y-79165893D01*
X110765000Y-79165893D01*
X110765000Y-73849694D01*
X112665226Y-73849694D01*
X112913538Y-74450655D01*
X113372927Y-74910846D01*
X113973453Y-75160206D01*
X114623694Y-75160774D01*
X115224655Y-74912462D01*
X115684846Y-74453073D01*
X115934206Y-73852547D01*
X115934774Y-73202306D01*
X115686462Y-72601345D01*
X115584698Y-72499403D01*
X140150682Y-72499403D01*
X140429455Y-73174086D01*
X140945199Y-73690730D01*
X141619395Y-73970681D01*
X142349403Y-73971318D01*
X143024086Y-73692545D01*
X143540730Y-73176801D01*
X143820681Y-72502605D01*
X143821318Y-71772597D01*
X143542545Y-71097914D01*
X143026801Y-70581270D01*
X142352605Y-70301319D01*
X141622597Y-70300682D01*
X140947914Y-70579455D01*
X140431270Y-71095199D01*
X140151319Y-71769395D01*
X140150682Y-72499403D01*
X115584698Y-72499403D01*
X115227073Y-72141154D01*
X114626547Y-71891794D01*
X113976306Y-71891226D01*
X113375345Y-72139538D01*
X112915154Y-72598927D01*
X112665794Y-73199453D01*
X112665226Y-73849694D01*
X110765000Y-73849694D01*
X110765000Y-69777000D01*
X144395000Y-69777000D01*
X144395000Y-118407000D01*
X144395000Y-118407000D01*
G37*
X144395000Y-118407000D02*
X110765000Y-118407000D01*
X110765000Y-116441403D01*
X111194682Y-116441403D01*
X111473455Y-117116086D01*
X111989199Y-117632730D01*
X112663395Y-117912681D01*
X113393403Y-117913318D01*
X114068086Y-117634545D01*
X114584730Y-117118801D01*
X114864681Y-116444605D01*
X114865318Y-115714597D01*
X114586545Y-115039914D01*
X114070801Y-114523270D01*
X113396605Y-114243319D01*
X112666597Y-114242682D01*
X111991914Y-114521455D01*
X111475270Y-115037199D01*
X111195319Y-115711395D01*
X111194682Y-116441403D01*
X110765000Y-116441403D01*
X110765000Y-105949750D01*
X112903000Y-105949750D01*
X112903000Y-106552309D01*
X112999673Y-106785698D01*
X113178301Y-106964327D01*
X113411690Y-107061000D01*
X114014250Y-107061000D01*
X114173000Y-106902250D01*
X114173000Y-105791000D01*
X114427000Y-105791000D01*
X114427000Y-106902250D01*
X114585750Y-107061000D01*
X115188310Y-107061000D01*
X115421699Y-106964327D01*
X115600327Y-106785698D01*
X115697000Y-106552309D01*
X115697000Y-105949750D01*
X115538250Y-105791000D01*
X114427000Y-105791000D01*
X114173000Y-105791000D01*
X113061750Y-105791000D01*
X112903000Y-105949750D01*
X110765000Y-105949750D01*
X110765000Y-100860661D01*
X112902758Y-100860661D01*
X113114990Y-101374303D01*
X113507630Y-101767629D01*
X113715512Y-101853949D01*
X113509697Y-101938990D01*
X113116371Y-102331630D01*
X112903243Y-102844900D01*
X112902758Y-103400661D01*
X113114990Y-103914303D01*
X113467072Y-104267000D01*
X113411690Y-104267000D01*
X113178301Y-104363673D01*
X112999673Y-104542302D01*
X112903000Y-104775691D01*
X112903000Y-105378250D01*
X113061750Y-105537000D01*
X114173000Y-105537000D01*
X114173000Y-105517000D01*
X114427000Y-105517000D01*
X114427000Y-105537000D01*
X115538250Y-105537000D01*
X115697000Y-105378250D01*
X115697000Y-104775691D01*
X115600327Y-104542302D01*
X115421699Y-104363673D01*
X115188310Y-104267000D01*
X115132386Y-104267000D01*
X115483629Y-103916370D01*
X115696757Y-103403100D01*
X115697242Y-102847339D01*
X115485010Y-102333697D01*
X115092370Y-101940371D01*
X114884488Y-101854051D01*
X115090303Y-101769010D01*
X115483629Y-101376370D01*
X115696757Y-100863100D01*
X115697242Y-100307339D01*
X115485010Y-99793697D01*
X115092370Y-99400371D01*
X114579100Y-99187243D01*
X114023339Y-99186758D01*
X113509697Y-99398990D01*
X113116371Y-99791630D01*
X112903243Y-100304900D01*
X112902758Y-100860661D01*
X110765000Y-100860661D01*
X110765000Y-88849694D01*
X112665226Y-88849694D01*
X112913538Y-89450655D01*
X113372927Y-89910846D01*
X113973453Y-90160206D01*
X114623694Y-90160774D01*
X115224655Y-89912462D01*
X115684846Y-89453073D01*
X115934206Y-88852547D01*
X115934774Y-88202306D01*
X115686462Y-87601345D01*
X115227073Y-87141154D01*
X114626547Y-86891794D01*
X113976306Y-86891226D01*
X113375345Y-87139538D01*
X112915154Y-87598927D01*
X112665794Y-88199453D01*
X112665226Y-88849694D01*
X110765000Y-88849694D01*
X110765000Y-84245893D01*
X119604725Y-84245893D01*
X119845519Y-84828657D01*
X120218471Y-85202261D01*
X119847086Y-85572997D01*
X119605276Y-86155341D01*
X119604725Y-86785893D01*
X119845519Y-87368657D01*
X120218471Y-87742261D01*
X119847086Y-88112997D01*
X119605276Y-88695341D01*
X119604725Y-89325893D01*
X119845519Y-89908657D01*
X120218471Y-90282261D01*
X119847086Y-90652997D01*
X119605276Y-91235341D01*
X119604725Y-91865893D01*
X119845519Y-92448657D01*
X120218471Y-92822261D01*
X119847086Y-93192997D01*
X119605276Y-93775341D01*
X119604725Y-94405893D01*
X119845519Y-94988657D01*
X120218471Y-95362261D01*
X119847086Y-95732997D01*
X119605276Y-96315341D01*
X119604725Y-96945893D01*
X119845519Y-97528657D01*
X120218471Y-97902261D01*
X119847086Y-98272997D01*
X119605276Y-98855341D01*
X119604725Y-99485893D01*
X119845519Y-100068657D01*
X120218471Y-100442261D01*
X119847086Y-100812997D01*
X119605276Y-101395341D01*
X119604725Y-102025893D01*
X119845519Y-102608657D01*
X120218471Y-102982261D01*
X119847086Y-103352997D01*
X119605276Y-103935341D01*
X119604725Y-104565893D01*
X119845519Y-105148657D01*
X120218471Y-105522261D01*
X119847086Y-105892997D01*
X119605276Y-106475341D01*
X119604725Y-107105893D01*
X119845519Y-107688657D01*
X120290997Y-108134914D01*
X120873341Y-108376724D01*
X121503893Y-108377275D01*
X122086657Y-108136481D01*
X122532914Y-107691003D01*
X122774724Y-107108659D01*
X122775275Y-106478107D01*
X122534481Y-105895343D01*
X122161529Y-105521739D01*
X122532914Y-105151003D01*
X122774724Y-104568659D01*
X122775275Y-103938107D01*
X122534481Y-103355343D01*
X122161529Y-102981739D01*
X122532914Y-102611003D01*
X122774724Y-102028659D01*
X122775275Y-101398107D01*
X122534481Y-100815343D01*
X122161529Y-100441739D01*
X122532914Y-100071003D01*
X122774724Y-99488659D01*
X122775275Y-98858107D01*
X122534481Y-98275343D01*
X122161529Y-97901739D01*
X122532914Y-97531003D01*
X122774724Y-96948659D01*
X122775275Y-96318107D01*
X122534481Y-95735343D01*
X122161529Y-95361739D01*
X122532914Y-94991003D01*
X122774724Y-94408659D01*
X122775275Y-93778107D01*
X122534481Y-93195343D01*
X122161529Y-92821739D01*
X122532914Y-92451003D01*
X122774724Y-91868659D01*
X122775275Y-91238107D01*
X122534481Y-90655343D01*
X122161529Y-90281739D01*
X122532914Y-89911003D01*
X122774724Y-89328659D01*
X122774726Y-89325893D01*
X137384725Y-89325893D01*
X137625519Y-89908657D01*
X137998471Y-90282261D01*
X137627086Y-90652997D01*
X137385276Y-91235341D01*
X137384725Y-91865893D01*
X137625519Y-92448657D01*
X137998471Y-92822261D01*
X137627086Y-93192997D01*
X137385276Y-93775341D01*
X137384725Y-94405893D01*
X137625519Y-94988657D01*
X137998471Y-95362261D01*
X137627086Y-95732997D01*
X137385276Y-96315341D01*
X137384725Y-96945893D01*
X137625519Y-97528657D01*
X137998471Y-97902261D01*
X137627086Y-98272997D01*
X137385276Y-98855341D01*
X137384725Y-99485893D01*
X137625519Y-100068657D01*
X137998471Y-100442261D01*
X137627086Y-100812997D01*
X137385276Y-101395341D01*
X137384725Y-102025893D01*
X137625519Y-102608657D01*
X137998471Y-102982261D01*
X137627086Y-103352997D01*
X137385276Y-103935341D01*
X137384725Y-104565893D01*
X137625519Y-105148657D01*
X137998471Y-105522261D01*
X137627086Y-105892997D01*
X137385276Y-106475341D01*
X137384725Y-107105893D01*
X137625519Y-107688657D01*
X138070997Y-108134914D01*
X138653341Y-108376724D01*
X139283893Y-108377275D01*
X139866657Y-108136481D01*
X140312914Y-107691003D01*
X140554724Y-107108659D01*
X140555275Y-106478107D01*
X140314481Y-105895343D01*
X139941529Y-105521739D01*
X140312914Y-105151003D01*
X140554724Y-104568659D01*
X140555275Y-103938107D01*
X140314481Y-103355343D01*
X139941529Y-102981739D01*
X140312914Y-102611003D01*
X140554724Y-102028659D01*
X140555275Y-101398107D01*
X140314481Y-100815343D01*
X139941529Y-100441739D01*
X140312914Y-100071003D01*
X140554724Y-99488659D01*
X140555275Y-98858107D01*
X140314481Y-98275343D01*
X139941529Y-97901739D01*
X140312914Y-97531003D01*
X140554724Y-96948659D01*
X140555275Y-96318107D01*
X140314481Y-95735343D01*
X139941529Y-95361739D01*
X140312914Y-94991003D01*
X140554724Y-94408659D01*
X140555275Y-93778107D01*
X140314481Y-93195343D01*
X139941529Y-92821739D01*
X140312914Y-92451003D01*
X140554724Y-91868659D01*
X140555275Y-91238107D01*
X140314481Y-90655343D01*
X139941529Y-90281739D01*
X140312914Y-89911003D01*
X140554724Y-89328659D01*
X140555275Y-88698107D01*
X140314481Y-88115343D01*
X139875789Y-87675884D01*
X139906745Y-87588350D01*
X138970000Y-86651605D01*
X138033255Y-87588350D01*
X138064407Y-87676439D01*
X137627086Y-88112997D01*
X137385276Y-88695341D01*
X137384725Y-89325893D01*
X122774726Y-89325893D01*
X122775275Y-88698107D01*
X122534481Y-88115343D01*
X122161529Y-87741739D01*
X122532914Y-87371003D01*
X122774724Y-86788659D01*
X122775221Y-86219398D01*
X137373812Y-86219398D01*
X137398648Y-86849461D01*
X137591981Y-87316208D01*
X137853650Y-87408745D01*
X138790395Y-86472000D01*
X139149605Y-86472000D01*
X140086350Y-87408745D01*
X140348019Y-87316208D01*
X140566188Y-86724602D01*
X140541352Y-86094539D01*
X140348019Y-85627792D01*
X140086350Y-85535255D01*
X139149605Y-86472000D01*
X138790395Y-86472000D01*
X137853650Y-85535255D01*
X137591981Y-85627792D01*
X137373812Y-86219398D01*
X122775221Y-86219398D01*
X122775275Y-86158107D01*
X122534481Y-85575343D01*
X122161529Y-85201739D01*
X122532914Y-84831003D01*
X122774724Y-84248659D01*
X122775275Y-83618107D01*
X122534481Y-83035343D01*
X122095789Y-82595884D01*
X122126745Y-82508350D01*
X121190000Y-81571605D01*
X120253255Y-82508350D01*
X120284407Y-82596439D01*
X119847086Y-83032997D01*
X119605276Y-83615341D01*
X119604725Y-84245893D01*
X110765000Y-84245893D01*
X110765000Y-81139398D01*
X119593812Y-81139398D01*
X119618648Y-81769461D01*
X119811981Y-82236208D01*
X120073650Y-82328745D01*
X121010395Y-81392000D01*
X121369605Y-81392000D01*
X122306350Y-82328745D01*
X122568019Y-82236208D01*
X122786188Y-81644602D01*
X122761352Y-81014539D01*
X122568019Y-80547792D01*
X122306350Y-80455255D01*
X121369605Y-81392000D01*
X121010395Y-81392000D01*
X120073650Y-80455255D01*
X119811981Y-80547792D01*
X119593812Y-81139398D01*
X110765000Y-81139398D01*
X110765000Y-79165893D01*
X119604725Y-79165893D01*
X119845519Y-79748657D01*
X120284211Y-80188116D01*
X120253255Y-80275650D01*
X121190000Y-81212395D01*
X122126745Y-80275650D01*
X122095593Y-80187561D01*
X122532914Y-79751003D01*
X122774724Y-79168659D01*
X122774726Y-79165893D01*
X137384725Y-79165893D01*
X137625519Y-79748657D01*
X137998471Y-80122261D01*
X137627086Y-80492997D01*
X137385276Y-81075341D01*
X137384725Y-81705893D01*
X137625519Y-82288657D01*
X137998471Y-82662261D01*
X137627086Y-83032997D01*
X137385276Y-83615341D01*
X137384725Y-84245893D01*
X137625519Y-84828657D01*
X138064211Y-85268116D01*
X138033255Y-85355650D01*
X138970000Y-86292395D01*
X139906745Y-85355650D01*
X139875593Y-85267561D01*
X140312914Y-84831003D01*
X140554724Y-84248659D01*
X140555275Y-83618107D01*
X140314481Y-83035343D01*
X139941529Y-82661739D01*
X140312914Y-82291003D01*
X140554724Y-81708659D01*
X140555275Y-81078107D01*
X140314481Y-80495343D01*
X139941529Y-80121739D01*
X140312914Y-79751003D01*
X140554724Y-79168659D01*
X140555275Y-78538107D01*
X140314481Y-77955343D01*
X139869003Y-77509086D01*
X139286659Y-77267276D01*
X138656107Y-77266725D01*
X138073343Y-77507519D01*
X137627086Y-77952997D01*
X137385276Y-78535341D01*
X137384725Y-79165893D01*
X122774726Y-79165893D01*
X122775275Y-78538107D01*
X122534481Y-77955343D01*
X122089003Y-77509086D01*
X121506659Y-77267276D01*
X120876107Y-77266725D01*
X120293343Y-77507519D01*
X119847086Y-77952997D01*
X119605276Y-78535341D01*
X119604725Y-79165893D01*
X110765000Y-79165893D01*
X110765000Y-73849694D01*
X112665226Y-73849694D01*
X112913538Y-74450655D01*
X113372927Y-74910846D01*
X113973453Y-75160206D01*
X114623694Y-75160774D01*
X115224655Y-74912462D01*
X115684846Y-74453073D01*
X115934206Y-73852547D01*
X115934774Y-73202306D01*
X115686462Y-72601345D01*
X115584698Y-72499403D01*
X140150682Y-72499403D01*
X140429455Y-73174086D01*
X140945199Y-73690730D01*
X141619395Y-73970681D01*
X142349403Y-73971318D01*
X143024086Y-73692545D01*
X143540730Y-73176801D01*
X143820681Y-72502605D01*
X143821318Y-71772597D01*
X143542545Y-71097914D01*
X143026801Y-70581270D01*
X142352605Y-70301319D01*
X141622597Y-70300682D01*
X140947914Y-70579455D01*
X140431270Y-71095199D01*
X140151319Y-71769395D01*
X140150682Y-72499403D01*
X115584698Y-72499403D01*
X115227073Y-72141154D01*
X114626547Y-71891794D01*
X113976306Y-71891226D01*
X113375345Y-72139538D01*
X112915154Y-72598927D01*
X112665794Y-73199453D01*
X112665226Y-73849694D01*
X110765000Y-73849694D01*
X110765000Y-69777000D01*
X144395000Y-69777000D01*
X144395000Y-118407000D01*
M02*
