M48
;DRILL file {KiCad (2015-11-24 BZR 6329, Git e511afd)-product} date Die 01 Dez 2015 10:43:12 CET
;FORMAT={-:-/ absolute / metric / decimal}
FMAT,2
METRIC,TZ
T1C1.001
T2C1.016
T3C1.020
T4C2.100
%
G90
G05
M71
T1
X114.3Y-73.526
X114.3Y-88.526
T2
X114.3Y-100.584
X114.3Y-103.124
X114.3Y-105.664
T3
X121.19Y-78.852
X121.19Y-81.392
X121.19Y-83.932
X121.19Y-86.472
X121.19Y-89.012
X121.19Y-91.552
X121.19Y-94.092
X121.19Y-96.632
X121.19Y-99.172
X121.19Y-101.712
X121.19Y-104.252
X121.19Y-106.792
X138.97Y-78.852
X138.97Y-81.392
X138.97Y-83.932
X138.97Y-86.472
X138.97Y-89.012
X138.97Y-91.552
X138.97Y-94.092
X138.97Y-96.632
X138.97Y-99.172
X138.97Y-101.712
X138.97Y-104.252
X138.97Y-106.792
T4
X113.03Y-116.078
X141.986Y-72.136
T0
M30
