G04 (created by PCBNEW (2013-may-18)-stable) date Fre 02 Okt 2015 15:50:02 CEST*
%MOIN*%
G04 Gerber Fmt 3.4, Leading zero omitted, Abs format*
%FSLAX34Y34*%
G01*
G70*
G90*
G04 APERTURE LIST*
%ADD10C,0.00590551*%
%ADD11C,0.006*%
%ADD12C,0.012*%
G04 APERTURE END LIST*
G54D10*
G54D11*
X45200Y-55405D02*
X45200Y-56405D01*
X45200Y-56405D02*
X42200Y-56405D01*
X42200Y-56405D02*
X42200Y-55405D01*
X42200Y-55405D02*
X45200Y-55405D01*
X44200Y-56405D02*
X44200Y-55405D01*
G54D12*
X43307Y-39338D02*
X43307Y-39738D01*
X43307Y-39738D02*
X43707Y-39738D01*
X43707Y-39738D02*
X43707Y-42938D01*
X43707Y-42938D02*
X42907Y-42938D01*
X42907Y-42938D02*
X42907Y-39738D01*
X42907Y-39738D02*
X43307Y-39738D01*
X43307Y-43338D02*
X43307Y-42938D01*
G54D10*
X53212Y-52744D02*
X52612Y-53944D01*
X45212Y-52744D02*
X45812Y-53944D01*
X45812Y-53944D02*
X52612Y-53944D01*
X53212Y-39544D02*
X53212Y-52744D01*
X45212Y-39544D02*
X45212Y-52744D01*
X50792Y-39544D02*
X53212Y-39544D01*
X47632Y-39544D02*
X45212Y-39544D01*
X47632Y-38794D02*
X47632Y-39544D01*
X50792Y-38794D02*
X50792Y-39544D01*
X47632Y-38794D02*
X50792Y-38794D01*
X48912Y-40509D02*
X48912Y-40828D01*
X48931Y-40865D01*
X48950Y-40884D01*
X48987Y-40903D01*
X49062Y-40903D01*
X49100Y-40884D01*
X49118Y-40865D01*
X49137Y-40828D01*
X49137Y-40509D01*
X49531Y-40903D02*
X49306Y-40903D01*
X49418Y-40903D02*
X49418Y-40509D01*
X49381Y-40565D01*
X49343Y-40603D01*
X49306Y-40622D01*
X48134Y-41903D02*
X48134Y-41509D01*
X48284Y-41509D01*
X48322Y-41528D01*
X48340Y-41547D01*
X48359Y-41584D01*
X48359Y-41640D01*
X48340Y-41678D01*
X48322Y-41697D01*
X48284Y-41715D01*
X48134Y-41715D01*
X48528Y-41903D02*
X48528Y-41509D01*
X48528Y-41697D02*
X48753Y-41697D01*
X48753Y-41903D02*
X48753Y-41509D01*
X49015Y-41509D02*
X49090Y-41509D01*
X49128Y-41528D01*
X49165Y-41565D01*
X49184Y-41640D01*
X49184Y-41772D01*
X49165Y-41847D01*
X49128Y-41884D01*
X49090Y-41903D01*
X49015Y-41903D01*
X48978Y-41884D01*
X48940Y-41847D01*
X48922Y-41772D01*
X48922Y-41640D01*
X48940Y-41565D01*
X48978Y-41528D01*
X49015Y-41509D01*
X49296Y-41509D02*
X49521Y-41509D01*
X49409Y-41903D02*
X49409Y-41509D01*
X49728Y-41509D02*
X49803Y-41509D01*
X49840Y-41528D01*
X49878Y-41565D01*
X49896Y-41640D01*
X49896Y-41772D01*
X49878Y-41847D01*
X49840Y-41884D01*
X49803Y-41903D01*
X49728Y-41903D01*
X49690Y-41884D01*
X49653Y-41847D01*
X49634Y-41772D01*
X49634Y-41640D01*
X49653Y-41565D01*
X49690Y-41528D01*
X49728Y-41509D01*
X50065Y-41903D02*
X50065Y-41509D01*
X50290Y-41903D01*
X50290Y-41509D01*
X48059Y-54903D02*
X48059Y-54697D01*
X48040Y-54659D01*
X48003Y-54640D01*
X47928Y-54640D01*
X47890Y-54659D01*
X48059Y-54884D02*
X48022Y-54903D01*
X47928Y-54903D01*
X47890Y-54884D01*
X47872Y-54847D01*
X47872Y-54809D01*
X47890Y-54772D01*
X47928Y-54753D01*
X48022Y-54753D01*
X48059Y-54734D01*
X48303Y-54903D02*
X48265Y-54884D01*
X48247Y-54847D01*
X48247Y-54509D01*
X48509Y-54903D02*
X48472Y-54884D01*
X48453Y-54847D01*
X48453Y-54509D01*
X49015Y-54903D02*
X48978Y-54884D01*
X48959Y-54847D01*
X48959Y-54509D01*
X49334Y-54903D02*
X49334Y-54697D01*
X49315Y-54659D01*
X49278Y-54640D01*
X49203Y-54640D01*
X49165Y-54659D01*
X49334Y-54884D02*
X49296Y-54903D01*
X49203Y-54903D01*
X49165Y-54884D01*
X49146Y-54847D01*
X49146Y-54809D01*
X49165Y-54772D01*
X49203Y-54753D01*
X49296Y-54753D01*
X49334Y-54734D01*
X49484Y-54640D02*
X49578Y-54903D01*
X49671Y-54640D02*
X49578Y-54903D01*
X49540Y-54997D01*
X49521Y-55015D01*
X49484Y-55034D01*
X49971Y-54884D02*
X49934Y-54903D01*
X49859Y-54903D01*
X49821Y-54884D01*
X49803Y-54847D01*
X49803Y-54697D01*
X49821Y-54659D01*
X49859Y-54640D01*
X49934Y-54640D01*
X49971Y-54659D01*
X49990Y-54697D01*
X49990Y-54734D01*
X49803Y-54772D01*
X50159Y-54903D02*
X50159Y-54640D01*
X50159Y-54715D02*
X50178Y-54678D01*
X50196Y-54659D01*
X50234Y-54640D01*
X50271Y-54640D01*
X50384Y-54884D02*
X50421Y-54903D01*
X50496Y-54903D01*
X50534Y-54884D01*
X50553Y-54847D01*
X50553Y-54828D01*
X50534Y-54790D01*
X50496Y-54772D01*
X50440Y-54772D01*
X50403Y-54753D01*
X50384Y-54715D01*
X50384Y-54697D01*
X50403Y-54659D01*
X50440Y-54640D01*
X50496Y-54640D01*
X50534Y-54659D01*
X46766Y-53903D02*
X46766Y-53640D01*
X46766Y-53715D02*
X46784Y-53678D01*
X46803Y-53659D01*
X46841Y-53640D01*
X46878Y-53640D01*
X47159Y-53884D02*
X47122Y-53903D01*
X47047Y-53903D01*
X47009Y-53884D01*
X46991Y-53847D01*
X46991Y-53697D01*
X47009Y-53659D01*
X47047Y-53640D01*
X47122Y-53640D01*
X47159Y-53659D01*
X47178Y-53697D01*
X47178Y-53734D01*
X46991Y-53772D01*
X47515Y-53884D02*
X47478Y-53903D01*
X47403Y-53903D01*
X47365Y-53884D01*
X47347Y-53865D01*
X47328Y-53828D01*
X47328Y-53715D01*
X47347Y-53678D01*
X47365Y-53659D01*
X47403Y-53640D01*
X47478Y-53640D01*
X47515Y-53659D01*
X47740Y-53903D02*
X47703Y-53884D01*
X47684Y-53865D01*
X47665Y-53828D01*
X47665Y-53715D01*
X47684Y-53678D01*
X47703Y-53659D01*
X47740Y-53640D01*
X47797Y-53640D01*
X47834Y-53659D01*
X47853Y-53678D01*
X47872Y-53715D01*
X47872Y-53828D01*
X47853Y-53865D01*
X47834Y-53884D01*
X47797Y-53903D01*
X47740Y-53903D01*
X48040Y-53903D02*
X48040Y-53640D01*
X48040Y-53678D02*
X48059Y-53659D01*
X48097Y-53640D01*
X48153Y-53640D01*
X48190Y-53659D01*
X48209Y-53697D01*
X48209Y-53903D01*
X48209Y-53697D02*
X48228Y-53659D01*
X48265Y-53640D01*
X48322Y-53640D01*
X48359Y-53659D01*
X48378Y-53697D01*
X48378Y-53903D01*
X48565Y-53903D02*
X48565Y-53640D01*
X48565Y-53678D02*
X48584Y-53659D01*
X48622Y-53640D01*
X48678Y-53640D01*
X48715Y-53659D01*
X48734Y-53697D01*
X48734Y-53903D01*
X48734Y-53697D02*
X48753Y-53659D01*
X48790Y-53640D01*
X48847Y-53640D01*
X48884Y-53659D01*
X48903Y-53697D01*
X48903Y-53903D01*
X49240Y-53884D02*
X49203Y-53903D01*
X49128Y-53903D01*
X49090Y-53884D01*
X49071Y-53847D01*
X49071Y-53697D01*
X49090Y-53659D01*
X49128Y-53640D01*
X49203Y-53640D01*
X49240Y-53659D01*
X49259Y-53697D01*
X49259Y-53734D01*
X49071Y-53772D01*
X49428Y-53640D02*
X49428Y-53903D01*
X49428Y-53678D02*
X49446Y-53659D01*
X49484Y-53640D01*
X49540Y-53640D01*
X49578Y-53659D01*
X49596Y-53697D01*
X49596Y-53903D01*
X49953Y-53903D02*
X49953Y-53509D01*
X49953Y-53884D02*
X49915Y-53903D01*
X49840Y-53903D01*
X49803Y-53884D01*
X49784Y-53865D01*
X49765Y-53828D01*
X49765Y-53715D01*
X49784Y-53678D01*
X49803Y-53659D01*
X49840Y-53640D01*
X49915Y-53640D01*
X49953Y-53659D01*
X50290Y-53884D02*
X50253Y-53903D01*
X50178Y-53903D01*
X50140Y-53884D01*
X50121Y-53847D01*
X50121Y-53697D01*
X50140Y-53659D01*
X50178Y-53640D01*
X50253Y-53640D01*
X50290Y-53659D01*
X50309Y-53697D01*
X50309Y-53734D01*
X50121Y-53772D01*
X50646Y-53903D02*
X50646Y-53509D01*
X50646Y-53884D02*
X50609Y-53903D01*
X50534Y-53903D01*
X50496Y-53884D01*
X50478Y-53865D01*
X50459Y-53828D01*
X50459Y-53715D01*
X50478Y-53678D01*
X50496Y-53659D01*
X50534Y-53640D01*
X50609Y-53640D01*
X50646Y-53659D01*
X51190Y-53903D02*
X51152Y-53884D01*
X51134Y-53865D01*
X51115Y-53828D01*
X51115Y-53715D01*
X51134Y-53678D01*
X51152Y-53659D01*
X51190Y-53640D01*
X51246Y-53640D01*
X51284Y-53659D01*
X51302Y-53678D01*
X51321Y-53715D01*
X51321Y-53828D01*
X51302Y-53865D01*
X51284Y-53884D01*
X51246Y-53903D01*
X51190Y-53903D01*
X51490Y-53640D02*
X51490Y-53903D01*
X51490Y-53678D02*
X51509Y-53659D01*
X51546Y-53640D01*
X51602Y-53640D01*
X51640Y-53659D01*
X51659Y-53697D01*
X51659Y-53903D01*
X46953Y-52884D02*
X46991Y-52903D01*
X47065Y-52903D01*
X47103Y-52884D01*
X47122Y-52847D01*
X47122Y-52828D01*
X47103Y-52790D01*
X47065Y-52772D01*
X47009Y-52772D01*
X46972Y-52753D01*
X46953Y-52715D01*
X46953Y-52697D01*
X46972Y-52659D01*
X47009Y-52640D01*
X47065Y-52640D01*
X47103Y-52659D01*
X47290Y-52903D02*
X47290Y-52640D01*
X47290Y-52509D02*
X47272Y-52528D01*
X47290Y-52547D01*
X47309Y-52528D01*
X47290Y-52509D01*
X47290Y-52547D01*
X47647Y-52640D02*
X47647Y-52959D01*
X47628Y-52997D01*
X47609Y-53015D01*
X47572Y-53034D01*
X47515Y-53034D01*
X47478Y-53015D01*
X47647Y-52884D02*
X47609Y-52903D01*
X47534Y-52903D01*
X47497Y-52884D01*
X47478Y-52865D01*
X47459Y-52828D01*
X47459Y-52715D01*
X47478Y-52678D01*
X47497Y-52659D01*
X47534Y-52640D01*
X47609Y-52640D01*
X47647Y-52659D01*
X47834Y-52640D02*
X47834Y-52903D01*
X47834Y-52678D02*
X47853Y-52659D01*
X47890Y-52640D01*
X47947Y-52640D01*
X47984Y-52659D01*
X48003Y-52697D01*
X48003Y-52903D01*
X48359Y-52903D02*
X48359Y-52697D01*
X48340Y-52659D01*
X48303Y-52640D01*
X48228Y-52640D01*
X48190Y-52659D01*
X48359Y-52884D02*
X48322Y-52903D01*
X48228Y-52903D01*
X48190Y-52884D01*
X48172Y-52847D01*
X48172Y-52809D01*
X48190Y-52772D01*
X48228Y-52753D01*
X48322Y-52753D01*
X48359Y-52734D01*
X48603Y-52903D02*
X48565Y-52884D01*
X48547Y-52847D01*
X48547Y-52509D01*
X49053Y-52903D02*
X49053Y-52509D01*
X49090Y-52753D02*
X49203Y-52903D01*
X49203Y-52640D02*
X49053Y-52790D01*
X49521Y-52884D02*
X49484Y-52903D01*
X49409Y-52903D01*
X49371Y-52884D01*
X49353Y-52847D01*
X49353Y-52697D01*
X49371Y-52659D01*
X49409Y-52640D01*
X49484Y-52640D01*
X49521Y-52659D01*
X49540Y-52697D01*
X49540Y-52734D01*
X49353Y-52772D01*
X49859Y-52884D02*
X49821Y-52903D01*
X49746Y-52903D01*
X49709Y-52884D01*
X49690Y-52847D01*
X49690Y-52697D01*
X49709Y-52659D01*
X49746Y-52640D01*
X49821Y-52640D01*
X49859Y-52659D01*
X49878Y-52697D01*
X49878Y-52734D01*
X49690Y-52772D01*
X50046Y-52640D02*
X50046Y-53034D01*
X50046Y-52659D02*
X50084Y-52640D01*
X50159Y-52640D01*
X50196Y-52659D01*
X50215Y-52678D01*
X50234Y-52715D01*
X50234Y-52828D01*
X50215Y-52865D01*
X50196Y-52884D01*
X50159Y-52903D01*
X50084Y-52903D01*
X50046Y-52884D01*
X50759Y-52903D02*
X50721Y-52884D01*
X50703Y-52865D01*
X50684Y-52828D01*
X50684Y-52715D01*
X50703Y-52678D01*
X50721Y-52659D01*
X50759Y-52640D01*
X50815Y-52640D01*
X50853Y-52659D01*
X50871Y-52678D01*
X50890Y-52715D01*
X50890Y-52828D01*
X50871Y-52865D01*
X50853Y-52884D01*
X50815Y-52903D01*
X50759Y-52903D01*
X51227Y-52640D02*
X51227Y-52903D01*
X51059Y-52640D02*
X51059Y-52847D01*
X51077Y-52884D01*
X51115Y-52903D01*
X51171Y-52903D01*
X51209Y-52884D01*
X51227Y-52865D01*
X51359Y-52640D02*
X51509Y-52640D01*
X51415Y-52509D02*
X51415Y-52847D01*
X51434Y-52884D01*
X51471Y-52903D01*
X51509Y-52903D01*
X46822Y-51640D02*
X46822Y-51959D01*
X46803Y-51997D01*
X46784Y-52015D01*
X46747Y-52034D01*
X46691Y-52034D01*
X46653Y-52015D01*
X46822Y-51884D02*
X46784Y-51903D01*
X46709Y-51903D01*
X46672Y-51884D01*
X46653Y-51865D01*
X46634Y-51828D01*
X46634Y-51715D01*
X46653Y-51678D01*
X46672Y-51659D01*
X46709Y-51640D01*
X46784Y-51640D01*
X46822Y-51659D01*
X47009Y-51903D02*
X47009Y-51640D01*
X47009Y-51715D02*
X47028Y-51678D01*
X47047Y-51659D01*
X47084Y-51640D01*
X47122Y-51640D01*
X47309Y-51903D02*
X47272Y-51884D01*
X47253Y-51865D01*
X47234Y-51828D01*
X47234Y-51715D01*
X47253Y-51678D01*
X47272Y-51659D01*
X47309Y-51640D01*
X47365Y-51640D01*
X47403Y-51659D01*
X47422Y-51678D01*
X47440Y-51715D01*
X47440Y-51828D01*
X47422Y-51865D01*
X47403Y-51884D01*
X47365Y-51903D01*
X47309Y-51903D01*
X47778Y-51640D02*
X47778Y-51903D01*
X47609Y-51640D02*
X47609Y-51847D01*
X47628Y-51884D01*
X47665Y-51903D01*
X47722Y-51903D01*
X47759Y-51884D01*
X47778Y-51865D01*
X47965Y-51640D02*
X47965Y-51903D01*
X47965Y-51678D02*
X47984Y-51659D01*
X48022Y-51640D01*
X48078Y-51640D01*
X48115Y-51659D01*
X48134Y-51697D01*
X48134Y-51903D01*
X48490Y-51903D02*
X48490Y-51509D01*
X48490Y-51884D02*
X48453Y-51903D01*
X48378Y-51903D01*
X48340Y-51884D01*
X48322Y-51865D01*
X48303Y-51828D01*
X48303Y-51715D01*
X48322Y-51678D01*
X48340Y-51659D01*
X48378Y-51640D01*
X48453Y-51640D01*
X48490Y-51659D01*
X48978Y-51640D02*
X48978Y-52034D01*
X48978Y-51659D02*
X49015Y-51640D01*
X49090Y-51640D01*
X49128Y-51659D01*
X49146Y-51678D01*
X49165Y-51715D01*
X49165Y-51828D01*
X49146Y-51865D01*
X49128Y-51884D01*
X49090Y-51903D01*
X49015Y-51903D01*
X48978Y-51884D01*
X49390Y-51903D02*
X49353Y-51884D01*
X49334Y-51847D01*
X49334Y-51509D01*
X49709Y-51903D02*
X49709Y-51697D01*
X49690Y-51659D01*
X49653Y-51640D01*
X49578Y-51640D01*
X49540Y-51659D01*
X49709Y-51884D02*
X49671Y-51903D01*
X49578Y-51903D01*
X49540Y-51884D01*
X49521Y-51847D01*
X49521Y-51809D01*
X49540Y-51772D01*
X49578Y-51753D01*
X49671Y-51753D01*
X49709Y-51734D01*
X49896Y-51640D02*
X49896Y-51903D01*
X49896Y-51678D02*
X49915Y-51659D01*
X49953Y-51640D01*
X50009Y-51640D01*
X50046Y-51659D01*
X50065Y-51697D01*
X50065Y-51903D01*
X50403Y-51884D02*
X50365Y-51903D01*
X50290Y-51903D01*
X50253Y-51884D01*
X50234Y-51847D01*
X50234Y-51697D01*
X50253Y-51659D01*
X50290Y-51640D01*
X50365Y-51640D01*
X50403Y-51659D01*
X50421Y-51697D01*
X50421Y-51734D01*
X50234Y-51772D01*
X51059Y-51903D02*
X51059Y-51697D01*
X51040Y-51659D01*
X51003Y-51640D01*
X50928Y-51640D01*
X50890Y-51659D01*
X51059Y-51884D02*
X51021Y-51903D01*
X50928Y-51903D01*
X50890Y-51884D01*
X50871Y-51847D01*
X50871Y-51809D01*
X50890Y-51772D01*
X50928Y-51753D01*
X51021Y-51753D01*
X51059Y-51734D01*
X51246Y-51640D02*
X51246Y-51903D01*
X51246Y-51678D02*
X51265Y-51659D01*
X51302Y-51640D01*
X51359Y-51640D01*
X51396Y-51659D01*
X51415Y-51697D01*
X51415Y-51903D01*
X51771Y-51903D02*
X51771Y-51509D01*
X51771Y-51884D02*
X51734Y-51903D01*
X51659Y-51903D01*
X51621Y-51884D01*
X51602Y-51865D01*
X51584Y-51828D01*
X51584Y-51715D01*
X51602Y-51678D01*
X51621Y-51659D01*
X51659Y-51640D01*
X51734Y-51640D01*
X51771Y-51659D01*
M02*
