M48
;DRILL file {Pcbnew (2013-may-18)-stable} date Fre 02 Okt 2015 16:46:12 CEST
;FORMAT={-:-/ absolute / inch / decimal}
FMAT,2
INCH,TZ
T1C0.040
T2C0.040
T3C0.083
%
G90
G05
M72
T1
X4.2701Y-5.5906
X4.3701Y-5.5906
X4.4701Y-5.5906
T2
X4.3307Y-3.9339
X4.3307Y-4.3339
X4.5713Y-4.1244
X4.5713Y-4.2244
X4.5713Y-4.3244
X4.5713Y-4.4244
X4.5713Y-4.5244
X4.5713Y-4.6244
X4.5713Y-4.7244
X4.5713Y-4.8244
X4.5713Y-4.9244
X4.5713Y-5.0244
X4.5713Y-5.1244
X4.5713Y-5.2244
X5.2713Y-4.1244
X5.2713Y-4.2244
X5.2713Y-4.3244
X5.2713Y-4.4244
X5.2713Y-4.5244
X5.2713Y-4.6244
X5.2713Y-4.7244
X5.2713Y-4.8244
X5.2713Y-4.9244
X5.2713Y-5.0244
X5.2713Y-5.1244
X5.2713Y-5.2244
T3
X4.4094Y-5.3543
X5.3937Y-3.8583
T0
M30
