<?xml version="1.0" standalone="no"?>
 <!DOCTYPE svg PUBLIC "-//W3C//DTD SVG 1.1//EN" 
 "http://www.w3.org/Graphics/SVG/1.1/DTD/svg11.dtd"> 
<svg xmlns="http://www.w3.org/2000/svg" version="1.1" 
    width="3.69824cm" height="5.19938cm" viewBox="0 0 14560 20470 ">
<title>SVG Picture created as photon-sensor-board-selfetch-F_Cu.svg date 2015/10/04 03:45:17 </title>
  <desc>Picture generated by PCBNEW </desc>
<g style="fill:#000000; fill-opacity:1;stroke:#000000; stroke-opacity:1;
stroke-linecap:round; stroke-linejoin:round; "
 transform="translate(0 0) scale(1 1)">
</g>
<g style="fill:#000000; fill-opacity:0.0; 
stroke:#000000; stroke-width:-0.000393701; stroke-opacity:1; 
stroke-linecap:round; stroke-linejoin:round;">
</g>
<g style="fill:#000000; fill-opacity:0.0; 
stroke:#000000; stroke-width:39.3701; stroke-opacity:1; 
stroke-linecap:round; stroke-linejoin:round;">
<path d="M393 393
L14173 393
" />
<path d="M393 20078
L393 393
" />
<path d="M14173 20078
L393 20078
" />
<path d="M14173 393
L14173 20078
" />
</g>
<g style="fill:#000000; fill-opacity:1.0; 
stroke:#000000; stroke-width:0; stroke-opacity:1; 
stroke-linecap:round; stroke-linejoin:round;">
<circle cx="4767.72" cy="4236.22" r="374.016" /> 
</g>
<g style="fill:#000000; fill-opacity:1.0; 
stroke:#000000; stroke-width:39.3701; stroke-opacity:1; 
stroke-linecap:round; stroke-linejoin:round;">
</g>
<g style="fill:#000000; fill-opacity:1.0; 
stroke:#000000; stroke-width:0; stroke-opacity:1; 
stroke-linecap:round; stroke-linejoin:round;">
<circle cx="4767.72" cy="5236.22" r="374.016" /> 
</g>
<g style="fill:#000000; fill-opacity:1.0; 
stroke:#000000; stroke-width:39.3701; stroke-opacity:1; 
stroke-linecap:round; stroke-linejoin:round;">
</g>
<g style="fill:#000000; fill-opacity:1.0; 
stroke:#000000; stroke-width:0; stroke-opacity:1; 
stroke-linecap:round; stroke-linejoin:round;">
<circle cx="4767.72" cy="6236.22" r="374.016" /> 
</g>
<g style="fill:#000000; fill-opacity:1.0; 
stroke:#000000; stroke-width:39.3701; stroke-opacity:1; 
stroke-linecap:round; stroke-linejoin:round;">
</g>
<g style="fill:#000000; fill-opacity:1.0; 
stroke:#000000; stroke-width:0; stroke-opacity:1; 
stroke-linecap:round; stroke-linejoin:round;">
<circle cx="4767.72" cy="7236.22" r="374.016" /> 
</g>
<g style="fill:#000000; fill-opacity:1.0; 
stroke:#000000; stroke-width:39.3701; stroke-opacity:1; 
stroke-linecap:round; stroke-linejoin:round;">
</g>
<g style="fill:#000000; fill-opacity:1.0; 
stroke:#000000; stroke-width:0; stroke-opacity:1; 
stroke-linecap:round; stroke-linejoin:round;">
<circle cx="4767.72" cy="8236.22" r="374.016" /> 
</g>
<g style="fill:#000000; fill-opacity:1.0; 
stroke:#000000; stroke-width:39.3701; stroke-opacity:1; 
stroke-linecap:round; stroke-linejoin:round;">
</g>
<g style="fill:#000000; fill-opacity:1.0; 
stroke:#000000; stroke-width:0; stroke-opacity:1; 
stroke-linecap:round; stroke-linejoin:round;">
<circle cx="4767.72" cy="9236.22" r="374.016" /> 
</g>
<g style="fill:#000000; fill-opacity:1.0; 
stroke:#000000; stroke-width:39.3701; stroke-opacity:1; 
stroke-linecap:round; stroke-linejoin:round;">
</g>
<g style="fill:#000000; fill-opacity:1.0; 
stroke:#000000; stroke-width:0; stroke-opacity:1; 
stroke-linecap:round; stroke-linejoin:round;">
<circle cx="4767.72" cy="10236.2" r="374.016" /> 
</g>
<g style="fill:#000000; fill-opacity:1.0; 
stroke:#000000; stroke-width:39.3701; stroke-opacity:1; 
stroke-linecap:round; stroke-linejoin:round;">
</g>
<g style="fill:#000000; fill-opacity:1.0; 
stroke:#000000; stroke-width:0; stroke-opacity:1; 
stroke-linecap:round; stroke-linejoin:round;">
<circle cx="4767.72" cy="11236.2" r="374.016" /> 
</g>
<g style="fill:#000000; fill-opacity:1.0; 
stroke:#000000; stroke-width:39.3701; stroke-opacity:1; 
stroke-linecap:round; stroke-linejoin:round;">
</g>
<g style="fill:#000000; fill-opacity:1.0; 
stroke:#000000; stroke-width:0; stroke-opacity:1; 
stroke-linecap:round; stroke-linejoin:round;">
<circle cx="4767.72" cy="12236.2" r="374.016" /> 
</g>
<g style="fill:#000000; fill-opacity:1.0; 
stroke:#000000; stroke-width:39.3701; stroke-opacity:1; 
stroke-linecap:round; stroke-linejoin:round;">
</g>
<g style="fill:#000000; fill-opacity:1.0; 
stroke:#000000; stroke-width:0; stroke-opacity:1; 
stroke-linecap:round; stroke-linejoin:round;">
<circle cx="4767.72" cy="13236.2" r="374.016" /> 
</g>
<g style="fill:#000000; fill-opacity:1.0; 
stroke:#000000; stroke-width:39.3701; stroke-opacity:1; 
stroke-linecap:round; stroke-linejoin:round;">
</g>
<g style="fill:#000000; fill-opacity:1.0; 
stroke:#000000; stroke-width:0; stroke-opacity:1; 
stroke-linecap:round; stroke-linejoin:round;">
<circle cx="4767.72" cy="14236.2" r="374.016" /> 
</g>
<g style="fill:#000000; fill-opacity:1.0; 
stroke:#000000; stroke-width:39.3701; stroke-opacity:1; 
stroke-linecap:round; stroke-linejoin:round;">
</g>
<g style="fill:#000000; fill-opacity:1.0; 
stroke:#000000; stroke-width:0; stroke-opacity:1; 
stroke-linecap:round; stroke-linejoin:round;">
<circle cx="4767.72" cy="15236.2" r="374.016" /> 
</g>
<g style="fill:#000000; fill-opacity:1.0; 
stroke:#000000; stroke-width:39.3701; stroke-opacity:1; 
stroke-linecap:round; stroke-linejoin:round;">
</g>
<g style="fill:#000000; fill-opacity:1.0; 
stroke:#000000; stroke-width:0; stroke-opacity:1; 
stroke-linecap:round; stroke-linejoin:round;">
<circle cx="11767.7" cy="4236.22" r="374.016" /> 
</g>
<g style="fill:#000000; fill-opacity:1.0; 
stroke:#000000; stroke-width:39.3701; stroke-opacity:1; 
stroke-linecap:round; stroke-linejoin:round;">
</g>
<g style="fill:#000000; fill-opacity:1.0; 
stroke:#000000; stroke-width:0; stroke-opacity:1; 
stroke-linecap:round; stroke-linejoin:round;">
<circle cx="11767.7" cy="5236.22" r="374.016" /> 
</g>
<g style="fill:#000000; fill-opacity:1.0; 
stroke:#000000; stroke-width:39.3701; stroke-opacity:1; 
stroke-linecap:round; stroke-linejoin:round;">
</g>
<g style="fill:#000000; fill-opacity:1.0; 
stroke:#000000; stroke-width:0; stroke-opacity:1; 
stroke-linecap:round; stroke-linejoin:round;">
<circle cx="11767.7" cy="6236.22" r="374.016" /> 
</g>
<g style="fill:#000000; fill-opacity:1.0; 
stroke:#000000; stroke-width:39.3701; stroke-opacity:1; 
stroke-linecap:round; stroke-linejoin:round;">
</g>
<g style="fill:#000000; fill-opacity:1.0; 
stroke:#000000; stroke-width:0; stroke-opacity:1; 
stroke-linecap:round; stroke-linejoin:round;">
<circle cx="11767.7" cy="7236.22" r="374.016" /> 
</g>
<g style="fill:#000000; fill-opacity:1.0; 
stroke:#000000; stroke-width:39.3701; stroke-opacity:1; 
stroke-linecap:round; stroke-linejoin:round;">
</g>
<g style="fill:#000000; fill-opacity:1.0; 
stroke:#000000; stroke-width:0; stroke-opacity:1; 
stroke-linecap:round; stroke-linejoin:round;">
<circle cx="11767.7" cy="8236.22" r="374.016" /> 
</g>
<g style="fill:#000000; fill-opacity:1.0; 
stroke:#000000; stroke-width:39.3701; stroke-opacity:1; 
stroke-linecap:round; stroke-linejoin:round;">
</g>
<g style="fill:#000000; fill-opacity:1.0; 
stroke:#000000; stroke-width:0; stroke-opacity:1; 
stroke-linecap:round; stroke-linejoin:round;">
<circle cx="11767.7" cy="9236.22" r="374.016" /> 
</g>
<g style="fill:#000000; fill-opacity:1.0; 
stroke:#000000; stroke-width:39.3701; stroke-opacity:1; 
stroke-linecap:round; stroke-linejoin:round;">
</g>
<g style="fill:#000000; fill-opacity:1.0; 
stroke:#000000; stroke-width:0; stroke-opacity:1; 
stroke-linecap:round; stroke-linejoin:round;">
<circle cx="11767.7" cy="10236.2" r="374.016" /> 
</g>
<g style="fill:#000000; fill-opacity:1.0; 
stroke:#000000; stroke-width:39.3701; stroke-opacity:1; 
stroke-linecap:round; stroke-linejoin:round;">
</g>
<g style="fill:#000000; fill-opacity:1.0; 
stroke:#000000; stroke-width:0; stroke-opacity:1; 
stroke-linecap:round; stroke-linejoin:round;">
<circle cx="11767.7" cy="11236.2" r="374.016" /> 
</g>
<g style="fill:#000000; fill-opacity:1.0; 
stroke:#000000; stroke-width:39.3701; stroke-opacity:1; 
stroke-linecap:round; stroke-linejoin:round;">
</g>
<g style="fill:#000000; fill-opacity:1.0; 
stroke:#000000; stroke-width:0; stroke-opacity:1; 
stroke-linecap:round; stroke-linejoin:round;">
<circle cx="11767.7" cy="12236.2" r="374.016" /> 
</g>
<g style="fill:#000000; fill-opacity:1.0; 
stroke:#000000; stroke-width:39.3701; stroke-opacity:1; 
stroke-linecap:round; stroke-linejoin:round;">
</g>
<g style="fill:#000000; fill-opacity:1.0; 
stroke:#000000; stroke-width:0; stroke-opacity:1; 
stroke-linecap:round; stroke-linejoin:round;">
<circle cx="11767.7" cy="13236.2" r="374.016" /> 
</g>
<g style="fill:#000000; fill-opacity:1.0; 
stroke:#000000; stroke-width:39.3701; stroke-opacity:1; 
stroke-linecap:round; stroke-linejoin:round;">
</g>
<g style="fill:#000000; fill-opacity:1.0; 
stroke:#000000; stroke-width:0; stroke-opacity:1; 
stroke-linecap:round; stroke-linejoin:round;">
<circle cx="11767.7" cy="14236.2" r="374.016" /> 
</g>
<g style="fill:#000000; fill-opacity:1.0; 
stroke:#000000; stroke-width:39.3701; stroke-opacity:1; 
stroke-linecap:round; stroke-linejoin:round;">
</g>
<g style="fill:#000000; fill-opacity:1.0; 
stroke:#000000; stroke-width:0; stroke-opacity:1; 
stroke-linecap:round; stroke-linejoin:round;">
<circle cx="11767.7" cy="15236.2" r="374.016" /> 
</g>
<g style="fill:#000000; fill-opacity:1.0; 
stroke:#000000; stroke-width:39.3701; stroke-opacity:1; 
stroke-linecap:round; stroke-linejoin:round;">
</g>
<g style="fill:#000000; fill-opacity:1.0; 
stroke:#000000; stroke-width:0; stroke-opacity:1; 
stroke-linecap:round; stroke-linejoin:round;">
<polyline style="fill-rule:evenodd;"
points="2048,15185
1261,15185
1261,14398
2048,14398
2048,15185
" /> 
<circle cx="1655.12" cy="13792.1" r="393.701" /> 
</g>
<g style="fill:#000000; fill-opacity:1.0; 
stroke:#000000; stroke-width:39.3701; stroke-opacity:1; 
stroke-linecap:round; stroke-linejoin:round;">
</g>
<g style="fill:#000000; fill-opacity:1.0; 
stroke:#000000; stroke-width:0; stroke-opacity:1; 
stroke-linecap:round; stroke-linejoin:round;">
<circle cx="1655.12" cy="12792.1" r="393.701" /> 
</g>
<g style="fill:#000000; fill-opacity:1.0; 
stroke:#000000; stroke-width:39.3701; stroke-opacity:1; 
stroke-linecap:round; stroke-linejoin:round;">
</g>
<g style="fill:#000000; fill-opacity:1.0; 
stroke:#000000; stroke-width:0; stroke-opacity:1; 
stroke-linecap:round; stroke-linejoin:round;">
<circle cx="2655.12" cy="2139.37" r="393.5" /> 
</g>
<g style="fill:#000000; fill-opacity:1.0; 
stroke:#000000; stroke-width:39.3701; stroke-opacity:1; 
stroke-linecap:round; stroke-linejoin:round;">
</g>
<g style="fill:#000000; fill-opacity:1.0; 
stroke:#000000; stroke-width:0; stroke-opacity:1; 
stroke-linecap:round; stroke-linejoin:round;">
<circle cx="2655.12" cy="8044.88" r="393.5" /> 
</g>
<g style="fill:#000000; fill-opacity:1.0; 
stroke:#000000; stroke-width:39.3701; stroke-opacity:1; 
stroke-linecap:round; stroke-linejoin:round;">
</g>
<g style="fill:#000000; fill-opacity:1.0; 
stroke:#000000; stroke-width:0; stroke-opacity:1; 
stroke-linecap:round; stroke-linejoin:round;">
<polyline style="fill-rule:evenodd;"
points="8537,5757
8647,6347
7963,6347
8073,5757
8537,5757
" /> 
<polyline style="fill-rule:evenodd;"
points="9836,6488
9497,6983
9013,6499
9508,6160
9836,6488
" /> 
<polyline style="fill-rule:evenodd;"
points="10240,7924
9650,8034
9650,7350
10240,7460
10240,7924
" /> 
<polyline style="fill-rule:evenodd;"
points="9508,9223
9013,8884
9497,8400
9836,8895
9508,9223
" /> 
<polyline style="fill-rule:evenodd;"
points="7101,6160
7596,6499
7112,6983
6773,6488
7101,6160
" /> 
<polyline style="fill-rule:evenodd;"
points="6370,7460
6960,7350
6960,8034
6370,7924
6370,7460
" /> 
<polyline style="fill-rule:evenodd;"
points="6773,8895
7112,8400
7596,8884
7101,9223
6773,8895
" /> 
<polyline style="fill-rule:evenodd;"
points="8599,6298
8436,7200
8173,7200
8010,6298
8599,6298
" /> 
<polyline style="fill-rule:evenodd;"
points="8044,6291
8239,7187
7996,7288
7500,6517
8044,6291
" /> 
<polyline style="fill-rule:evenodd;"
points="9109,6517
8614,7288
8371,7187
8565,6291
9109,6517
" /> 
<polyline style="fill-rule:evenodd;"
points="9498,6915
8745,7438
8559,7252
9081,6498
9498,6915
" /> 
<polyline style="fill-rule:evenodd;"
points="7528,6498
8051,7252
7865,7438
7111,6915
7528,6498
" /> 
<polyline style="fill-rule:evenodd;"
points="9705,7431
8809,7626
8709,7383
9480,6887
9705,7431
" /> 
<polyline style="fill-rule:evenodd;"
points="7130,6887
7901,7383
7800,7626
6904,7431
7130,6887
" /> 
<polyline style="fill-rule:evenodd;"
points="9699,7986
8797,7823
8797,7560
9699,7397
9699,7986
" /> 
<polyline style="fill-rule:evenodd;"
points="6911,7397
7813,7560
7813,7823
6911,7986
6911,7397
" /> 
<polyline style="fill-rule:evenodd;"
points="6904,7952
7800,7758
7901,8001
7130,8496
6904,7952
" /> 
<polyline style="fill-rule:evenodd;"
points="9480,8496
8709,8001
8809,7758
9705,7952
9480,8496
" /> 
<polyline style="fill-rule:evenodd;"
points="9081,8885
8559,8132
8745,7946
9498,8468
9081,8885
" /> 
<polyline style="fill-rule:evenodd;"
points="7111,8468
7865,7946
8051,8132
7528,8885
7111,8468
" /> 
<polyline style="fill-rule:evenodd;"
points="7409,8769
7977,8064
8086,8137
7654,8933
7409,8769
" /> 
<polyline style="fill-rule:evenodd;"
points="8955,8933
8523,8137
8632,8064
9201,8769
8955,8933
" /> 
</g>
<g style="fill:#000000; fill-opacity:1.0; 
stroke:#000000; stroke-width:393.701; stroke-opacity:1; 
stroke-linecap:round; stroke-linejoin:round;">
</g>
<g style="fill:#000000; fill-opacity:0.0; 
stroke:#000000; stroke-width:393.701; stroke-opacity:1; 
stroke-linecap:round; stroke-linejoin:round;">
<path d="M1255 8992
L1255 2892
" />
<path d="M1655 12792
L1655 9792
" />
<path d="M1655 9792
L1255 8992
" />
<path d="M1255 2892
L1955 2192
" />
<path d="M2655 2139
L1955 2192
" />
<path d="M10299 4236
L8202 2139
" />
<path d="M8202 2139
L2655 2139
" />
<path d="M11767 4236
L10299 4236
" />
<path d="M11767 15236
L12799 15236
" />
<path d="M3255 14392
L3255 15192
" />
<path d="M3255 15192
L3255 18592
" />
<path d="M3255 18592
L3855 19192
" />
<path d="M3855 19192
L12655 19192
" />
<path d="M12655 19192
L13255 18592
" />
<path d="M13255 18592
L13255 17292
" />
<path d="M3255 14392
L2655 13792
" />
<path d="M13255 15692
L13255 17292
" />
<path d="M12799 15236
L13255 15692
" />
<path d="M2655 13792
L3255 13192
" />
<path d="M3255 9392
L2655 8044
" />
<path d="M3255 13192
L3255 9392
" />
<path d="M2655 13792
L1655 13792
" />
</g>
<g style="fill:#000000; fill-opacity:0.0; 
stroke:#000000; stroke-width:100; stroke-opacity:1; 
stroke-linecap:round; stroke-linejoin:round;">
<path d="M11830 14173
L11767 14236
" />
</g>
<g style="fill:#000000; fill-opacity:1.0; 
stroke:#000000; stroke-width:100; stroke-opacity:1; 
stroke-linecap:round; stroke-linejoin:round;">
<polyline style="fill-rule:evenodd;"
points="13953,19859
613,19859
613,14867
1061,14867
1061,15205
1069,15244
1084,15280
1106,15313
1133,15341
1166,15363
1203,15378
1241,15385
1580,15385
1630,15335
1630,14817
1680,14817
1680,15335
1730,15385
2068,15385
2107,15378
2143,15363
2176,15341
2204,15313
2226,15280
2241,15244
2248,15205
2248,14867
2198,14817
1680,14817
1630,14817
1111,14817
1061,14867
613,14867
613,2892
732,2892
732,8992
734,9007
733,9022
739,9058
742,9093
747,9108
749,9123
761,9157
772,9191
779,9204
784,9219
787,9225
1132,9915
1132,12296
1101,12327
1021,12443
966,12573
936,12711
934,12852
960,12991
1012,13122
1088,13241
1137,13291
1101,13327
1021,13443
966,13573
936,13711
934,13852
960,13991
1012,14122
1088,14241
1111,14265
1106,14270
1084,14303
1069,14340
1061,14378
1061,14717
1111,14767
1630,14767
1630,14759
1680,14759
1680,14767
2198,14767
2248,14717
2248,14378
2241,14340
2230,14314
2438,14314
2732,14608
2732,18592
2737,18640
2741,18688
2742,18690
2742,18693
2756,18739
2770,18786
2771,18788
2772,18791
2794,18833
2816,18876
2818,18878
2819,18881
2850,18918
2880,18956
2884,18960
2884,18960
2884,18960
2885,18961
3485,19561
3522,19592
3559,19623
3562,19624
3564,19626
3607,19649
3649,19672
3651,19673
3654,19674
3700,19688
3746,19703
3749,19703
3751,19704
3799,19709
3847,19714
3853,19714
3853,19714
3853,19714
3855,19714
12655,19714
12703,19709
12751,19705
12753,19704
12756,19704
12802,19690
12849,19677
12851,19675
12854,19675
12896,19652
12939,19630
12941,19628
12944,19627
12981,19596
13019,19566
13023,19562
13023,19562
13023,19562
13024,19561
13624,18961
13655,18924
13686,18887
13687,18884
13689,18882
13712,18840
13735,18797
13736,18795
13737,18792
13751,18746
13766,18700
13766,18698
13767,18695
13772,18647
13777,18599
13777,18594
13777,18593
13777,18593
13777,18592
13777,15692
13772,15644
13768,15596
13767,15593
13767,15590
13753,15544
13740,15498
13738,15495
13738,15493
13715,15450
13693,15407
13691,15405
13690,15403
13659,15365
13629,15327
13625,15324
13625,15323
13625,15323
13624,15322
13168,14866
13131,14836
13094,14805
13091,14803
13089,14802
13047,14779
13005,14756
13002,14755
12999,14753
12953,14739
12907,14725
12905,14724
12902,14724
12854,14719
12806,14713
12801,14713
12801,14713
12800,14713
12799,14713
12280,14713
12299,14695
12378,14583
12434,14458
12465,14324
12467,14167
12440,14033
12388,13906
12312,13791
12257,13736
12299,13695
12378,13583
12434,13458
12465,13324
12467,13167
12440,13033
12388,12906
12312,12791
12257,12736
12299,12695
12378,12583
12434,12458
12465,12324
12467,12167
12440,12033
12388,11906
12312,11791
12257,11736
12299,11695
12378,11583
12434,11458
12465,11324
12467,11167
12440,11033
12388,10906
12312,10791
12257,10736
12299,10695
12378,10583
12434,10458
12465,10324
12467,10167
12440,10033
12388,9906
12312,9791
12257,9736
12299,9695
12378,9583
12434,9458
12465,9324
12467,9167
12440,9033
12388,8906
12312,8791
12257,8736
12299,8695
12378,8583
12434,8458
12465,8324
12467,8167
12440,8033
12388,7906
12312,7791
12215,7694
12120,7630
12122,7625
11767,7271
11413,7625
11415,7630
11327,7688
11229,7784
11151,7897
11097,8023
11069,8157
11067,8295
11091,8429
11142,8557
11216,8672
11278,8736
11229,8784
11151,8897
11097,9023
11069,9157
11067,9295
11091,9429
11142,9557
11216,9672
11278,9736
11229,9784
11151,9897
11097,10023
11069,10157
11067,10295
11091,10429
11142,10557
11216,10672
11278,10736
11229,10784
11151,10897
11097,11023
11069,11157
11067,11295
11091,11429
11142,11557
11216,11672
11278,11736
11229,11784
11151,11897
11097,12023
11069,12157
11067,12295
11091,12429
11142,12557
11216,12672
11278,12736
11229,12784
11151,12897
11097,13023
11069,13157
11067,13295
11091,13429
11142,13557
11216,13672
11278,13736
11229,13784
11151,13897
11097,14023
11069,14157
11067,14295
11091,14429
11142,14557
11216,14672
11278,14736
11229,14784
11151,14897
11097,15023
11069,15157
11067,15295
11091,15429
11142,15557
11216,15672
11312,15771
11424,15849
11550,15904
11684,15934
11821,15937
11956,15913
12084,15863
12200,15790
12233,15758
12582,15758
12732,15908
12732,18375
12438,18669
4071,18669
3777,18375
3777,14392
3772,14344
3768,14296
3767,14293
3767,14290
3753,14244
3740,14198
3738,14195
3738,14193
3715,14150
3693,14107
3691,14105
3690,14103
3659,14065
3629,14027
3625,14024
3625,14023
3625,14023
3624,14022
3393,13792
3624,13561
3655,13524
3686,13487
3687,13484
3689,13482
3712,13440
3735,13397
3736,13395
3737,13392
3751,13346
3766,13300
3766,13298
3767,13295
3772,13247
3777,13199
3777,13194
3777,13193
3777,13193
3777,13192
3777,9392
3777,9388
3777,9384
3772,9337
3767,9290
3766,9287
3766,9283
3751,9238
3738,9193
3736,9189
3735,9186
3732,9179
3334,8286
3340,8272
3371,8135
3374,7974
3346,7836
3293,7705
3215,7588
3115,7488
2998,7409
2868,7354
2730,7326
2589,7325
2451,7351
2320,7404
2202,7481
2101,7580
2021,7696
1966,7826
1937,7964
1935,8105
1960,8244
2012,8375
2088,8493
2186,8595
2302,8675
2378,8708
2732,9503
2732,12975
2438,13269
2196,13269
2202,13264
2283,13149
2340,13020
2372,12882
2374,12721
2347,12583
2293,12452
2215,12335
2177,12297
2177,9792
2176,9776
2176,9761
2171,9726
2167,9690
2163,9675
2160,9660
2148,9627
2138,9593
2130,9579
2125,9565
2122,9558
1777,8868
1777,6295
4067,6295
4091,6429
4142,6557
4216,6672
4278,6736
4229,6784
4151,6897
4097,7023
4069,7157
4067,7295
4091,7429
4142,7557
4216,7672
4278,7736
4229,7784
4151,7897
4097,8023
4069,8157
4067,8295
4091,8429
4142,8557
4216,8672
4278,8736
4229,8784
4151,8897
4097,9023
4069,9157
4067,9295
4091,9429
4142,9557
4216,9672
4278,9736
4229,9784
4151,9897
4097,10023
4069,10157
4067,10295
4091,10429
4142,10557
4216,10672
4278,10736
4229,10784
4151,10897
4097,11023
4069,11157
4067,11295
4091,11429
4142,11557
4216,11672
4278,11736
4229,11784
4151,11897
4097,12023
4069,12157
4067,12295
4091,12429
4142,12557
4216,12672
4278,12736
4229,12784
4151,12897
4097,13023
4069,13157
4067,13295
4091,13429
4142,13557
4216,13672
4278,13736
4229,13784
4151,13897
4097,14023
4069,14157
4067,14295
4091,14429
4142,14557
4216,14672
4278,14736
4229,14784
4151,14897
4097,15023
4069,15157
4067,15295
4091,15429
4142,15557
4216,15672
4312,15771
4424,15849
4550,15904
4684,15934
4821,15937
4956,15913
5084,15863
5200,15790
5299,15695
5378,15583
5434,15458
5465,15324
5467,15167
5440,15033
5388,14906
5312,14791
5257,14736
5299,14695
5378,14583
5434,14458
5465,14324
5467,14167
5440,14033
5388,13906
5312,13791
5257,13736
5299,13695
5378,13583
5434,13458
5465,13324
5467,13167
5440,13033
5388,12906
5312,12791
5257,12736
5299,12695
5378,12583
5434,12458
5465,12324
5467,12167
5440,12033
5388,11906
5312,11791
5257,11736
5299,11695
5378,11583
5434,11458
5465,11324
5467,11167
5440,11033
5388,10906
5312,10791
5257,10736
5299,10695
5378,10583
5434,10458
5465,10324
5467,10167
5440,10033
5388,9906
5312,9791
5257,9736
5299,9695
5378,9583
5434,9458
5465,9324
5467,9167
5440,9033
5388,8906
5312,8791
5257,8736
5299,8695
5378,8583
5434,8458
5465,8324
5467,8167
5440,8033
5388,7906
5312,7791
5257,7736
5299,7695
5378,7583
5433,7460
6042,7460
6042,7924
6053,8007
6089,8092
6147,8163
6222,8216
6310,8245
6702,8318
6728,8382
6503,8710
6465,8785
6446,8875
6454,8967
6486,9053
6542,9127
6870,9455
6936,9506
7021,9541
7113,9550
7204,9534
7286,9493
7629,9258
7636,9259
7728,9252
7813,9218
7887,9163
7942,9089
8305,8420
8668,9089
8715,9155
8787,9213
8871,9249
8963,9260
8979,9257
9323,9493
9398,9531
9488,9550
9580,9542
9666,9510
9740,9455
10068,9127
10119,9060
10154,8975
10163,8883
10147,8793
10106,8710
9881,8382
9907,8318
10300,8245
10379,8219
10456,8169
10516,8099
10554,8015
10567,7924
10567,7460
10556,7376
10520,7292
10477,7238
11190,7238
11202,7351
11235,7459
11286,7554
11377,7590
11732,7236
11803,7236
12157,7590
12248,7554
12301,7454
12333,7346
12344,7233
12332,7121
12299,7013
12248,6917
12157,6881
11803,7236
11732,7236
11377,6881
11286,6917
11233,7017
11201,7126
11190,7238
10477,7238
10462,7220
10387,7167
10300,7138
9907,7065
9881,7001
10106,6673
10144,6598
10163,6508
10155,6416
10123,6330
10068,6257
9740,5929
9673,5877
9588,5843
9496,5833
9406,5849
9323,5890
8995,6115
8931,6089
8858,5697
8832,5617
8782,5540
8712,5480
8628,5442
8537,5429
8073,5429
7989,5440
7905,5476
7833,5534
7780,5609
7751,5697
7678,6089
7614,6115
7286,5890
7211,5852
7121,5833
7029,5841
6943,5873
6870,5929
6542,6257
6490,6323
6456,6408
6446,6500
6462,6591
6503,6673
6728,7001
6702,7065
6310,7138
6230,7164
6153,7214
6093,7285
6055,7368
6042,7460
5433,7460
5434,7458
5465,7324
5467,7167
5440,7033
5388,6906
5312,6791
5257,6736
5299,6695
5378,6583
5434,6458
5465,6324
5467,6167
5440,6033
5388,5906
5312,5791
5215,5694
5120,5630
5122,5625
4767,5271
4413,5625
4415,5630
4327,5688
4229,5784
4151,5897
4097,6023
4069,6157
4067,6295
1777,6295
1777,5238
4190,5238
4202,5351
4235,5459
4286,5554
4377,5590
4732,5236
4803,5236
5157,5590
5248,5554
5301,5454
5333,5346
5344,5233
5332,5121
5299,5013
5248,4917
5157,4881
4803,5236
4732,5236
4377,4881
4286,4917
4233,5017
4201,5126
4190,5238
1777,5238
1777,4295
4067,4295
4091,4429
4142,4557
4216,4672
4312,4771
4414,4842
4413,4846
4767,5200
5122,4846
5120,4841
5200,4790
5299,4695
5378,4583
5434,4458
5465,4324
5467,4167
5440,4033
5388,3906
5312,3791
5215,3694
5102,3617
4975,3564
4841,3537
4704,3536
4569,3561
4442,3613
4327,3688
4229,3784
4151,3897
4097,4023
4069,4157
4067,4295
1777,4295
1777,3108
2187,2698
2198,2697
2302,2770
2431,2826
2569,2856
2710,2859
2849,2835
2980,2784
3099,2708
3149,2661
7985,2661
9929,4605
9967,4636
10004,4667
10006,4668
10008,4670
10051,4693
10093,4716
10096,4717
10098,4718
10144,4732
10190,4747
10193,4747
10195,4748
10243,4753
10291,4758
10297,4758
10297,4758
10297,4758
10299,4758
11255,4758
11229,4784
11151,4897
11097,5023
11069,5157
11067,5295
11091,5429
11142,5557
11216,5672
11278,5736
11229,5784
11151,5897
11097,6023
11069,6157
11067,6295
11091,6429
11142,6557
11216,6672
11312,6771
11414,6842
11413,6846
11767,7200
12122,6846
12120,6841
12200,6790
12299,6695
12378,6583
12434,6458
12465,6324
12467,6167
12440,6033
12388,5906
12312,5791
12257,5736
12299,5695
12378,5583
12434,5458
12465,5324
12467,5167
12440,5033
12388,4906
12312,4791
12257,4736
12299,4695
12378,4583
12434,4458
12465,4324
12467,4167
12440,4033
12388,3906
12312,3791
12215,3694
12102,3617
11975,3564
11841,3537
11704,3536
11569,3561
11442,3613
11327,3688
11301,3713
10515,3713
8571,1769
8534,1739
8497,1708
8495,1706
8492,1705
8450,1682
8408,1659
8405,1658
8403,1657
8356,1642
8310,1628
8308,1628
8305,1627
8257,1622
8209,1616
8204,1616
8204,1616
8204,1616
8202,1616
3149,1616
3115,1582
2998,1503
2868,1449
2730,1420
2589,1419
2451,1446
2320,1499
2202,1576
2121,1655
1915,1671
1887,1676
1859,1678
1837,1684
1815,1688
1788,1699
1761,1707
1741,1717
1720,1725
1696,1740
1670,1753
1653,1767
1634,1779
1613,1799
1590,1817
1585,1822
885,2522
855,2559
824,2596
822,2599
820,2601
798,2644
774,2686
774,2688
772,2691
758,2737
744,2783
743,2786
742,2788
738,2836
732,2884
732,2890
732,2890
732,2890
732,2892
613,2892
613,613
13953,613
13953,19859
" /> 
</g>
<g style="fill:#FFFFFF; fill-opacity:1.0; 
stroke:#FFFFFF; stroke-width:100; stroke-opacity:1; 
stroke-linecap:round; stroke-linejoin:round;">
</g>
<g style="fill:#FFFFFF; fill-opacity:1.0; 
stroke:#FFFFFF; stroke-width:0; stroke-opacity:1; 
stroke-linecap:round; stroke-linejoin:round;">
<circle cx="4767.72" cy="4236.22" r="200.787" /> 
</g>
<g style="fill:#FFFFFF; fill-opacity:1.0; 
stroke:#FFFFFF; stroke-width:39.3701; stroke-opacity:1; 
stroke-linecap:round; stroke-linejoin:round;">
</g>
<g style="fill:#FFFFFF; fill-opacity:1.0; 
stroke:#FFFFFF; stroke-width:0; stroke-opacity:1; 
stroke-linecap:round; stroke-linejoin:round;">
<circle cx="4767.72" cy="5236.22" r="200.787" /> 
</g>
<g style="fill:#FFFFFF; fill-opacity:1.0; 
stroke:#FFFFFF; stroke-width:39.3701; stroke-opacity:1; 
stroke-linecap:round; stroke-linejoin:round;">
</g>
<g style="fill:#FFFFFF; fill-opacity:1.0; 
stroke:#FFFFFF; stroke-width:0; stroke-opacity:1; 
stroke-linecap:round; stroke-linejoin:round;">
<circle cx="4767.72" cy="6236.22" r="200.787" /> 
</g>
<g style="fill:#FFFFFF; fill-opacity:1.0; 
stroke:#FFFFFF; stroke-width:39.3701; stroke-opacity:1; 
stroke-linecap:round; stroke-linejoin:round;">
</g>
<g style="fill:#FFFFFF; fill-opacity:1.0; 
stroke:#FFFFFF; stroke-width:0; stroke-opacity:1; 
stroke-linecap:round; stroke-linejoin:round;">
<circle cx="4767.72" cy="7236.22" r="200.787" /> 
</g>
<g style="fill:#FFFFFF; fill-opacity:1.0; 
stroke:#FFFFFF; stroke-width:39.3701; stroke-opacity:1; 
stroke-linecap:round; stroke-linejoin:round;">
</g>
<g style="fill:#FFFFFF; fill-opacity:1.0; 
stroke:#FFFFFF; stroke-width:0; stroke-opacity:1; 
stroke-linecap:round; stroke-linejoin:round;">
<circle cx="4767.72" cy="8236.22" r="200.787" /> 
</g>
<g style="fill:#FFFFFF; fill-opacity:1.0; 
stroke:#FFFFFF; stroke-width:39.3701; stroke-opacity:1; 
stroke-linecap:round; stroke-linejoin:round;">
</g>
<g style="fill:#FFFFFF; fill-opacity:1.0; 
stroke:#FFFFFF; stroke-width:0; stroke-opacity:1; 
stroke-linecap:round; stroke-linejoin:round;">
<circle cx="4767.72" cy="9236.22" r="200.787" /> 
</g>
<g style="fill:#FFFFFF; fill-opacity:1.0; 
stroke:#FFFFFF; stroke-width:39.3701; stroke-opacity:1; 
stroke-linecap:round; stroke-linejoin:round;">
</g>
<g style="fill:#FFFFFF; fill-opacity:1.0; 
stroke:#FFFFFF; stroke-width:0; stroke-opacity:1; 
stroke-linecap:round; stroke-linejoin:round;">
<circle cx="4767.72" cy="10236.2" r="200.787" /> 
</g>
<g style="fill:#FFFFFF; fill-opacity:1.0; 
stroke:#FFFFFF; stroke-width:39.3701; stroke-opacity:1; 
stroke-linecap:round; stroke-linejoin:round;">
</g>
<g style="fill:#FFFFFF; fill-opacity:1.0; 
stroke:#FFFFFF; stroke-width:0; stroke-opacity:1; 
stroke-linecap:round; stroke-linejoin:round;">
<circle cx="4767.72" cy="11236.2" r="200.787" /> 
</g>
<g style="fill:#FFFFFF; fill-opacity:1.0; 
stroke:#FFFFFF; stroke-width:39.3701; stroke-opacity:1; 
stroke-linecap:round; stroke-linejoin:round;">
</g>
<g style="fill:#FFFFFF; fill-opacity:1.0; 
stroke:#FFFFFF; stroke-width:0; stroke-opacity:1; 
stroke-linecap:round; stroke-linejoin:round;">
<circle cx="4767.72" cy="12236.2" r="200.787" /> 
</g>
<g style="fill:#FFFFFF; fill-opacity:1.0; 
stroke:#FFFFFF; stroke-width:39.3701; stroke-opacity:1; 
stroke-linecap:round; stroke-linejoin:round;">
</g>
<g style="fill:#FFFFFF; fill-opacity:1.0; 
stroke:#FFFFFF; stroke-width:0; stroke-opacity:1; 
stroke-linecap:round; stroke-linejoin:round;">
<circle cx="4767.72" cy="13236.2" r="200.787" /> 
</g>
<g style="fill:#FFFFFF; fill-opacity:1.0; 
stroke:#FFFFFF; stroke-width:39.3701; stroke-opacity:1; 
stroke-linecap:round; stroke-linejoin:round;">
</g>
<g style="fill:#FFFFFF; fill-opacity:1.0; 
stroke:#FFFFFF; stroke-width:0; stroke-opacity:1; 
stroke-linecap:round; stroke-linejoin:round;">
<circle cx="4767.72" cy="14236.2" r="200.787" /> 
</g>
<g style="fill:#FFFFFF; fill-opacity:1.0; 
stroke:#FFFFFF; stroke-width:39.3701; stroke-opacity:1; 
stroke-linecap:round; stroke-linejoin:round;">
</g>
<g style="fill:#FFFFFF; fill-opacity:1.0; 
stroke:#FFFFFF; stroke-width:0; stroke-opacity:1; 
stroke-linecap:round; stroke-linejoin:round;">
<circle cx="4767.72" cy="15236.2" r="200.787" /> 
</g>
<g style="fill:#FFFFFF; fill-opacity:1.0; 
stroke:#FFFFFF; stroke-width:39.3701; stroke-opacity:1; 
stroke-linecap:round; stroke-linejoin:round;">
</g>
<g style="fill:#FFFFFF; fill-opacity:1.0; 
stroke:#FFFFFF; stroke-width:0; stroke-opacity:1; 
stroke-linecap:round; stroke-linejoin:round;">
<circle cx="11767.7" cy="4236.22" r="200.787" /> 
</g>
<g style="fill:#FFFFFF; fill-opacity:1.0; 
stroke:#FFFFFF; stroke-width:39.3701; stroke-opacity:1; 
stroke-linecap:round; stroke-linejoin:round;">
</g>
<g style="fill:#FFFFFF; fill-opacity:1.0; 
stroke:#FFFFFF; stroke-width:0; stroke-opacity:1; 
stroke-linecap:round; stroke-linejoin:round;">
<circle cx="11767.7" cy="5236.22" r="200.787" /> 
</g>
<g style="fill:#FFFFFF; fill-opacity:1.0; 
stroke:#FFFFFF; stroke-width:39.3701; stroke-opacity:1; 
stroke-linecap:round; stroke-linejoin:round;">
</g>
<g style="fill:#FFFFFF; fill-opacity:1.0; 
stroke:#FFFFFF; stroke-width:0; stroke-opacity:1; 
stroke-linecap:round; stroke-linejoin:round;">
<circle cx="11767.7" cy="6236.22" r="200.787" /> 
</g>
<g style="fill:#FFFFFF; fill-opacity:1.0; 
stroke:#FFFFFF; stroke-width:39.3701; stroke-opacity:1; 
stroke-linecap:round; stroke-linejoin:round;">
</g>
<g style="fill:#FFFFFF; fill-opacity:1.0; 
stroke:#FFFFFF; stroke-width:0; stroke-opacity:1; 
stroke-linecap:round; stroke-linejoin:round;">
<circle cx="11767.7" cy="7236.22" r="200.787" /> 
</g>
<g style="fill:#FFFFFF; fill-opacity:1.0; 
stroke:#FFFFFF; stroke-width:39.3701; stroke-opacity:1; 
stroke-linecap:round; stroke-linejoin:round;">
</g>
<g style="fill:#FFFFFF; fill-opacity:1.0; 
stroke:#FFFFFF; stroke-width:0; stroke-opacity:1; 
stroke-linecap:round; stroke-linejoin:round;">
<circle cx="11767.7" cy="8236.22" r="200.787" /> 
</g>
<g style="fill:#FFFFFF; fill-opacity:1.0; 
stroke:#FFFFFF; stroke-width:39.3701; stroke-opacity:1; 
stroke-linecap:round; stroke-linejoin:round;">
</g>
<g style="fill:#FFFFFF; fill-opacity:1.0; 
stroke:#FFFFFF; stroke-width:0; stroke-opacity:1; 
stroke-linecap:round; stroke-linejoin:round;">
<circle cx="11767.7" cy="9236.22" r="200.787" /> 
</g>
<g style="fill:#FFFFFF; fill-opacity:1.0; 
stroke:#FFFFFF; stroke-width:39.3701; stroke-opacity:1; 
stroke-linecap:round; stroke-linejoin:round;">
</g>
<g style="fill:#FFFFFF; fill-opacity:1.0; 
stroke:#FFFFFF; stroke-width:0; stroke-opacity:1; 
stroke-linecap:round; stroke-linejoin:round;">
<circle cx="11767.7" cy="10236.2" r="200.787" /> 
</g>
<g style="fill:#FFFFFF; fill-opacity:1.0; 
stroke:#FFFFFF; stroke-width:39.3701; stroke-opacity:1; 
stroke-linecap:round; stroke-linejoin:round;">
</g>
<g style="fill:#FFFFFF; fill-opacity:1.0; 
stroke:#FFFFFF; stroke-width:0; stroke-opacity:1; 
stroke-linecap:round; stroke-linejoin:round;">
<circle cx="11767.7" cy="11236.2" r="200.787" /> 
</g>
<g style="fill:#FFFFFF; fill-opacity:1.0; 
stroke:#FFFFFF; stroke-width:39.3701; stroke-opacity:1; 
stroke-linecap:round; stroke-linejoin:round;">
</g>
<g style="fill:#FFFFFF; fill-opacity:1.0; 
stroke:#FFFFFF; stroke-width:0; stroke-opacity:1; 
stroke-linecap:round; stroke-linejoin:round;">
<circle cx="11767.7" cy="12236.2" r="200.787" /> 
</g>
<g style="fill:#FFFFFF; fill-opacity:1.0; 
stroke:#FFFFFF; stroke-width:39.3701; stroke-opacity:1; 
stroke-linecap:round; stroke-linejoin:round;">
</g>
<g style="fill:#FFFFFF; fill-opacity:1.0; 
stroke:#FFFFFF; stroke-width:0; stroke-opacity:1; 
stroke-linecap:round; stroke-linejoin:round;">
<circle cx="11767.7" cy="13236.2" r="200.787" /> 
</g>
<g style="fill:#FFFFFF; fill-opacity:1.0; 
stroke:#FFFFFF; stroke-width:39.3701; stroke-opacity:1; 
stroke-linecap:round; stroke-linejoin:round;">
</g>
<g style="fill:#FFFFFF; fill-opacity:1.0; 
stroke:#FFFFFF; stroke-width:0; stroke-opacity:1; 
stroke-linecap:round; stroke-linejoin:round;">
<circle cx="11767.7" cy="14236.2" r="200.787" /> 
</g>
<g style="fill:#FFFFFF; fill-opacity:1.0; 
stroke:#FFFFFF; stroke-width:39.3701; stroke-opacity:1; 
stroke-linecap:round; stroke-linejoin:round;">
</g>
<g style="fill:#FFFFFF; fill-opacity:1.0; 
stroke:#FFFFFF; stroke-width:0; stroke-opacity:1; 
stroke-linecap:round; stroke-linejoin:round;">
<circle cx="11767.7" cy="15236.2" r="200.787" /> 
</g>
<g style="fill:#FFFFFF; fill-opacity:1.0; 
stroke:#FFFFFF; stroke-width:39.3701; stroke-opacity:1; 
stroke-linecap:round; stroke-linejoin:round;">
</g>
<g style="fill:#FFFFFF; fill-opacity:1.0; 
stroke:#FFFFFF; stroke-width:0; stroke-opacity:1; 
stroke-linecap:round; stroke-linejoin:round;">
<circle cx="1655.12" cy="14792.1" r="200" /> 
</g>
<g style="fill:#FFFFFF; fill-opacity:1.0; 
stroke:#FFFFFF; stroke-width:39.3701; stroke-opacity:1; 
stroke-linecap:round; stroke-linejoin:round;">
</g>
<g style="fill:#FFFFFF; fill-opacity:1.0; 
stroke:#FFFFFF; stroke-width:0; stroke-opacity:1; 
stroke-linecap:round; stroke-linejoin:round;">
<circle cx="1655.12" cy="13792.1" r="200" /> 
</g>
<g style="fill:#FFFFFF; fill-opacity:1.0; 
stroke:#FFFFFF; stroke-width:39.3701; stroke-opacity:1; 
stroke-linecap:round; stroke-linejoin:round;">
</g>
<g style="fill:#FFFFFF; fill-opacity:1.0; 
stroke:#FFFFFF; stroke-width:0; stroke-opacity:1; 
stroke-linecap:round; stroke-linejoin:round;">
<circle cx="1655.12" cy="12792.1" r="200" /> 
</g>
<g style="fill:#FFFFFF; fill-opacity:1.0; 
stroke:#FFFFFF; stroke-width:39.3701; stroke-opacity:1; 
stroke-linecap:round; stroke-linejoin:round;">
</g>
<g style="fill:#FFFFFF; fill-opacity:1.0; 
stroke:#FFFFFF; stroke-width:0; stroke-opacity:1; 
stroke-linecap:round; stroke-linejoin:round;">
<circle cx="2655.12" cy="2139.37" r="197" /> 
</g>
<g style="fill:#FFFFFF; fill-opacity:1.0; 
stroke:#FFFFFF; stroke-width:39.3701; stroke-opacity:1; 
stroke-linecap:round; stroke-linejoin:round;">
</g>
<g style="fill:#FFFFFF; fill-opacity:1.0; 
stroke:#FFFFFF; stroke-width:0; stroke-opacity:1; 
stroke-linecap:round; stroke-linejoin:round;">
<circle cx="2655.12" cy="8044.88" r="197" /> 
</g>
<g style="fill:#FFFFFF; fill-opacity:1.0; 
stroke:#FFFFFF; stroke-width:39.3701; stroke-opacity:1; 
stroke-linecap:round; stroke-linejoin:round;">
</g>
<g style="fill:#000000; fill-opacity:1.0; 
stroke:#000000; stroke-width:39.3701; stroke-opacity:1; 
stroke-linecap:round; stroke-linejoin:round;">
</g> 
</svg>
